<svg version="1.1" id="Layer_1" xmlns="http://www.w3.org/2000/svg" xmlns:xlink="http://www.w3.org/1999/xlink" x="0px" y="0px"
	 width="100%" viewBox="0 0 1368 1357" enable-background="new 0 0 1368 1357" xml:space="preserve">
<path fill="#F2EEE6" opacity="1.000000" stroke="none" 
	d="
M618.000000,1.000001 
	C662.020874,1.000000 706.041809,1.000000 750.212646,1.364581 
	C751.873352,2.152685 753.361389,2.802924 754.899048,2.957114 
	C759.472290,3.415687 764.116821,3.354823 768.640747,4.077706 
	C784.325378,6.583943 800.088867,8.787169 815.602661,12.126163 
	C837.636902,16.868534 859.610229,22.025715 881.348511,27.961502 
	C894.152100,31.457615 906.213501,37.740959 919.059082,40.990345 
	C927.841980,43.212032 935.709900,46.338772 943.158875,51.252384 
	C945.745972,52.958969 949.297058,55.046154 951.895020,54.503624 
	C957.006775,53.436104 959.641113,57.657387 963.757019,58.489536 
	C966.551270,59.054474 968.832214,61.790924 971.572144,63.061733 
	C979.732544,66.846748 988.068115,70.255157 996.216675,74.064430 
	C1003.167908,77.313942 1010.119568,80.625984 1016.779175,84.422256 
	C1029.234131,91.522003 1041.870239,98.413101 1053.719604,106.441032 
	C1072.875732,119.419250 1091.858398,132.726532 1110.159424,146.871536 
	C1126.187256,159.259628 1141.611084,172.519867 1156.513916,186.249863 
	C1174.842773,203.136322 1191.925293,221.279343 1206.970215,241.268845 
	C1221.711304,260.854553 1237.590820,279.637115 1251.457153,299.812347 
	C1264.838989,319.282410 1276.660889,339.865356 1288.493042,360.349457 
	C1303.534180,386.389191 1315.884399,413.785522 1326.037354,442.066498 
	C1333.390137,462.547791 1340.513550,483.208374 1345.970825,504.247711 
	C1352.165405,528.129333 1356.971558,552.419250 1361.266846,576.728516 
	C1364.162231,593.115234 1365.107910,609.845276 1367.033569,626.409180 
	C1367.103149,627.007568 1368.318604,627.472778 1369.000000,628.000000 
	C1369.000000,664.020874 1369.000000,700.041809 1368.633057,736.212463 
	C1367.510498,741.291992 1366.608032,746.204590 1366.030640,751.155151 
	C1364.914307,760.726074 1364.562744,770.423523 1362.851807,779.879944 
	C1359.257812,799.741821 1355.402710,819.576172 1350.899780,839.248962 
	C1344.511597,867.158142 1335.761475,894.401367 1325.384155,921.077881 
	C1315.118652,947.467285 1303.938477,973.487671 1289.920654,998.142334 
	C1279.892456,1015.780090 1270.041138,1033.595825 1258.744873,1050.414673 
	C1246.197876,1069.095459 1232.341309,1086.920898 1218.587769,1104.758301 
	C1210.110352,1115.752930 1201.101807,1126.388550 1191.704956,1136.609131 
	C1182.214600,1146.931396 1172.138428,1156.739746 1161.973511,1166.410156 
	C1151.358643,1176.508911 1140.701660,1186.624023 1129.398071,1195.923462 
	C1112.829102,1209.554688 1096.197388,1223.220947 1078.646606,1235.522705 
	C1045.478149,1258.771240 1010.482971,1279.015259 973.583069,1295.902466 
	C945.357605,1308.819946 916.517395,1320.066895 886.777527,1328.945801 
	C873.687012,1332.854126 860.569275,1336.765137 847.278320,1339.883789 
	C831.565552,1343.571045 815.689392,1346.604736 799.812378,1349.533325 
	C789.752747,1351.389038 779.582092,1352.696655 769.424072,1353.947754 
	C761.788696,1354.888306 754.090393,1355.311157 746.434143,1356.100830 
	C745.896484,1356.156128 745.475342,1357.340576 745.000000,1358.000000 
	C705.312439,1358.000000 665.624878,1358.000000 625.787231,1357.635376 
	C624.793396,1356.848633 623.980957,1356.147583 623.100830,1356.048828 
	C616.441284,1355.300537 609.736206,1354.898438 603.105957,1353.960083 
	C585.102295,1351.411865 566.915283,1349.624268 549.195068,1345.738159 
	C525.177307,1340.471069 501.252838,1334.404297 477.798065,1327.054077 
	C456.091858,1320.251953 434.593567,1312.342285 413.842743,1303.047119 
	C387.587341,1291.286255 361.576385,1278.695679 336.568970,1264.508179 
	C308.590424,1248.634888 281.790436,1230.621826 257.244263,1209.640869 
	C237.531647,1192.791504 218.149109,1175.549927 198.858002,1158.217529 
	C193.098038,1153.042358 188.090912,1147.019897 182.826874,1141.304688 
	C176.132950,1134.036865 169.158630,1126.985107 162.964859,1119.307983 
	C151.132019,1104.641357 139.558487,1089.753662 128.251755,1074.676880 
	C108.859764,1048.819092 91.540611,1021.560791 77.145393,992.650513 
	C65.761131,969.787231 55.053261,946.497864 45.660809,922.758423 
	C36.994762,900.854980 29.307659,878.408020 23.334286,855.637756 
	C16.912535,831.158325 12.654231,806.084717 8.109076,781.150513 
	C5.688717,767.872620 4.693145,754.336853 2.929421,740.933899 
	C2.791976,739.889404 1.666347,738.974915 1.000000,738.000000 
	C1.000000,699.645752 1.000000,661.291565 1.366928,622.787476 
	C2.154568,621.791992 2.836030,620.982056 2.957465,620.095398 
	C5.359731,602.555359 6.856140,584.842224 10.241738,567.497131 
	C15.523184,540.439209 21.699572,513.537109 28.261557,486.756439 
	C31.237759,474.610016 35.584984,462.732788 40.129807,451.052338 
	C47.752544,431.461517 55.604702,411.935242 64.181526,392.748871 
	C70.031998,379.661346 77.063530,367.079773 83.968369,354.492126 
	C90.159355,343.205811 96.360802,331.859833 103.515717,321.182190 
	C115.844757,302.782990 128.332886,284.431549 141.843704,266.899628 
	C155.235016,249.522812 169.321701,232.576859 184.276077,216.535110 
	C204.823563,194.493591 226.834641,173.899734 250.389908,154.977798 
	C272.031616,137.593048 294.443604,121.395676 317.853943,106.447845 
	C344.004303,89.750458 371.134644,74.950645 399.409180,62.318550 
	C420.181366,53.038261 441.195831,44.219120 462.478088,36.190525 
	C476.567596,30.875360 491.203522,26.863571 505.808197,23.095381 
	C524.371887,18.305719 543.102783,14.123938 561.858948,10.138212 
	C570.897400,8.217511 580.142578,7.219936 589.323853,6.034878 
	C598.387756,4.864971 607.493103,4.017038 616.564758,2.902357 
	C617.112854,2.835009 617.524719,1.659747 618.000000,1.000001 
M266.523132,206.079697 
	C258.334991,213.272858 249.837524,220.147995 242.034607,227.737228 
	C231.554794,237.930069 221.244095,248.347427 211.526855,259.261414 
	C198.048431,274.399811 184.752640,289.743073 172.158508,305.617340 
	C148.813309,335.042755 129.217911,366.966736 112.133812,400.365570 
	C103.831650,416.596039 96.273499,433.249176 89.201241,450.057129 
	C77.683769,477.429626 67.969048,505.507141 61.224983,534.437744 
	C56.098240,556.430481 51.716465,578.645569 48.203331,600.950745 
	C45.264400,619.610229 43.081085,638.505676 42.355129,657.365601 
	C41.544369,678.428833 42.477306,699.579285 43.191006,720.673523 
	C43.614235,733.182678 44.678707,745.704834 46.175343,758.134399 
	C48.136086,774.418274 49.720325,790.869141 53.419838,806.794434 
	C59.487869,832.915466 66.351692,858.912048 74.298721,884.520874 
	C84.589966,917.683716 98.320190,949.575867 115.610626,979.727356 
	C127.440842,1000.357117 140.133911,1020.515991 153.036804,1040.500854 
	C170.411346,1067.411621 191.107773,1091.789185 212.952805,1115.109009 
	C226.014435,1129.052368 239.793320,1142.399048 254.016006,1155.159790 
	C269.823303,1169.342285 286.176422,1182.967773 302.877625,1196.090454 
	C327.722473,1215.611694 354.348328,1232.604736 382.524750,1246.846680 
	C404.360352,1257.883789 426.586914,1268.373657 449.355774,1277.275024 
	C472.500641,1286.323486 496.314880,1293.850098 520.214478,1300.727905 
	C548.119263,1308.758179 576.689514,1314.005371 605.626465,1316.965576 
	C621.830933,1318.623535 638.011292,1321.230469 654.249634,1321.671143 
	C676.664490,1322.279297 699.139343,1321.643188 721.558594,1320.769653 
	C735.351562,1320.232300 749.127991,1318.572876 762.840332,1316.848511 
	C778.953308,1314.822510 795.208740,1313.152588 811.006775,1309.579224 
	C835.086182,1304.132690 859.042847,1297.896362 882.657776,1290.702515 
	C916.135437,1280.504150 948.084961,1266.423340 979.214722,1250.366699 
	C1013.049927,1232.914673 1045.497925,1213.324341 1075.011108,1189.252441 
	C1094.688354,1173.203247 1114.129639,1156.772949 1132.618530,1139.388184 
	C1147.074219,1125.795776 1160.219971,1110.752808 1173.359863,1095.836426 
	C1184.560669,1083.121338 1195.466675,1070.070190 1205.536255,1056.452637 
	C1222.619263,1033.350464 1238.239746,1009.266052 1252.003784,983.969360 
	C1267.594238,955.315857 1281.207031,925.803833 1291.906494,895.008911 
	C1302.129517,865.584473 1310.405518,835.644775 1316.194092,804.950684 
	C1321.228149,778.257568 1324.877686,751.422485 1326.689941,724.394775 
	C1327.828003,707.421143 1326.797852,690.308655 1326.939819,673.260132 
	C1327.131470,650.245728 1325.376099,627.390930 1321.930176,604.646851 
	C1319.816284,590.694885 1318.393921,576.610474 1315.642456,562.788330 
	C1309.174561,530.296814 1300.301025,498.430420 1288.870605,467.308868 
	C1278.541992,439.186829 1266.054077,412.058105 1251.887573,385.652527 
	C1239.747314,363.024017 1225.924072,341.521515 1211.198975,320.506866 
	C1191.542725,292.455048 1169.240601,266.649170 1145.370605,242.223938 
	C1132.185913,228.732391 1118.116943,216.048798 1103.855469,203.682571 
	C1091.068115,192.594482 1077.732544,182.090652 1064.175537,171.948364 
	C1039.008911,153.120468 1012.214111,136.781601 984.346680,122.292259 
	C959.290955,109.264839 933.684143,97.316666 906.779907,88.573555 
	C883.577148,81.033325 860.381104,73.206627 836.710632,67.442474 
	C810.127563,60.969051 783.112000,56.108547 755.708923,54.035370 
	C740.264648,52.866940 724.850525,50.459290 709.407166,50.317772 
	C686.533020,50.108158 663.609924,50.851139 640.774353,52.264446 
	C623.908142,53.308304 607.041870,55.432602 590.367554,58.222794 
	C569.066956,61.787121 547.748108,65.669464 526.827698,70.959518 
	C505.420624,76.372643 484.057709,82.532478 463.453369,90.402184 
	C438.231995,100.035332 413.339539,110.823891 389.183197,122.873711 
	C361.565155,136.650360 335.204529,152.879303 310.395172,171.350861 
	C295.631714,182.342834 281.471252,194.144699 266.523132,206.079697 
z"/>
<path fill="#000000" opacity="0.000000" stroke="none" 
	d="
M617.531372,1.000001 
	C617.524719,1.659747 617.112854,2.835009 616.564758,2.902357 
	C607.493103,4.017038 598.387756,4.864971 589.323853,6.034878 
	C580.142578,7.219936 570.897400,8.217511 561.858948,10.138212 
	C543.102783,14.123938 524.371887,18.305719 505.808197,23.095381 
	C491.203522,26.863571 476.567596,30.875360 462.478088,36.190525 
	C441.195831,44.219120 420.181366,53.038261 399.409180,62.318550 
	C371.134644,74.950645 344.004303,89.750458 317.853943,106.447845 
	C294.443604,121.395676 272.031616,137.593048 250.389908,154.977798 
	C226.834641,173.899734 204.823563,194.493591 184.276077,216.535110 
	C169.321701,232.576859 155.235016,249.522812 141.843704,266.899628 
	C128.332886,284.431549 115.844757,302.782990 103.515717,321.182190 
	C96.360802,331.859833 90.159355,343.205811 83.968369,354.492126 
	C77.063530,367.079773 70.031998,379.661346 64.181526,392.748871 
	C55.604702,411.935242 47.752544,431.461517 40.129807,451.052338 
	C35.584984,462.732788 31.237759,474.610016 28.261557,486.756439 
	C21.699572,513.537109 15.523184,540.439209 10.241738,567.497131 
	C6.856140,584.842224 5.359731,602.555359 2.957465,620.095398 
	C2.836030,620.982056 2.154568,621.791992 1.366928,622.318848 
	C1.000000,415.073151 1.000000,208.146286 1.000000,1.000000 
	C206.354172,1.000000 411.708435,1.000000 617.531372,1.000001 
z"/>
<path fill="#000000" opacity="0.000000" stroke="none" 
	d="
M1369.000000,627.531372 
	C1368.318604,627.472778 1367.103149,627.007568 1367.033569,626.409180 
	C1365.107910,609.845276 1364.162231,593.115234 1361.266846,576.728516 
	C1356.971558,552.419250 1352.165405,528.129333 1345.970825,504.247711 
	C1340.513550,483.208374 1333.390137,462.547791 1326.037354,442.066498 
	C1315.884399,413.785522 1303.534180,386.389191 1288.493042,360.349457 
	C1276.660889,339.865356 1264.838989,319.282410 1251.457153,299.812347 
	C1237.590820,279.637115 1221.711304,260.854553 1206.970215,241.268845 
	C1191.925293,221.279343 1174.842773,203.136322 1156.513916,186.249863 
	C1141.611084,172.519867 1126.187256,159.259628 1110.159424,146.871536 
	C1091.858398,132.726532 1072.875732,119.419250 1053.719604,106.441032 
	C1041.870239,98.413101 1029.234131,91.522003 1016.779175,84.422256 
	C1010.119568,80.625984 1003.167908,77.313942 996.216675,74.064430 
	C988.068115,70.255157 979.732544,66.846748 971.572144,63.061733 
	C968.832214,61.790924 966.551270,59.054474 963.757019,58.489536 
	C959.641113,57.657387 957.006775,53.436104 951.895020,54.503624 
	C949.297058,55.046154 945.745972,52.958969 943.158875,51.252384 
	C935.709900,46.338772 927.841980,43.212032 919.059082,40.990345 
	C906.213501,37.740959 894.152100,31.457615 881.348511,27.961502 
	C859.610229,22.025715 837.636902,16.868534 815.602661,12.126163 
	C800.088867,8.787169 784.325378,6.583943 768.640747,4.077706 
	C764.116821,3.354823 759.472290,3.415687 754.899048,2.957114 
	C753.361389,2.802924 751.873352,2.152685 750.681335,1.364581 
	C956.927612,1.000000 1162.855225,1.000000 1369.000000,1.000000 
	C1369.000000,209.687515 1369.000000,418.375092 1369.000000,627.531372 
z"/>
<path fill="#000000" opacity="0.000000" stroke="none" 
	d="
M745.468628,1358.000000 
	C745.475342,1357.340576 745.896484,1356.156128 746.434143,1356.100830 
	C754.090393,1355.311157 761.788696,1354.888306 769.424072,1353.947754 
	C779.582092,1352.696655 789.752747,1351.389038 799.812378,1349.533325 
	C815.689392,1346.604736 831.565552,1343.571045 847.278320,1339.883789 
	C860.569275,1336.765137 873.687012,1332.854126 886.777527,1328.945801 
	C916.517395,1320.066895 945.357605,1308.819946 973.583069,1295.902466 
	C1010.482971,1279.015259 1045.478149,1258.771240 1078.646606,1235.522705 
	C1096.197388,1223.220947 1112.829102,1209.554688 1129.398071,1195.923462 
	C1140.701660,1186.624023 1151.358643,1176.508911 1161.973511,1166.410156 
	C1172.138428,1156.739746 1182.214600,1146.931396 1191.704956,1136.609131 
	C1201.101807,1126.388550 1210.110352,1115.752930 1218.587769,1104.758301 
	C1232.341309,1086.920898 1246.197876,1069.095459 1258.744873,1050.414673 
	C1270.041138,1033.595825 1279.892456,1015.780090 1289.920654,998.142334 
	C1303.938477,973.487671 1315.118652,947.467285 1325.384155,921.077881 
	C1335.761475,894.401367 1344.511597,867.158142 1350.899780,839.248962 
	C1355.402710,819.576172 1359.257812,799.741821 1362.851807,779.879944 
	C1364.562744,770.423523 1364.914307,760.726074 1366.030640,751.155151 
	C1366.608032,746.204590 1367.510498,741.291992 1368.633057,736.681152 
	C1369.000000,943.927307 1369.000000,1150.854614 1369.000000,1358.000000 
	C1161.312500,1358.000000 953.624878,1358.000000 745.468628,1358.000000 
z"/>
<path fill="#000000" opacity="0.000000" stroke="none" 
	d="
M1.000000,738.468628 
	C1.666347,738.974915 2.791976,739.889404 2.929421,740.933899 
	C4.693145,754.336853 5.688717,767.872620 8.109076,781.150513 
	C12.654231,806.084717 16.912535,831.158325 23.334286,855.637756 
	C29.307659,878.408020 36.994762,900.854980 45.660809,922.758423 
	C55.053261,946.497864 65.761131,969.787231 77.145393,992.650513 
	C91.540611,1021.560791 108.859764,1048.819092 128.251755,1074.676880 
	C139.558487,1089.753662 151.132019,1104.641357 162.964859,1119.307983 
	C169.158630,1126.985107 176.132950,1134.036865 182.826874,1141.304688 
	C188.090912,1147.019897 193.098038,1153.042358 198.858002,1158.217529 
	C218.149109,1175.549927 237.531647,1192.791504 257.244263,1209.640869 
	C281.790436,1230.621826 308.590424,1248.634888 336.568970,1264.508179 
	C361.576385,1278.695679 387.587341,1291.286255 413.842743,1303.047119 
	C434.593567,1312.342285 456.091858,1320.251953 477.798065,1327.054077 
	C501.252838,1334.404297 525.177307,1340.471069 549.195068,1345.738159 
	C566.915283,1349.624268 585.102295,1351.411865 603.105957,1353.960083 
	C609.736206,1354.898438 616.441284,1355.300537 623.100830,1356.048828 
	C623.980957,1356.147583 624.793396,1356.848633 625.318604,1357.635376 
	C417.073120,1358.000000 209.146271,1358.000000 1.000000,1358.000000 
	C1.000000,1151.645874 1.000000,945.291565 1.000000,738.468628 
z"/>
<path fill="#3B9474" opacity="1.000000" stroke="none" 
	d="
M266.781433,205.831070 
	C281.471252,194.144699 295.631714,182.342834 310.395172,171.350861 
	C335.204529,152.879303 361.565155,136.650360 389.183197,122.873711 
	C413.339539,110.823891 438.231995,100.035332 463.453369,90.402184 
	C484.057709,82.532478 505.420624,76.372643 526.827698,70.959518 
	C547.748108,65.669464 569.066956,61.787121 590.367554,58.222794 
	C607.041870,55.432602 623.908142,53.308304 640.774353,52.264446 
	C663.609924,50.851139 686.533020,50.108158 709.407166,50.317772 
	C724.850525,50.459290 740.264648,52.866940 755.708923,54.035370 
	C783.112000,56.108547 810.127563,60.969051 836.710632,67.442474 
	C860.381104,73.206627 883.577148,81.033325 906.779907,88.573555 
	C933.684143,97.316666 959.290955,109.264839 984.346680,122.292259 
	C1012.214111,136.781601 1039.008911,153.120468 1064.175537,171.948364 
	C1077.732544,182.090652 1091.068115,192.594482 1103.855469,203.682571 
	C1118.116943,216.048798 1132.185913,228.732391 1145.370605,242.223938 
	C1169.240601,266.649170 1191.542725,292.455048 1211.198975,320.506866 
	C1225.924072,341.521515 1239.747314,363.024017 1251.887573,385.652527 
	C1266.054077,412.058105 1278.541992,439.186829 1288.870605,467.308868 
	C1300.301025,498.430420 1309.174561,530.296814 1315.642456,562.788330 
	C1318.393921,576.610474 1319.816284,590.694885 1321.930176,604.646851 
	C1325.376099,627.390930 1327.131470,650.245728 1326.939819,673.260132 
	C1326.797852,690.308655 1327.828003,707.421143 1326.689941,724.394775 
	C1324.877686,751.422485 1321.228149,778.257568 1316.194092,804.950684 
	C1310.405518,835.644775 1302.129517,865.584473 1291.906494,895.008911 
	C1281.207031,925.803833 1267.594238,955.315857 1252.003784,983.969360 
	C1238.239746,1009.266052 1222.619263,1033.350464 1205.536255,1056.452637 
	C1195.466675,1070.070190 1184.560669,1083.121338 1173.359863,1095.836426 
	C1160.219971,1110.752808 1147.074219,1125.795776 1132.618530,1139.388184 
	C1114.129639,1156.772949 1094.688354,1173.203247 1075.011108,1189.252441 
	C1045.497925,1213.324341 1013.049927,1232.914673 979.214722,1250.366699 
	C948.084961,1266.423340 916.135437,1280.504150 882.657776,1290.702515 
	C859.042847,1297.896362 835.086182,1304.132690 811.006775,1309.579224 
	C795.208740,1313.152588 778.953308,1314.822510 762.840332,1316.848511 
	C749.127991,1318.572876 735.351562,1320.232300 721.558594,1320.769653 
	C699.139343,1321.643188 676.664490,1322.279297 654.249634,1321.671143 
	C638.011292,1321.230469 621.830933,1318.623535 605.626465,1316.965576 
	C576.689514,1314.005371 548.119263,1308.758179 520.214478,1300.727905 
	C496.314880,1293.850098 472.500641,1286.323486 449.355774,1277.275024 
	C426.586914,1268.373657 404.360352,1257.883789 382.524750,1246.846680 
	C354.348328,1232.604736 327.722473,1215.611694 302.877625,1196.090454 
	C286.176422,1182.967773 269.823303,1169.342285 254.016006,1155.159790 
	C239.793320,1142.399048 226.014435,1129.052368 212.952805,1115.109009 
	C191.107773,1091.789185 170.411346,1067.411621 153.036804,1040.500854 
	C140.133911,1020.515991 127.440842,1000.357117 115.610626,979.727356 
	C98.320190,949.575867 84.589966,917.683716 74.298721,884.520874 
	C66.351692,858.912048 59.487869,832.915466 53.419838,806.794434 
	C49.720325,790.869141 48.136086,774.418274 46.175343,758.134399 
	C44.678707,745.704834 43.614235,733.182678 43.191006,720.673523 
	C42.477306,699.579285 41.544369,678.428833 42.355129,657.365601 
	C43.081085,638.505676 45.264400,619.610229 48.203331,600.950745 
	C51.716465,578.645569 56.098240,556.430481 61.224983,534.437744 
	C67.969048,505.507141 77.683769,477.429626 89.201241,450.057129 
	C96.273499,433.249176 103.831650,416.596039 112.133812,400.365570 
	C129.217911,366.966736 148.813309,335.042755 172.158508,305.617340 
	C184.752640,289.743073 198.048431,274.399811 211.526855,259.261414 
	C221.244095,248.347427 231.554794,237.930069 242.034607,227.737228 
	C249.837524,220.147995 258.334991,213.272858 266.781433,205.831070 
M953.423828,773.008972 
	C950.919434,771.448853 948.450623,769.828003 945.904846,768.338623 
	C930.739685,759.466919 915.059204,751.364319 900.518066,741.569031 
	C885.558472,731.491882 870.947571,720.612000 857.575867,708.541504 
	C843.755005,696.065613 831.237244,682.063965 818.862183,668.098206 
	C810.938049,659.155518 804.045715,649.250854 797.159058,639.448425 
	C788.575195,627.230103 780.686768,614.523315 772.105835,602.302795 
	C762.676453,588.874146 753.492554,575.173523 742.919495,562.676331 
	C732.960266,550.904846 719.631714,542.710571 705.853149,536.013855 
	C674.943542,520.991089 643.699402,506.655579 612.563660,492.099854 
	C587.265503,480.273163 561.910645,468.567993 536.610718,456.745209 
	C509.667419,444.154510 482.759155,431.488739 455.835571,418.855896 
	C435.315399,409.227661 414.773193,399.646118 394.280243,389.960266 
	C366.810455,376.976898 339.368500,363.934479 311.934448,350.875671 
	C295.140930,342.881836 278.387787,334.803162 261.600861,326.795380 
	C260.885651,326.454193 260.012878,326.443207 258.278961,326.085754 
	C264.965668,336.592651 270.824158,346.459290 277.324402,355.883270 
	C294.190277,380.335205 311.171295,404.712006 328.445404,428.876373 
	C336.944885,440.766144 345.987183,452.286621 355.154968,463.675446 
	C368.987579,480.859192 383.052429,497.858734 397.193451,514.790527 
	C408.605774,528.455017 420.148529,542.015686 431.872833,555.412842 
	C441.458313,566.365967 451.112823,577.285645 461.244720,587.727234 
	C477.200134,604.170288 493.456573,620.327637 509.824036,636.362488 
	C522.385803,648.668945 535.225952,660.696289 548.109680,672.667603 
	C558.163452,682.009399 568.165894,691.448242 578.744446,700.173218 
	C594.084167,712.825134 609.499817,725.462219 625.647461,737.039368 
	C650.047607,754.533142 675.157410,771.034424 699.851685,788.122070 
	C706.503174,792.724854 712.742920,797.922729 720.328735,803.733826 
	C715.544373,806.720825 712.415161,809.901733 708.755737,810.724670 
	C698.537415,813.022766 688.109680,814.409973 677.745850,816.036804 
	C660.736755,818.706787 643.749207,821.558044 626.684204,823.816101 
	C611.198059,825.865234 595.646912,827.551697 580.076538,828.801636 
	C562.782776,830.189941 545.443176,831.546204 528.108582,831.773254 
	C494.096405,832.218750 460.060516,832.521729 426.138214,828.948853 
	C411.397644,827.396240 396.555786,826.693115 381.868744,824.772278 
	C362.688721,822.263611 343.525513,819.413208 324.520630,815.831421 
	C299.591980,811.133179 274.624420,806.369751 250.049438,800.149536 
	C229.146408,794.858765 208.778549,787.455688 188.166138,781.012085 
	C185.591888,780.207397 182.970306,779.554199 180.370651,778.830750 
	C180.028152,779.304382 179.685669,779.778015 179.343185,780.251648 
	C196.815994,798.495300 214.288803,816.739014 231.967667,835.197876 
	C223.604050,845.518127 210.687881,849.541382 200.389343,857.596924 
	C205.953995,858.113647 211.139130,858.769165 216.344452,859.047852 
	C236.498108,860.126892 256.661407,861.026794 276.814484,862.115723 
	C286.206024,862.623230 295.577209,863.498352 304.966766,864.052185 
	C323.120422,865.122803 341.280701,866.080322 359.437866,867.091980 
	C365.379822,867.423096 371.328247,867.677612 377.260284,868.139709 
	C393.531128,869.407410 409.785980,870.891479 426.064819,872.039490 
	C434.819489,872.656982 443.614716,872.680542 452.381531,873.158203 
	C454.282990,873.261902 456.237823,873.945251 458.004272,874.730225 
	C478.397400,883.792603 498.336548,894.063477 519.212158,901.816467 
	C571.125549,921.096680 624.532837,935.065674 679.581116,941.921509 
	C699.519348,944.404663 719.616333,945.929565 739.688843,946.905334 
	C752.915710,947.548279 766.260498,946.896912 779.494385,945.983459 
	C796.727722,944.793945 813.923279,942.950562 831.098999,941.060242 
	C852.712463,938.681458 873.606873,932.886047 893.907471,925.462585 
	C917.380676,916.879028 939.883118,906.237549 959.177979,889.677185 
	C968.779236,881.436707 975.712463,871.534241 981.093262,860.341187 
	C986.449402,849.199219 987.850647,837.289307 987.034424,825.128784 
	C986.280212,813.892578 983.670654,803.181702 977.260986,793.578552 
	C971.325012,784.684998 962.556335,779.235229 953.423828,773.008972 
M894.818970,531.288696 
	C891.750122,536.727478 888.723572,542.190613 885.605042,547.600769 
	C872.317871,570.652222 858.975159,593.671814 845.783630,616.777771 
	C845.131042,617.920654 845.080505,620.235168 845.809998,621.212952 
	C854.454712,632.799683 862.283997,645.239319 872.358215,655.451721 
	C884.344971,667.602905 897.335510,679.305481 911.610779,688.545654 
	C941.857605,708.124146 973.220276,725.978760 1004.487427,744.757812 
	C1009.467773,723.480103 1014.127563,703.559998 1018.793274,683.641235 
	C1021.556580,671.844604 1024.246094,660.029968 1027.117310,648.259583 
	C1031.113770,631.876038 1035.035522,615.449585 1042.513672,600.186035 
	C1048.834961,587.283325 1056.936401,575.555359 1065.979248,564.402527 
	C1067.767334,562.197327 1069.001831,558.782532 1068.933350,555.963501 
	C1068.628174,543.406250 1067.899536,530.852966 1067.050415,518.316833 
	C1066.214966,505.983307 1065.462280,493.620331 1063.922974,481.364502 
	C1062.064697,466.567841 1059.628540,451.833282 1057.057373,437.139252 
	C1053.866943,418.907837 1050.975464,400.580658 1046.700073,382.593079 
	C1040.706543,357.376892 1033.556519,332.435577 1026.901123,307.376709 
	C1026.436768,307.245422 1025.972412,307.114105 1025.508179,306.982819 
	C982.008789,381.513184 938.509399,456.043549 894.818970,531.288696 
M1141.084229,666.530579 
	C1146.187622,662.094238 1151.160278,657.495850 1156.420288,653.253662 
	C1169.210205,642.938477 1181.876953,632.441956 1195.075073,622.669067 
	C1208.453857,612.762512 1222.411133,603.637085 1236.356201,594.002869 
	C1233.520508,594.002869 1230.707764,593.617432 1228.036255,594.068481 
	C1215.284790,596.221008 1202.554443,598.509338 1189.848999,600.919922 
	C1168.233765,605.020813 1147.684814,612.320557 1128.619507,623.227356 
	C1120.413696,627.921631 1112.478027,633.570068 1105.657471,640.081604 
	C1097.186279,648.168945 1091.684570,658.686523 1087.177612,669.494812 
	C1075.365112,697.822632 1067.202515,727.344299 1059.047363,756.858154 
	C1058.465576,758.963745 1058.360229,761.200989 1058.033325,763.376953 
	C1058.422363,763.520020 1058.811279,763.663147 1059.200317,763.806213 
	C1082.085571,727.953308 1110.221558,696.553467 1141.084229,666.530579 
z"/>
<path fill="#F2EEE6" opacity="1.000000" stroke="none" 
	d="
M953.731262,773.210571 
	C962.556335,779.235229 971.325012,784.684998 977.260986,793.578552 
	C983.670654,803.181702 986.280212,813.892578 987.034424,825.128784 
	C987.850647,837.289307 986.449402,849.199219 981.093262,860.341187 
	C975.712463,871.534241 968.779236,881.436707 959.177979,889.677185 
	C939.883118,906.237549 917.380676,916.879028 893.907471,925.462585 
	C873.606873,932.886047 852.712463,938.681458 831.098999,941.060242 
	C813.923279,942.950562 796.727722,944.793945 779.494385,945.983459 
	C766.260498,946.896912 752.915710,947.548279 739.688843,946.905334 
	C719.616333,945.929565 699.519348,944.404663 679.581116,941.921509 
	C624.532837,935.065674 571.125549,921.096680 519.212158,901.816467 
	C498.336548,894.063477 478.397400,883.792603 458.004272,874.730225 
	C456.237823,873.945251 454.282990,873.261902 452.381531,873.158203 
	C443.614716,872.680542 434.819489,872.656982 426.064819,872.039490 
	C409.785980,870.891479 393.531128,869.407410 377.260284,868.139709 
	C371.328247,867.677612 365.379822,867.423096 359.437866,867.091980 
	C341.280701,866.080322 323.120422,865.122803 304.966766,864.052185 
	C295.577209,863.498352 286.206024,862.623230 276.814484,862.115723 
	C256.661407,861.026794 236.498108,860.126892 216.344452,859.047852 
	C211.139130,858.769165 205.953995,858.113647 200.389343,857.596924 
	C210.687881,849.541382 223.604050,845.518127 231.967667,835.197876 
	C214.288803,816.739014 196.815994,798.495300 179.343185,780.251648 
	C179.685669,779.778015 180.028152,779.304382 180.370651,778.830750 
	C182.970306,779.554199 185.591888,780.207397 188.166138,781.012085 
	C208.778549,787.455688 229.146408,794.858765 250.049438,800.149536 
	C274.624420,806.369751 299.591980,811.133179 324.520630,815.831421 
	C343.525513,819.413208 362.688721,822.263611 381.868744,824.772278 
	C396.555786,826.693115 411.397644,827.396240 426.138214,828.948853 
	C460.060516,832.521729 494.096405,832.218750 528.108582,831.773254 
	C545.443176,831.546204 562.782776,830.189941 580.076538,828.801636 
	C595.646912,827.551697 611.198059,825.865234 626.684204,823.816101 
	C643.749207,821.558044 660.736755,818.706787 677.745850,816.036804 
	C688.109680,814.409973 698.537415,813.022766 708.755737,810.724670 
	C712.415161,809.901733 715.544373,806.720825 720.328735,803.733826 
	C712.742920,797.922729 706.503174,792.724854 699.851685,788.122070 
	C675.157410,771.034424 650.047607,754.533142 625.647461,737.039368 
	C609.499817,725.462219 594.084167,712.825134 578.744446,700.173218 
	C568.165894,691.448242 558.163452,682.009399 548.109680,672.667603 
	C535.225952,660.696289 522.385803,648.668945 509.824036,636.362488 
	C493.456573,620.327637 477.200134,604.170288 461.244720,587.727234 
	C451.112823,577.285645 441.458313,566.365967 431.872833,555.412842 
	C420.148529,542.015686 408.605774,528.455017 397.193451,514.790527 
	C383.052429,497.858734 368.987579,480.859192 355.154968,463.675446 
	C345.987183,452.286621 336.944885,440.766144 328.445404,428.876373 
	C311.171295,404.712006 294.190277,380.335205 277.324402,355.883270 
	C270.824158,346.459290 264.965668,336.592651 258.278961,326.085754 
	C260.012878,326.443207 260.885651,326.454193 261.600861,326.795380 
	C278.387787,334.803162 295.140930,342.881836 311.934448,350.875671 
	C339.368500,363.934479 366.810455,376.976898 394.280243,389.960266 
	C414.773193,399.646118 435.315399,409.227661 455.835571,418.855896 
	C482.759155,431.488739 509.667419,444.154510 536.610718,456.745209 
	C561.910645,468.567993 587.265503,480.273163 612.563660,492.099854 
	C643.699402,506.655579 674.943542,520.991089 705.853149,536.013855 
	C719.631714,542.710571 732.960266,550.904846 742.919495,562.676331 
	C753.492554,575.173523 762.676453,588.874146 772.105835,602.302795 
	C780.686768,614.523315 788.575195,627.230103 797.159058,639.448425 
	C804.045715,649.250854 810.938049,659.155518 818.862183,668.098206 
	C831.237244,682.063965 843.755005,696.065613 857.575867,708.541504 
	C870.947571,720.612000 885.558472,731.491882 900.518066,741.569031 
	C915.059204,751.364319 930.739685,759.466919 945.904846,768.338623 
	C948.450623,769.828003 950.919434,771.448853 953.731262,773.210571 
z"/>
<path fill="#F2EEE6" opacity="1.000000" stroke="none" 
	d="
M894.914551,530.931274 
	C938.509399,456.043549 982.008789,381.513184 1025.508179,306.982819 
	C1025.972412,307.114105 1026.436768,307.245422 1026.901123,307.376709 
	C1033.556519,332.435577 1040.706543,357.376892 1046.700073,382.593079 
	C1050.975464,400.580658 1053.866943,418.907837 1057.057373,437.139252 
	C1059.628540,451.833282 1062.064697,466.567841 1063.922974,481.364502 
	C1065.462280,493.620331 1066.214966,505.983307 1067.050415,518.316833 
	C1067.899536,530.852966 1068.628174,543.406250 1068.933350,555.963501 
	C1069.001831,558.782532 1067.767334,562.197327 1065.979248,564.402527 
	C1056.936401,575.555359 1048.834961,587.283325 1042.513672,600.186035 
	C1035.035522,615.449585 1031.113770,631.876038 1027.117310,648.259583 
	C1024.246094,660.029968 1021.556580,671.844604 1018.793274,683.641235 
	C1014.127563,703.559998 1009.467773,723.480103 1004.487427,744.757812 
	C973.220276,725.978760 941.857605,708.124146 911.610779,688.545654 
	C897.335510,679.305481 884.344971,667.602905 872.358215,655.451721 
	C862.283997,645.239319 854.454712,632.799683 845.809998,621.212952 
	C845.080505,620.235168 845.131042,617.920654 845.783630,616.777771 
	C858.975159,593.671814 872.317871,570.652222 885.605042,547.600769 
	C888.723572,542.190613 891.750122,536.727478 894.914551,530.931274 
z"/>
<path fill="#F2EEE6" opacity="1.000000" stroke="none" 
	d="
M1140.833252,666.785522 
	C1110.221558,696.553467 1082.085571,727.953308 1059.200317,763.806213 
	C1058.811279,763.663147 1058.422363,763.520020 1058.033325,763.376953 
	C1058.360229,761.200989 1058.465576,758.963745 1059.047363,756.858154 
	C1067.202515,727.344299 1075.365112,697.822632 1087.177612,669.494812 
	C1091.684570,658.686523 1097.186279,648.168945 1105.657471,640.081604 
	C1112.478027,633.570068 1120.413696,627.921631 1128.619507,623.227356 
	C1147.684814,612.320557 1168.233765,605.020813 1189.848999,600.919922 
	C1202.554443,598.509338 1215.284790,596.221008 1228.036255,594.068481 
	C1230.707764,593.617432 1233.520508,594.002869 1236.356201,594.002869 
	C1222.411133,603.637085 1208.453857,612.762512 1195.075073,622.669067 
	C1181.876953,632.441956 1169.210205,642.938477 1156.420288,653.253662 
	C1151.160278,657.495850 1146.187622,662.094238 1140.833252,666.785522 
z"/>
</svg>