<?xml version="1.0" standalone="no"?>
<!DOCTYPE svg PUBLIC "-//W3C//DTD SVG 20010904//EN"
 "http://www.w3.org/TR/2001/REC-SVG-20010904/DTD/svg10.dtd">
<svg version="1.0" xmlns="http://www.w3.org/2000/svg"
 width="1312.000000pt" height="1312.000000pt" viewBox="0 0 1312.000000 1312.000000"
 preserveAspectRatio="xMidYMid meet">
<metadata>
Created by potrace 1.14, written by Peter Selinger 2001-2017
</metadata>
<g transform="translate(0.000000,1312.000000) scale(0.100000,-0.100000)"
fill="#000000" stroke="none">
<path d="M12876 10795 c-8 -7 -13 -15 -9 -18 3 -4 1 -7 -5 -7 -6 0 -24 -13
-40 -30 -16 -16 -33 -26 -37 -22 -5 4 -5 2 -2 -4 4 -6 -5 -24 -18 -40 -14 -16
-25 -32 -25 -36 0 -4 -9 -9 -19 -13 -12 -4 -18 -12 -14 -21 3 -9 -1 -14 -11
-14 -9 0 -16 -6 -15 -12 3 -25 -1 -39 -10 -34 -4 3 -7 -6 -5 -19 1 -14 -1 -25
-5 -25 -4 0 -8 -7 -9 -15 -1 -8 -3 -22 -4 -30 -1 -8 -5 -15 -10 -15 -4 0 -8
-13 -8 -30 0 -20 -5 -30 -15 -30 -9 0 -12 -6 -9 -15 4 -8 1 -15 -7 -15 -7 0
-9 -3 -6 -7 12 -12 -37 -38 -73 -38 -42 0 -63 -12 -56 -31 3 -8 0 -14 -7 -14
-8 0 -8 -3 2 -9 8 -5 9 -11 3 -15 -7 -4 -7 -17 -2 -35 4 -15 4 -34 0 -42 -5
-7 -6 -18 -2 -24 11 -17 11 -35 1 -35 -6 0 -7 -6 -2 -12 10 -18 11 -91 0 -105
-6 -9 -5 -13 3 -13 7 0 10 -7 5 -17 -3 -10 -7 -22 -8 -28 -3 -15 -21 -33 -30
-28 -4 2 -10 -3 -13 -11 -3 -9 -10 -14 -14 -11 -4 3 -11 -2 -14 -11 -3 -8 -10
-12 -16 -9 -5 3 -10 -1 -10 -9 0 -8 -9 -18 -20 -21 -11 -4 -18 -11 -15 -16 4
-5 1 -9 -5 -9 -6 0 -8 -4 -5 -10 3 -5 1 -10 -5 -10 -6 0 -8 -5 -4 -11 13 -21
8 -111 -7 -120 -11 -7 -10 -9 6 -9 15 0 17 -2 6 -9 -20 -13 16 -45 54 -48 56
-5 64 -7 70 -21 7 -20 -3 -32 -26 -32 -11 0 -18 -4 -15 -9 7 -11 -13 -9 -33 3
-10 6 -12 5 -7 -2 4 -7 2 -12 -3 -12 -6 0 -11 4 -11 10 0 5 -7 6 -17 3 -12 -5
-14 -3 -8 7 5 9 4 11 -4 6 -6 -4 -19 1 -29 11 -9 11 -13 12 -8 3 5 -8 -2 -4
-15 10 -14 13 -26 31 -26 40 -1 8 -7 29 -14 45 -17 43 -20 55 -22 100 -1 22
-6 43 -11 47 -6 4 -10 71 -10 150 0 85 -5 146 -11 150 -6 5 -4 8 5 8 13 0 13
1 0 10 -13 8 -13 10 -1 10 11 0 10 4 -5 16 -10 8 -13 12 -5 8 10 -5 12 -3 5 7
-12 19 -12 32 -1 47 6 7 6 12 0 12 -5 0 -10 10 -10 23 -2 25 -12 86 -18 104
-2 7 0 15 6 18 5 4 6 11 2 17 -3 7 -7 28 -8 47 -3 50 -4 53 -14 46 -5 -3 -12
-1 -16 5 -4 6 -11 5 -19 -3 -8 -6 -12 -15 -9 -19 2 -5 -1 -8 -8 -8 -9 0 -9 -3
0 -14 7 -8 8 -17 3 -20 -5 -3 -7 -16 -5 -29 4 -22 2 -24 -40 -22 -25 0 -44 -2
-42 -5 4 -7 -22 -30 -29 -24 -3 2 -4 1 -2 -2 3 -3 -6 -26 -19 -50 -13 -24 -18
-42 -12 -38 7 3 3 -2 -8 -11 -11 -9 -19 -18 -17 -20 7 -14 1 -45 -8 -40 -7 4
-8 -3 -4 -21 4 -17 3 -25 -3 -21 -6 4 -13 -7 -17 -24 -8 -43 -27 -58 -78 -62
-10 -1 -18 -7 -18 -14 0 -7 -4 -13 -8 -13 -5 0 -9 -12 -9 -27 -1 -53 -3 -64
-13 -58 -5 3 -10 1 -10 -4 0 -6 4 -11 9 -11 5 0 12 -7 15 -16 3 -8 2 -13 -3
-10 -5 3 -12 -2 -16 -11 -3 -10 -1 -19 4 -21 6 -2 11 -8 11 -13 0 -6 -4 -8 -8
-5 -12 7 -8 -25 6 -50 6 -12 8 -24 5 -28 -3 -3 2 -6 13 -6 10 0 15 -4 9 -8 -5
-4 -10 -13 -11 -19 -2 -29 -4 -34 -13 -29 -14 9 -20 -16 -9 -37 5 -9 6 -23 2
-29 -4 -7 -3 -8 4 -4 8 5 12 0 12 -13 0 -11 5 -23 10 -26 7 -4 8 -11 1 -18 -9
-12 -11 -18 -11 -38 0 -8 -6 -7 -17 2 -11 10 -14 10 -9 2 10 -18 3 -16 -22 6
-12 10 -22 24 -22 31 0 7 -9 21 -21 31 -11 9 -20 20 -19 24 1 4 -7 18 -19 31
-11 13 -21 27 -21 32 1 13 -41 82 -50 82 -5 0 -10 10 -12 22 -2 12 -22 36 -45
54 -23 18 -39 34 -36 37 2 3 -3 4 -14 3 -10 -2 -21 1 -24 7 -4 5 -23 15 -42
22 -31 11 -39 10 -66 -7 -28 -18 -36 -29 -28 -43 1 -2 -8 -12 -21 -21 -13 -9
-21 -22 -18 -30 3 -8 0 -13 -7 -11 -7 1 -11 -8 -11 -20 1 -12 -4 -21 -10 -20
-6 1 -10 -6 -10 -15 1 -10 -2 -16 -6 -13 -13 8 -19 -22 -7 -35 9 -9 9 -11 1
-7 -9 5 -11 -10 -9 -51 1 -31 -2 -65 -7 -76 -8 -14 -7 -17 4 -10 11 6 11 5 -1
-9 -11 -14 -11 -17 0 -17 11 0 11 -2 -1 -10 -11 -7 -11 -10 -2 -10 7 0 10 -4
7 -10 -3 -5 -2 -10 3 -10 5 0 9 -6 10 -12 6 -60 11 -81 19 -87 6 -3 9 -16 8
-28 -1 -13 2 -23 7 -23 4 0 8 -7 8 -16 0 -8 5 -12 10 -9 6 3 10 -1 10 -10 0
-9 4 -13 10 -10 6 3 7 -1 4 -9 -6 -16 4 -20 36 -17 13 2 13 1 0 -8 -17 -12
-53 -14 -64 -4 -3 4 -17 8 -29 10 -12 2 -29 6 -37 10 -8 4 -22 8 -30 9 -59 11
-110 27 -110 34 0 5 -9 7 -20 5 -11 -2 -20 0 -20 4 0 5 -10 8 -22 7 -13 -1
-26 2 -29 7 -3 4 -16 9 -27 10 -12 1 -22 7 -22 14 0 6 -9 10 -19 8 -11 -2 -22
3 -25 11 -3 9 -10 12 -16 9 -5 -3 -10 -1 -10 4 0 6 -6 11 -13 11 -8 0 -24 9
-37 20 -13 11 -34 23 -47 26 -12 4 -21 9 -19 13 2 3 -14 6 -35 6 -25 0 -39 -4
-39 -12 0 -7 -4 -13 -8 -13 -5 0 -9 -6 -10 -12 -2 -22 -7 -43 -15 -55 -4 -6
-3 -13 2 -15 4 -1 5 -23 2 -48 -7 -49 14 -124 32 -113 6 4 8 0 4 -9 -3 -9 1
-25 8 -36 8 -10 11 -23 7 -27 -4 -5 -1 -5 6 -1 8 5 17 -2 25 -21 7 -15 19 -29
27 -31 8 -2 17 -7 20 -11 3 -4 56 -7 118 -7 62 1 120 -2 130 -6 10 -4 11 -7 4
-7 -7 -1 -11 -5 -8 -10 3 -4 -6 -13 -19 -19 -14 -7 -25 -16 -25 -22 0 -5 -6
-10 -13 -10 -8 0 -24 -11 -38 -26 -16 -17 -18 -23 -7 -19 13 5 15 2 12 -12 -5
-16 -16 -18 -90 -18 -46 0 -84 3 -84 6 0 3 -21 7 -46 8 -26 0 -51 4 -57 8 -20
12 -113 8 -157 -7 -25 -9 -56 -15 -70 -15 -14 0 -27 -3 -30 -7 -3 -4 -17 -10
-30 -12 -14 -2 -26 -5 -27 -7 -2 -1 -9 -2 -15 -3 -7 -1 -12 -8 -10 -15 1 -7
-2 -10 -7 -7 -5 4 -22 1 -38 -6 -15 -6 -32 -12 -38 -13 -5 0 -9 -6 -8 -13 2
-7 0 -11 -5 -11 -20 3 -32 -3 -32 -17 0 -9 -5 -12 -12 -8 -8 5 -9 2 -5 -9 5
-12 1 -17 -13 -17 -10 0 -21 -4 -25 -9 -3 -6 -14 -8 -25 -6 -12 2 -18 0 -15
-4 2 -5 -4 -11 -15 -14 -13 -3 -18 -1 -13 6 4 7 -1 6 -10 -2 -9 -7 -17 -10
-17 -7 0 4 -10 1 -22 -6 -13 -7 -29 -11 -37 -9 -7 1 -20 -1 -30 -5 -16 -7 -31
-12 -53 -17 -7 -1 -19 -6 -25 -10 -7 -5 -13 -5 -13 0 0 4 -4 2 -8 -5 -5 -7
-22 -15 -38 -18 -16 -3 -32 -10 -35 -16 -4 -6 -12 -7 -18 -4 -6 4 -14 0 -17
-8 -3 -9 -10 -14 -15 -11 -10 7 -31 -30 -21 -40 4 -3 0 -5 -8 -3 -9 2 -14 -4
-14 -14 1 -10 -2 -19 -7 -19 -19 -3 -25 -5 -49 -19 -25 -14 -31 -16 -51 -19
-5 0 -7 -7 -3 -13 4 -7 3 -10 -1 -5 -5 4 -19 0 -32 -8 -14 -10 -23 -11 -23 -5
0 7 -8 4 -17 -6 -10 -9 -32 -23 -50 -31 -18 -7 -33 -18 -33 -24 0 -5 -4 -8 -9
-4 -10 5 -27 -32 -23 -49 2 -5 -4 -6 -13 -3 -10 5 -15 0 -15 -13 0 -11 -5 -20
-11 -20 -5 0 -7 4 -4 10 3 5 -24 -6 -60 -25 -36 -18 -68 -34 -70 -34 -3 -1
-10 -1 -16 -1 -5 0 -7 -5 -3 -12 5 -7 0 -9 -14 -6 -13 4 -23 0 -26 -9 -3 -8
-10 -12 -15 -8 -5 3 -12 1 -16 -5 -3 -5 -14 -10 -23 -10 -9 0 -37 -21 -61 -46
-37 -39 -97 -74 -110 -65 -2 1 -7 -1 -10 -6 -3 -5 -19 -17 -34 -26 -16 -10
-27 -23 -24 -30 4 -12 -28 -47 -43 -47 -5 0 -10 -5 -10 -11 0 -5 -4 -7 -10 -4
-5 3 -10 1 -10 -4 0 -6 -9 -11 -20 -11 -11 0 -20 -4 -20 -8 0 -4 -9 -9 -20
-10 -43 -4 -50 -6 -50 -13 0 -4 -22 -15 -50 -25 -27 -10 -50 -22 -50 -28 0 -5
-3 -7 -6 -3 -4 3 -14 -1 -22 -10 -11 -10 -17 -12 -20 -4 -3 8 -8 7 -17 -2 -34
-30 -43 -35 -49 -30 -3 3 -12 1 -19 -5 -8 -7 -17 -9 -20 -5 -4 3 -7 1 -7 -6 0
-7 -4 -10 -9 -6 -5 3 -12 1 -16 -5 -4 -6 -11 -8 -16 -5 -5 4 -9 1 -9 -5 0 -6
-4 -9 -8 -6 -5 3 -18 -3 -29 -14 -12 -10 -24 -16 -28 -12 -4 4 -5 2 -3 -3 2
-6 -9 -24 -24 -40 -16 -16 -28 -25 -28 -20 0 6 -5 3 -10 -5 -5 -8 -10 -10 -10
-4 0 6 -11 10 -25 9 -26 -3 -34 10 -12 18 7 3 4 6 -6 6 -10 1 -15 6 -12 11 3
6 -1 13 -9 16 -9 3 -13 10 -10 15 3 5 -2 9 -10 9 -9 0 -15 3 -14 8 4 15 -14
52 -23 47 -5 -4 -9 1 -9 9 0 9 -5 16 -11 16 -5 0 -8 4 -5 9 3 5 -1 14 -9 21
-8 7 -15 19 -15 26 0 8 -4 14 -10 14 -5 0 -10 6 -10 13 0 7 -9 19 -19 27 -11
7 -18 17 -15 22 3 4 0 8 -6 8 -6 0 -8 5 -5 10 3 6 1 10 -6 10 -7 0 -9 3 -6 6
4 4 -3 15 -15 25 -11 11 -18 19 -14 19 4 0 -2 10 -14 22 -11 12 -20 28 -20 35
0 8 -4 11 -10 8 -6 -3 -7 1 -4 9 3 9 1 16 -6 16 -6 0 -9 4 -6 8 3 5 -4 15 -15
22 -10 8 -19 22 -19 32 0 10 -4 18 -10 18 -5 0 -10 8 -10 18 0 10 -9 24 -20
32 -11 8 -20 23 -20 33 0 11 -4 15 -12 11 -8 -5 -9 -2 -5 9 3 9 1 22 -6 29 -7
7 -14 22 -15 33 -2 11 -9 23 -15 27 -6 3 -12 14 -13 24 -2 9 -7 20 -11 23 -13
9 -55 71 -49 71 3 0 -8 14 -26 30 -17 17 -27 30 -22 30 6 0 10 9 10 19 0 11
-4 17 -8 15 -4 -3 -8 3 -8 13 0 10 -7 27 -15 37 -8 10 -12 23 -8 29 3 5 0 13
-6 17 -7 4 -14 13 -15 21 -7 35 -57 142 -68 147 -5 2 -8 10 -8 18 0 8 -4 14
-10 14 -5 0 -9 6 -7 13 1 6 -4 11 -11 9 -8 -1 -11 1 -8 6 7 12 -42 78 -55 74
-6 -1 -8 2 -4 8 3 5 -6 22 -22 37 -15 16 -27 32 -25 36 1 5 -2 6 -8 2 -5 -3
-10 -2 -10 3 0 5 -14 15 -30 22 -16 7 -30 17 -30 22 0 5 -4 6 -10 3 -5 -3 -10
-1 -10 5 0 6 -4 8 -10 5 -6 -3 -10 -3 -10 2 0 11 -58 36 -69 29 -5 -3 -12 1
-15 10 -3 8 -9 13 -14 10 -4 -2 -26 4 -49 14 -23 10 -44 16 -47 12 -3 -3 -6 0
-6 7 0 7 -7 11 -15 8 -8 -4 -17 -2 -20 3 -4 6 -20 10 -36 10 -17 0 -28 4 -25
8 3 5 -5 8 -17 7 -12 -1 -26 0 -32 3 -5 3 -23 7 -40 9 -16 2 -32 8 -33 13 -2
6 -8 7 -14 4 -6 -4 -14 0 -19 7 -7 12 -9 12 -9 0 0 -10 -3 -11 -14 -2 -8 6
-18 11 -22 10 -5 -1 -11 0 -14 1 -3 2 -19 3 -35 4 -17 1 -36 6 -43 10 -7 4
-16 4 -22 1 -5 -3 -10 0 -10 7 0 10 -2 10 -9 -1 -5 -8 -11 -9 -15 -3 -3 5 -17
8 -31 7 -14 -2 -25 0 -25 5 0 4 -10 7 -22 6 -13 -1 -26 2 -29 6 -3 4 -17 9
-32 10 -15 1 -27 5 -27 8 0 6 -15 8 -75 11 -19 1 -35 6 -35 11 0 5 -6 8 -12 7
-7 -1 -31 6 -53 16 -22 9 -41 16 -43 14 -2 -2 -8 4 -13 13 -5 9 -16 15 -23 12
-8 -3 -17 0 -21 5 -3 6 -11 9 -16 6 -5 -4 -9 -2 -9 3 0 9 -108 39 -122 34 -5
-1 -8 2 -8 7 0 5 -12 9 -27 9 -16 -1 -41 4 -56 10 -15 7 -41 13 -57 14 -17 1
-30 7 -30 13 0 5 -5 3 -10 -5 -5 -8 -10 -10 -10 -3 0 6 -11 10 -25 8 -14 -1
-25 2 -25 6 0 5 -5 9 -11 9 -5 0 -7 -5 -3 -11 3 -6 -5 -3 -20 6 -16 11 -26 13
-26 6 0 -8 -5 -9 -18 -2 -11 6 -39 11 -63 12 -24 1 -48 5 -54 8 -14 8 -80 11
-344 15 l-234 3 -27 -28 c-20 -23 -29 -26 -38 -17 -7 7 -12 9 -12 5 0 -3 -12
-2 -27 4 -16 6 -45 11 -66 10 -21 0 -36 3 -33 7 5 8 -14 10 -198 16 -70 3
-130 7 -133 10 -3 2 -16 1 -29 -4 -13 -5 -24 -6 -24 -2 0 4 -9 8 -20 9 -13 1
-18 -2 -13 -10 5 -9 2 -8 -9 0 -8 7 -17 10 -21 7 -3 -3 -79 -8 -169 -10 -188
-4 -238 -7 -238 -14 0 -3 -20 -6 -45 -6 -25 -1 -45 2 -45 7 0 4 -8 8 -17 8
-42 1 -78 7 -84 14 -3 4 -22 8 -42 9 -20 1 -37 4 -37 8 0 3 -12 6 -28 7 -71 3
-186 25 -194 37 -5 8 -8 8 -8 0 0 -11 -24 -11 -51 0 -9 4 -27 8 -41 10 -13 1
-29 6 -36 10 -7 4 -12 2 -12 -6 0 -8 -3 -9 -8 -3 -4 6 -25 12 -47 14 -22 1
-42 6 -45 10 -3 3 -18 7 -35 8 -60 5 -100 11 -118 18 -10 4 -20 5 -23 2 -3 -3
-20 -1 -37 4 -18 5 -48 12 -67 14 -19 2 -46 7 -60 10 -28 7 -75 13 -103 14
-11 1 -15 6 -11 12 4 8 0 8 -15 0 -14 -8 -21 -8 -21 -1 0 5 -10 10 -22 10 -13
0 -44 7 -70 15 -27 8 -48 11 -48 8 0 -3 -7 0 -15 7 -8 6 -18 9 -23 6 -8 -5
-24 0 -107 30 -11 4 -28 6 -37 5 -10 -1 -18 3 -18 9 0 6 -4 9 -8 6 -5 -3 -29
1 -54 9 -26 7 -49 11 -52 8 -3 -4 -6 -2 -6 4 0 6 -7 14 -16 17 -10 4 -13 2 -8
-7 6 -9 4 -9 -8 1 -9 7 -20 12 -24 11 -5 -1 -16 0 -24 4 -57 21 -113 35 -125
30 -8 -3 -15 0 -15 6 0 6 -13 11 -29 11 -16 0 -42 5 -58 11 -15 6 -37 13 -48
15 -11 2 -31 7 -45 10 -14 3 -35 6 -47 7 -13 1 -23 4 -23 8 0 3 -10 6 -23 5
-12 -1 -37 1 -54 5 -18 4 -33 4 -33 0 0 -4 -15 -5 -34 -3 -33 4 -64 -17 -38
-26 7 -2 12 -12 12 -23 0 -10 3 -18 8 -17 15 3 42 -15 35 -25 -3 -5 -1 -7 5
-3 6 3 18 -1 26 -10 18 -18 106 -66 106 -58 0 2 6 -1 14 -8 8 -7 11 -17 8 -22
-3 -5 0 -6 6 -2 6 3 22 -5 36 -19 14 -14 26 -24 26 -21 0 3 24 -7 52 -21 29
-15 58 -26 65 -26 7 0 13 -4 13 -9 0 -4 9 -8 20 -8 11 0 20 -6 20 -12 0 -10 2
-10 9 0 10 17 21 17 31 2 4 -6 18 -12 31 -14 13 -1 31 -5 39 -9 26 -10 100
-13 100 -3 0 5 3 6 7 3 3 -4 12 -2 19 4 7 5 35 11 62 12 28 1 48 5 45 10 -2 4
0 7 5 7 5 0 14 -11 20 -25 6 -14 8 -24 4 -23 -14 4 -72 -21 -72 -32 0 -6 -5
-8 -10 -5 -6 3 -10 1 -10 -5 0 -6 -6 -8 -12 -4 -7 4 -4 -2 6 -14 11 -12 26
-21 35 -20 9 2 15 -2 14 -8 -1 -7 11 -11 31 -10 19 1 32 -2 30 -6 -4 -7 26
-11 52 -7 4 0 10 -4 14 -11 4 -6 17 -12 28 -13 12 -1 22 -5 22 -9 0 -4 13 -8
28 -8 16 0 32 -3 35 -7 4 -3 21 -8 39 -10 18 -2 35 -8 39 -14 4 -8 8 -7 12 2
4 10 6 9 6 -3 1 -11 6 -15 16 -12 8 4 15 1 15 -4 0 -6 -9 -9 -20 -7 -11 2 -20
-1 -20 -8 0 -8 -3 -8 -12 1 -8 8 -15 9 -25 1 -8 -8 -13 -8 -13 -1 0 6 -25 10
-57 10 -32 0 -85 3 -118 8 -33 4 -93 8 -132 8 -40 0 -73 3 -73 6 0 3 -60 6
-133 7 -120 1 -232 8 -232 13 0 2 -22 4 -50 6 -61 5 -77 7 -92 17 -6 4 -14 3
-18 -3 -4 -6 -12 -7 -18 -3 -6 4 -30 8 -52 10 -22 2 -46 6 -52 8 -7 2 -13 0
-13 -6 0 -6 -6 -7 -13 -2 -14 9 -31 12 -74 16 -18 1 -33 5 -33 8 0 3 -14 4
-30 1 -21 -3 -30 0 -30 9 0 11 -2 11 -10 -1 -5 -8 -10 -10 -10 -5 0 6 -15 11
-32 12 -18 1 -53 4 -78 7 -25 3 -75 9 -113 12 -37 4 -67 9 -67 13 0 3 -18 7
-40 8 -23 2 -49 7 -60 13 -10 5 -30 10 -44 10 -14 0 -26 4 -26 8 0 5 -6 9 -12
9 -7 0 -22 4 -32 9 -15 6 -17 4 -11 -7 7 -12 6 -12 -7 -1 -15 12 -47 23 -75
24 -7 1 -13 4 -13 8 0 4 -6 7 -12 8 -7 0 -29 4 -48 7 -45 9 -199 16 -182 9 6
-3 12 -17 12 -30 0 -13 5 -24 12 -24 6 0 9 -3 6 -6 -7 -6 39 -54 52 -54 6 0
10 -5 10 -11 0 -5 13 -15 30 -20 16 -6 27 -15 24 -20 -4 -8 17 -14 39 -10 4 0
7 -3 7 -8 0 -5 13 -12 30 -16 16 -4 30 -10 30 -15 0 -4 13 -13 30 -20 16 -7
27 -16 24 -21 -3 -5 2 -6 10 -3 9 3 16 2 16 -4 0 -6 14 -13 30 -17 17 -4 30
-12 30 -18 0 -7 4 -6 10 3 8 12 10 12 10 1 0 -8 3 -11 6 -8 4 4 20 0 35 -8 16
-8 42 -22 58 -30 16 -8 36 -15 45 -15 9 0 16 -4 16 -10 0 -5 9 -10 19 -10 11
0 23 -4 26 -10 3 -5 13 -10 22 -10 9 0 25 -8 36 -17 15 -13 19 -14 13 -3 -4 8
0 6 8 -4 9 -11 16 -16 16 -12 0 5 7 3 15 -4 11 -9 31 -11 68 -6 28 4 57 8 64
8 7 1 10 5 7 10 -5 8 10 12 30 9 4 -1 14 3 20 8 7 6 27 12 45 13 18 1 35 6 38
11 3 5 9 3 14 -4 7 -12 9 -12 9 0 0 11 3 11 17 0 9 -8 14 -9 10 -3 -3 6 -1 11
6 11 7 0 13 -8 13 -17 0 -10 -7 -17 -15 -15 -9 1 -22 -4 -30 -12 -7 -8 -20
-12 -28 -9 -8 3 -12 2 -9 -2 5 -9 -23 -37 -43 -43 -8 -3 -7 -10 4 -24 9 -11
13 -14 10 -7 -6 11 -3 11 14 0 18 -11 23 -11 31 2 5 8 10 10 10 4 0 -7 9 -14
20 -17 11 -3 20 0 20 6 0 8 4 7 12 -1 13 -13 32 -17 24 -4 -2 4 13 7 35 6 21
0 39 4 39 9 0 5 7 4 15 -3 12 -10 15 -10 15 0 0 7 6 10 14 7 7 -3 19 0 25 6 6
6 11 7 11 3 0 -5 7 -3 15 4 8 7 15 9 15 5 0 -5 9 0 19 9 11 10 25 15 30 11 6
-3 11 -1 11 4 0 6 3 10 8 10 4 -1 9 0 12 1 3 1 23 4 45 6 l40 4 -27 -24 c-15
-12 -25 -26 -21 -30 3 -3 0 -6 -8 -6 -8 0 -22 -9 -32 -20 -9 -11 -12 -20 -7
-20 6 0 10 -7 10 -15 0 -8 3 -14 8 -13 4 1 26 -2 50 -6 23 -4 114 -8 202 -8
110 -1 160 -4 160 -12 0 -7 3 -7 8 -1 11 15 29 16 29 0 0 -13 -35 -25 -87 -30
-14 -1 -25 -3 -25 -5 0 -4 -65 -10 -140 -13 -39 -2 -75 -6 -80 -9 -6 -3 -27
-6 -47 -6 -21 0 -40 -1 -43 -2 -3 -2 -8 -3 -12 -4 -5 -1 -14 -5 -20 -9 -8 -5
-13 -3 -13 4 0 8 -4 8 -13 1 -8 -7 -18 -7 -27 -2 -8 5 -18 6 -22 4 -12 -8 -49
-16 -80 -17 -14 -1 -30 -5 -33 -9 -4 -4 -16 -3 -26 2 -10 6 -20 6 -23 2 -5 -8
-28 -12 -96 -14 -14 -1 -28 -6 -32 -12 -6 -8 -8 -8 -8 0 0 13 -88 13 -109 0
-9 -6 -12 -5 -7 2 4 7 -1 10 -14 9 -11 -1 -20 -6 -20 -12 0 -5 -4 -5 -8 2 -5
8 -39 13 -90 15 -45 2 -82 6 -82 10 0 3 -10 4 -22 0 -15 -4 -19 -2 -13 7 5 10
3 11 -11 4 -11 -5 -48 -8 -84 -7 -53 1 -68 -2 -84 -18 -11 -11 -26 -18 -37
-15 -11 3 -17 1 -13 -4 3 -5 0 -9 -5 -9 -6 0 -11 3 -11 8 0 4 -21 7 -47 6 -27
0 -54 4 -62 10 -12 9 -13 8 -6 -4 7 -12 6 -13 -6 -5 -17 13 -78 13 -98 1 -10
-6 -12 -5 -7 3 10 15 -25 11 -36 -4 -5 -7 -8 -6 -8 0 0 13 -187 13 -238 1 -27
-6 -31 -10 -21 -22 9 -11 9 -14 0 -14 -14 0 32 -48 50 -52 7 -2 21 -10 30 -18
10 -8 38 -21 63 -29 25 -7 46 -17 46 -22 0 -4 9 -6 20 -4 11 2 20 0 20 -6 0
-5 3 -8 8 -7 4 1 23 -4 42 -12 19 -7 40 -14 45 -15 6 -1 18 -5 27 -9 9 -4 22
-5 28 -1 5 3 10 3 10 -2 0 -4 17 -9 37 -11 20 -1 39 -6 43 -10 5 -7 21 -10 88
-15 12 -1 22 -6 22 -11 0 -4 9 -6 20 -3 11 3 18 1 14 -4 -3 -5 2 -9 10 -9 23
0 22 0 71 -14 28 -9 42 -10 38 -3 -4 6 -1 7 6 2 33 -19 303 -25 309 -6 2 6 9
8 15 4 20 -12 49 -14 42 -3 -8 13 17 8 27 -5 5 -7 8 -6 8 1 0 5 15 10 33 9 17
0 38 3 45 8 7 6 12 6 12 -1 0 -6 13 -7 34 -2 19 4 37 5 40 2 4 -3 6 0 6 6 0
11 4 12 77 14 26 1 40 5 36 11 -4 6 -1 7 8 1 20 -12 39 -14 39 -3 0 6 7 6 18
1 9 -5 24 -7 32 -5 12 4 13 3 1 -5 -8 -6 -10 -15 -6 -22 5 -8 4 -11 -2 -7 -6
4 -23 0 -39 -8 -15 -7 -31 -12 -36 -9 -4 3 -8 1 -8 -4 0 -5 -6 -9 -12 -10 -7
-1 -29 -3 -49 -5 -20 -2 -41 -7 -46 -10 -5 -3 -27 -7 -49 -8 -21 -1 -45 -7
-53 -13 -12 -9 -13 -8 -6 4 6 12 5 12 -5 3 -7 -6 -19 -9 -28 -6 -11 5 -13 3
-7 -8 8 -12 6 -12 -8 0 -9 7 -17 9 -17 4 0 -5 -21 -9 -47 -8 -27 0 -50 -3 -53
-6 -6 -8 -124 -23 -162 -20 -16 1 -28 -3 -28 -8 0 -4 -18 -8 -41 -7 -22 1 -42
-1 -44 -5 -3 -3 -43 -6 -90 -7 -50 0 -91 -5 -99 -11 -9 -8 -16 -8 -20 -2 -4 6
-17 7 -29 3 -28 -9 -59 -8 -75 1 -7 5 -12 3 -12 -3 0 -6 -4 -8 -10 -5 -5 3
-10 3 -10 -2 0 -4 -73 -9 -163 -9 -89 -1 -181 -5 -204 -8 -32 -5 -43 -4 -43 6
0 10 -2 11 -8 0 -5 -7 -26 -14 -48 -15 -21 -1 -44 -6 -51 -10 -6 -4 -14 -3
-17 2 -6 10 -44 4 -62 -10 -6 -5 -14 -7 -17 -4 -4 3 -5 2 -2 -2 3 -3 -2 -17
-10 -30 -9 -13 -11 -23 -5 -23 5 0 10 -5 10 -10 0 -14 47 -61 63 -64 41 -9 67
-19 67 -28 0 -5 4 -6 10 -3 5 3 20 0 32 -7 13 -7 26 -11 31 -10 4 1 7 -3 7 -9
0 -5 4 -8 9 -4 5 3 12 1 15 -4 4 -5 14 -8 23 -7 10 2 24 -3 31 -11 10 -9 19
-10 33 -3 10 6 19 7 19 3 0 -4 11 -9 25 -9 14 -1 37 -5 51 -8 14 -4 23 -3 20
2 -3 5 11 6 34 2 22 -4 43 -3 46 1 3 5 14 4 25 -1 10 -6 19 -7 19 -2 0 5 10 8
23 7 12 -1 25 3 29 9 5 7 8 6 8 -3 0 -10 3 -11 14 -2 12 10 13 8 9 -10 -4 -14
-2 -20 4 -16 6 4 13 1 16 -6 3 -9 22 -13 59 -12 29 1 53 3 53 5 0 1 20 4 45 6
25 2 70 6 100 9 30 3 73 7 95 9 22 2 58 10 79 20 22 9 41 14 44 11 3 -2 15 7
28 20 13 14 27 25 32 25 5 0 19 9 32 20 12 11 26 18 29 15 4 -2 13 5 21 15 8
10 18 17 22 14 5 -3 15 0 23 6 11 9 15 9 15 1 0 -6 7 -11 15 -11 13 0 14 -4 5
-21 -17 -30 -21 -61 -8 -53 7 5 9 1 5 -9 -5 -12 1 -19 18 -23 14 -3 25 -10 25
-15 0 -5 7 -5 17 -2 12 5 14 3 8 -8 -7 -11 -5 -11 10 1 15 12 17 12 10 1 -6
-11 -4 -13 8 -8 11 4 14 2 10 -8 -3 -8 -9 -12 -14 -9 -5 3 -9 1 -9 -4 0 -8
-11 -13 -48 -22 -4 -1 -13 -6 -19 -12 -7 -6 -20 -8 -28 -4 -9 3 -13 2 -10 -4
3 -6 -4 -10 -17 -10 -13 0 -29 -5 -36 -12 -7 -7 -12 -8 -12 -4 0 5 -8 2 -17
-5 -15 -12 -16 -12 -8 1 7 12 6 13 -6 3 -8 -6 -25 -13 -39 -15 -14 -1 -27 -6
-30 -10 -3 -4 -19 -9 -35 -12 -17 -2 -32 -5 -35 -7 -3 -1 -9 -3 -15 -4 -5 -2
-13 -4 -17 -5 -11 -4 -19 -6 -53 -14 -16 -4 -37 -10 -45 -13 -8 -3 -19 -7 -25
-9 -10 -3 -15 -4 -90 -24 -22 -6 -48 -13 -58 -15 -9 -3 -27 -8 -40 -11 -12 -3
-30 -7 -39 -7 -10 -1 -18 -5 -18 -10 0 -5 -6 -7 -14 -4 -8 3 -17 3 -21 -1 -4
-4 -11 -8 -16 -8 -5 -1 -10 -2 -11 -4 -2 -1 -12 -3 -23 -5 -25 -4 -52 -10 -98
-23 -20 -6 -38 -7 -41 -4 -3 3 -6 1 -6 -5 0 -6 -13 -10 -30 -9 -16 1 -31 -1
-32 -6 -2 -4 -12 -9 -23 -11 -11 -1 -24 -5 -30 -8 -5 -4 -18 -5 -27 -4 -10 2
-18 -1 -18 -6 0 -4 -7 -6 -15 -3 -8 4 -21 2 -28 -4 -11 -9 -59 -21 -94 -24 -7
-1 -13 -5 -13 -9 0 -5 -10 -7 -22 -7 -32 3 -108 -21 -125 -38 -17 -17 -9 -34
17 -34 10 0 22 -5 25 -10 3 -6 16 -8 28 -5 25 7 47 7 99 2 21 -2 38 1 38 6 0
5 6 5 13 -1 8 -7 18 -7 27 -2 9 6 20 4 29 -3 12 -9 13 -9 7 1 -8 13 3 16 28 6
9 -3 16 -13 16 -21 0 -8 5 -11 10 -8 6 3 10 2 10 -2 0 -5 12 -8 28 -8 15 1 33
-3 40 -8 8 -6 12 -5 12 3 0 10 3 10 14 1 8 -7 17 -8 20 -3 3 5 17 8 31 7 14
-2 25 1 25 6 0 5 7 9 15 9 8 0 15 5 15 11 0 5 4 8 9 4 6 -3 13 0 18 7 10 16
73 19 73 4 0 -6 5 -4 10 4 8 13 10 12 10 -2 0 -10 7 -18 16 -18 8 0 13 -3 10
-8 -2 -4 7 -12 20 -19 18 -8 22 -8 18 0 -5 8 -3 8 6 0 8 -7 20 -9 29 -4 9 4
42 7 73 6 31 0 54 3 51 8 -3 5 5 7 18 6 29 -3 69 9 69 21 0 5 7 7 15 4 8 -4
15 -2 15 3 0 6 18 9 41 9 22 -1 45 2 51 6 7 3 21 2 31 -4 12 -6 17 -6 13 0 -5
9 39 28 57 24 4 -1 6 3 5 10 -2 7 2 13 7 14 31 5 54 17 49 25 -3 5 2 9 10 9 9
0 25 9 35 19 11 11 22 17 25 13 3 -3 6 2 6 12 0 9 4 14 10 11 5 -3 28 11 51
32 23 21 45 37 50 35 5 -1 9 3 9 8 0 6 6 5 14 -2 9 -8 11 -19 6 -28 -5 -9 -4
-23 1 -33 8 -13 6 -15 -5 -11 -12 4 -14 0 -10 -18 3 -12 6 -28 6 -33 2 -17 26
-36 32 -26 4 5 15 7 26 4 11 -3 20 -1 20 4 0 5 8 10 18 11 9 0 40 5 67 10 45
7 51 6 51 -10 0 -13 -3 -14 -14 -6 -10 9 -12 8 -10 -3 2 -8 -2 -13 -9 -12 -7
2 -10 -4 -7 -12 4 -10 0 -13 -15 -10 -12 2 -21 -1 -21 -7 0 -5 -7 -8 -15 -4
-9 3 -15 0 -15 -10 0 -8 -4 -13 -9 -10 -14 9 -42 -5 -34 -17 3 -5 1 -7 -5 -3
-6 3 -13 2 -17 -4 -4 -6 -10 -8 -15 -5 -5 3 -15 -1 -23 -9 -8 -8 -17 -12 -21
-9 -3 4 -6 1 -6 -5 0 -7 -3 -11 -8 -10 -11 2 -46 -14 -54 -26 -5 -7 -8 -7 -8
2 0 7 -10 3 -22 -11 -13 -14 -26 -25 -31 -25 -23 -2 -96 -36 -91 -43 3 -5 -1
-6 -9 -3 -8 3 -22 -2 -31 -11 -9 -9 -20 -13 -26 -10 -5 3 -10 1 -10 -4 0 -6
-7 -11 -15 -11 -8 0 -15 -5 -15 -12 0 -6 -3 -8 -7 -5 -3 4 -17 -3 -30 -15 -13
-12 -23 -17 -23 -12 0 5 -4 4 -8 -1 -16 -23 -96 -74 -106 -68 -6 3 -8 3 -4 -1
9 -11 -14 -36 -26 -28 -5 3 -7 -2 -3 -11 3 -9 1 -19 -4 -23 -13 -8 24 -35 51
-37 11 -1 20 -4 20 -7 0 -7 47 -13 108 -14 23 -1 42 -5 42 -9 0 -5 4 -6 9 -3
5 4 29 8 53 11 23 3 57 7 73 10 17 3 39 7 50 9 11 2 30 4 42 5 12 0 28 8 36
16 8 8 17 12 20 9 3 -3 15 0 27 6 18 10 24 9 31 -1 7 -12 9 -12 9 0 0 8 7 11
20 8 11 -3 18 -1 15 3 -3 5 3 8 12 8 10 -1 43 4 73 12 30 7 57 12 58 11 2 -1
10 6 18 16 7 10 14 14 14 9 0 -5 7 -3 15 4 8 7 15 9 15 5 0 -4 6 -2 14 5 8 6
35 12 60 13 25 1 46 5 46 10 0 4 10 7 23 7 13 0 28 5 35 12 14 14 82 19 82 6
0 -5 5 -6 11 -2 7 4 10 1 7 -7 -3 -8 -9 -14 -14 -14 -5 0 -15 -4 -21 -8 -7 -5
-17 -6 -22 -2 -5 3 -17 -2 -25 -11 -12 -11 -16 -12 -16 -2 0 10 -2 10 -9 -1
-5 -8 -14 -10 -21 -6 -9 5 -11 4 -6 -3 5 -8 -1 -12 -18 -12 -14 0 -28 -5 -31
-10 -4 -6 -10 -8 -15 -5 -9 6 -40 -38 -40 -59 0 -8 -4 -16 -9 -18 -5 -1 -4
-11 4 -21 8 -12 28 -19 54 -20 23 -1 41 -4 41 -7 0 -3 25 -5 55 -6 30 0 55 3
55 6 0 4 23 6 50 6 28 -1 50 2 50 6 0 5 8 8 18 8 9 0 29 6 44 14 35 19 47 5
38 -45 -4 -22 -3 -39 2 -39 5 0 7 -3 5 -7 -12 -19 23 -30 83 -27 83 4 90 5 90
17 0 5 7 4 15 -3 9 -8 15 -9 15 -2 0 6 21 14 48 18 55 9 52 9 73 18 9 4 20 6
25 5 5 -1 11 0 14 1 15 5 47 11 63 11 9 0 17 4 17 8 0 4 7 8 15 9 8 1 22 3 30
4 8 1 15 5 15 10 0 4 9 8 20 8 11 0 20 5 20 11 0 5 4 7 10 4 5 -3 21 2 35 11
14 9 25 13 25 9 0 -4 6 -2 13 4 8 6 17 8 20 4 4 -3 7 -1 7 5 0 7 3 11 7 10 5
-1 22 5 38 12 17 7 35 14 40 15 29 6 55 18 55 26 0 5 3 8 8 7 4 -1 21 5 38 15
17 9 34 13 38 10 3 -4 6 0 6 7 0 7 3 10 7 7 3 -4 12 -2 20 4 10 9 13 8 13 -1
0 -10 4 -9 16 1 15 12 16 9 13 -28 -4 -34 -2 -40 9 -31 7 6 12 7 11 2 -4 -25
4 -31 39 -30 31 1 37 -2 37 -19 0 -11 5 -23 12 -28 7 -4 10 -14 7 -21 -3 -9 3
-17 15 -21 12 -3 21 -10 21 -15 0 -23 147 -11 162 13 6 9 8 8 8 -2 0 -9 4 -10
12 -4 15 11 58 11 75 0 6 -4 15 -3 18 3 5 8 11 8 20 0 8 -7 20 -8 26 -4 8 4 9
3 5 -4 -4 -7 -14 -12 -22 -12 -8 0 -14 -5 -14 -11 0 -5 -4 -8 -9 -5 -4 3 -16
-1 -27 -8 -10 -8 -25 -11 -34 -8 -8 3 -12 2 -8 -2 4 -5 3 -18 -2 -31 -7 -18
-3 -30 17 -54 14 -17 32 -31 40 -31 8 0 11 -4 8 -10 -3 -5 1 -10 10 -10 9 0
27 -7 40 -16 13 -9 28 -13 34 -10 5 3 11 1 13 -5 2 -6 37 -11 91 -11 49 0 84
-4 81 -9 -3 -5 0 -9 7 -9 7 0 5 -6 -6 -13 -23 -17 -30 -87 -8 -87 8 0 11 -4 8
-10 -3 -5 -1 -10 6 -10 7 0 10 -3 6 -6 -7 -8 17 -34 32 -34 5 0 12 -9 16 -19
6 -21 52 -44 81 -41 47 5 64 0 64 -20 0 -11 -4 -20 -10 -20 -5 0 -10 -9 -10
-20 0 -11 5 -20 11 -20 6 0 9 -9 6 -20 -4 -14 0 -20 11 -21 12 0 13 -2 4 -6
-10 -4 -8 -9 7 -20 12 -8 26 -11 33 -7 7 4 8 3 4 -4 -8 -13 40 -36 55 -26 5 3
9 1 9 -4 0 -5 8 -9 18 -9 39 0 43 -3 34 -20 -5 -10 -8 -28 -7 -40 1 -13 -3
-23 -8 -23 -6 0 -2 -10 9 -22 10 -12 13 -18 6 -14 -11 7 -11 4 -1 -12 7 -12
17 -18 21 -16 4 3 8 -1 8 -9 0 -13 56 -70 63 -65 2 2 11 -3 20 -10 9 -8 21
-11 27 -7 5 3 10 -1 10 -9 0 -8 9 -18 21 -21 15 -5 17 -10 9 -20 -8 -10 -8
-15 0 -20 8 -5 8 -10 0 -20 -8 -9 -8 -15 0 -20 6 -4 7 -12 0 -24 -7 -13 -4
-23 10 -38 10 -12 16 -24 13 -27 -4 -3 1 -6 10 -6 10 0 16 -3 16 -7 -3 -21 3
-33 17 -33 8 0 13 -4 10 -9 -3 -4 3 -16 14 -26 11 -10 20 -24 20 -32 0 -8 4
-12 9 -8 5 3 12 2 15 -3 4 -7 141 -9 141 -2 0 1 17 3 37 5 25 1 39 -2 42 -12
3 -8 11 -11 17 -7 8 4 9 3 5 -4 -11 -18 23 -75 41 -68 11 4 14 2 9 -9 -3 -8
-1 -15 5 -15 6 0 8 -4 5 -8 -3 -5 29 -8 70 -8 40 1 74 -2 74 -6 0 -3 8 -9 18
-11 14 -4 15 -5 1 -6 -9 0 -20 -12 -23 -26 -4 -14 -11 -25 -17 -25 -8 0 -7 -5
1 -15 9 -11 9 -15 1 -15 -8 0 -6 -8 4 -23 8 -13 12 -27 8 -30 -3 -4 -1 -7 5
-7 7 0 12 -7 12 -15 0 -8 7 -15 15 -15 9 0 12 -6 9 -15 -4 -8 -1 -15 5 -15 6
0 11 -9 11 -20 0 -11 8 -24 18 -27 9 -4 20 -11 25 -17 5 -7 10 -6 17 4 5 8 10
11 10 5 0 -5 16 -11 35 -11 19 -1 33 1 31 5 -2 3 20 6 49 6 30 1 51 -3 49 -7
-3 -4 -1 -8 5 -8 5 0 8 -11 5 -25 -2 -14 0 -25 6 -25 5 0 10 -7 10 -15 0 -8 6
-15 14 -15 7 0 27 -16 43 -35 17 -19 33 -31 38 -27 4 4 4 -3 1 -15 -6 -19 -3
-23 13 -23 12 0 21 -4 21 -9 0 -12 33 -9 42 4 5 6 8 5 8 -4 0 -9 4 -10 13 -4
18 14 81 17 73 4 -4 -6 0 -11 9 -11 9 0 14 -4 11 -9 -3 -5 1 -12 10 -15 8 -3
13 -10 10 -15 -3 -5 1 -12 10 -15 8 -3 12 -10 9 -16 -3 -5 1 -10 9 -10 9 0 16
-4 16 -10 0 -5 7 -10 15 -10 8 0 15 -5 15 -11 0 -5 4 -8 9 -5 5 3 16 -5 25
-19 9 -14 23 -25 32 -25 8 0 13 -4 10 -8 -6 -10 30 -43 38 -35 3 4 6 1 6 -5 0
-15 66 -16 75 -2 4 7 14 6 28 -2 12 -6 23 -11 25 -10 13 10 30 -2 27 -18 -4
-21 31 -53 48 -43 5 3 13 -1 18 -8 5 -8 9 -9 9 -4 0 15 50 17 51 2 1 -6 1 -32
1 -56 1 -59 36 -93 98 -96 8 0 20 -4 27 -8 6 -4 14 -3 18 3 4 6 12 7 24 0 12
-6 22 -5 29 2 9 9 12 9 12 -1 0 -7 4 -9 10 -6 44 27 83 9 85 -38 0 -20 -1 -34
-3 -32 -5 4 -25 -11 -50 -37 -9 -10 -24 -18 -33 -18 -10 0 -19 -3 -21 -7 -4
-10 -47 -35 -110 -64 -27 -13 -48 -27 -48 -31 0 -5 -4 -6 -10 -3 -5 3 -10 2
-10 -2 0 -5 -9 -14 -21 -21 -17 -11 -20 -11 -14 0 3 7 -3 2 -14 -11 -12 -13
-21 -20 -21 -16 0 5 -9 0 -20 -10 -11 -10 -17 -23 -13 -29 3 -6 3 -8 -2 -4 -4
4 -18 -4 -31 -17 -13 -14 -27 -25 -32 -25 -17 0 -72 -32 -72 -41 0 -6 -4 -8
-9 -4 -5 3 -13 1 -16 -5 -5 -8 -11 -7 -21 1 -11 9 -14 8 -14 -5 0 -9 -3 -15
-7 -14 -5 1 -25 -6 -47 -15 -21 -9 -43 -17 -48 -17 -5 0 -7 -4 -3 -9 3 -6 -4
-8 -15 -6 -11 2 -20 -1 -20 -6 0 -6 -4 -7 -10 -4 -5 3 -10 1 -10 -5 0 -6 -4
-8 -10 -5 -5 3 -10 1 -10 -5 0 -7 -8 -9 -21 -5 -13 5 -19 3 -15 -3 3 -5 -1
-12 -9 -16 -8 -3 -15 0 -15 7 0 8 -3 8 -8 1 -4 -5 -44 -25 -89 -44 -46 -18
-83 -37 -83 -41 0 -4 -11 -10 -25 -13 -14 -4 -23 -10 -20 -15 5 -9 -23 -26
-37 -23 -5 1 -8 -4 -8 -12 0 -9 -7 -13 -20 -11 -11 2 -20 0 -20 -6 0 -5 -3 -8
-7 -7 -15 3 -63 -14 -63 -22 0 -5 -8 -9 -17 -9 -15 0 -133 -32 -183 -49 -8 -3
-18 -6 -22 -7 -5 -2 -10 -4 -13 -5 -3 -1 -8 -3 -12 -4 -27 -7 -81 -41 -77 -48
3 -4 0 -8 -5 -8 -10 0 -36 -19 -67 -48 -9 -8 -14 -9 -14 -3 0 10 -34 -3 -50
-19 -7 -7 -31 -13 -52 -14 -10 0 -18 -3 -18 -7 0 -6 -35 -16 -90 -26 -13 -2
-30 -9 -37 -15 -8 -6 -16 -8 -19 -5 -3 3 -21 -1 -40 -9 -19 -8 -34 -11 -34 -8
0 4 -7 1 -15 -6 -9 -7 -18 -10 -22 -7 -3 4 -13 1 -21 -6 -13 -10 -14 -9 -7 3
8 13 7 13 -8 1 -9 -7 -17 -10 -17 -7 0 4 -9 2 -19 -4 -14 -7 -22 -7 -27 1 -5
9 -10 8 -18 -2 -12 -16 -13 -16 -82 -23 -27 -3 -67 -10 -89 -15 -71 -17 -100
-23 -117 -23 -10 1 -18 -4 -18 -10 0 -6 -2 -9 -6 -6 -4 5 -22 2 -94 -17 -8 -2
-15 -4 -15 -5 0 -1 -13 -3 -30 -5 -48 -5 -75 -16 -68 -29 5 -7 2 -7 -8 1 -9 7
-20 8 -29 3 -8 -5 -18 -6 -22 -4 -4 3 -8 1 -8 -5 0 -5 -9 -8 -20 -6 -11 2 -20
1 -20 -3 0 -4 -11 -9 -23 -10 -13 -1 -37 -8 -52 -16 -16 -8 -32 -13 -37 -10
-4 3 -8 0 -8 -5 0 -6 -6 -11 -13 -11 -18 0 -67 -42 -67 -58 0 -6 -7 -9 -15 -6
-9 4 -15 0 -15 -8 0 -8 -10 -25 -22 -38 -14 -15 -18 -25 -11 -27 8 -3 9 -12 3
-28 -11 -30 16 -64 68 -82 45 -16 45 -16 36 -1 -5 7 -3 8 7 2 8 -5 37 -10 64
-11 57 -3 75 -5 75 -9 0 -2 -13 -17 -30 -35 -16 -18 -26 -37 -23 -42 3 -6 1
-7 -5 -3 -6 3 -17 -3 -25 -14 -7 -11 -17 -17 -20 -13 -4 3 -7 -1 -7 -10 0 -8
-9 -19 -20 -22 -11 -4 -18 -11 -15 -16 4 -5 -1 -9 -10 -9 -9 0 -13 -5 -10 -10
3 -6 2 -10 -2 -10 -5 0 -10 -18 -11 -41 -2 -34 1 -42 17 -46 12 -3 18 -10 14
-17 -3 -6 -3 -8 2 -4 4 4 17 2 29 -4 11 -6 36 -13 55 -15 19 -2 41 -9 49 -15
11 -10 10 -15 -10 -30 -13 -9 -19 -18 -15 -18 5 0 1 -7 -7 -16 -9 -8 -14 -20
-11 -25 4 -5 2 -9 -4 -9 -5 0 -8 -8 -6 -17 2 -10 4 -28 4 -41 1 -13 5 -21 9
-18 4 2 9 -4 9 -15 1 -11 -3 -17 -8 -13 -10 6 10 -36 22 -46 4 -3 16 -24 28
-47 27 -55 60 -75 124 -79 78 -5 78 -5 66 -21 -6 -7 -16 -10 -23 -6 -6 3 -3
-3 7 -14 13 -15 15 -22 6 -25 -8 -3 -7 -9 5 -20 9 -9 16 -21 16 -27 0 -5 9
-13 20 -16 11 -3 20 -10 20 -15 0 -10 33 -20 95 -26 28 -3 56 -7 63 -9 6 -3
12 -1 12 3 0 4 19 8 43 9 42 1 70 6 109 19 16 5 19 3 13 -7 -5 -8 1 -6 12 3
11 10 26 18 35 18 8 0 18 3 22 7 4 5 11 9 14 9 29 6 52 18 52 27 0 6 7 2 16
-9 8 -10 12 -13 8 -5 -5 9 -3 12 4 7 7 -4 12 -14 12 -22 0 -8 6 -14 14 -14 7
0 19 -7 26 -15 7 -8 16 -12 21 -9 5 3 9 0 9 -5 0 -6 6 -11 14 -11 8 0 16 -5
18 -12 10 -30 181 -28 238 2 10 5 20 6 24 3 3 -3 6 -1 6 6 0 7 4 10 8 7 5 -3
18 2 28 12 31 27 64 43 74 37 6 -4 13 1 16 9 8 21 73 21 88 0 6 -8 27 -17 46
-21 19 -3 37 -8 40 -11 15 -20 128 -23 135 -4 4 12 8 12 22 1 12 -10 14 -10 9
-1 -6 11 11 17 37 13 4 0 7 3 7 9 0 6 3 9 8 8 14 -4 72 14 68 20 -2 4 10 8 27
9 17 1 34 7 37 14 4 6 10 10 14 10 20 -3 26 0 21 9 -3 6 -2 10 3 10 5 0 27 16
48 35 21 19 44 35 50 35 7 0 16 5 20 12 5 7 3 8 -6 3 -9 -5 -11 -4 -6 4 6 9
11 9 24 -1 10 -8 13 -9 9 -1 -5 7 4 14 23 18 19 4 28 11 24 18 -5 9 -4 9 6 0
10 -9 17 -9 33 0 15 9 21 9 24 0 3 -7 10 -13 17 -13 8 0 25 -12 40 -26 18 -19
36 -27 63 -27 22 0 37 4 36 10 -1 6 6 9 16 6 10 -3 22 0 25 6 4 5 13 8 21 5 8
-4 18 1 21 10 3 9 10 13 15 10 5 -3 16 2 25 10 9 9 20 13 26 10 6 -4 8 -3 5 3
-4 5 6 16 21 24 15 8 32 21 39 29 7 8 13 11 13 7 0 -5 13 6 28 23 16 17 39 32
52 35 13 2 26 8 29 13 3 4 16 7 29 6 12 -1 22 2 22 6 0 4 25 5 55 4 30 -1 55
1 55 5 0 4 15 7 33 8 63 2 104 10 136 26 17 9 29 11 26 6 -8 -12 2 -11 26 1
15 8 23 7 35 -5 14 -14 14 -17 -4 -40 -11 -13 -22 -21 -26 -18 -5 5 -7 -2 -6
-22 1 -3 -6 -13 -15 -21 -8 -9 -13 -20 -10 -25 4 -5 0 -6 -8 -3 -8 3 -21 -1
-29 -9 -8 -8 -23 -17 -33 -21 -11 -3 -32 -17 -46 -30 -15 -14 -30 -22 -35 -18
-4 4 -4 -2 0 -13 4 -11 4 -16 0 -12 -9 9 -35 -13 -28 -24 3 -5 0 -9 -6 -9 -6
0 -16 -12 -22 -27 -13 -33 -19 -195 -7 -187 5 3 12 -1 15 -10 3 -8 12 -17 21
-20 11 -5 14 -2 9 11 -6 15 -4 15 14 -2 11 -10 23 -15 27 -12 3 4 1 7 -5 7 -7
0 -12 5 -12 11 0 5 6 7 13 3 7 -5 6 -1 -3 10 -19 24 -21 43 -4 43 17 0 19 -17
2 -17 -7 0 -5 -5 5 -11 10 -6 21 -8 24 -5 4 3 1 6 -6 6 -7 0 -9 5 -6 10 8 13
-14 42 -26 34 -5 -3 -9 -3 -9 0 0 3 9 10 19 16 14 7 22 7 27 -2 5 -7 2 -8 -7
-3 -11 6 -12 5 -2 -5 18 -19 27 -6 13 20 -10 18 -8 24 6 35 15 11 22 10 40 -2
15 -9 21 -20 17 -30 -4 -11 -2 -14 5 -9 7 4 12 2 12 -5 0 -6 8 -9 20 -6 11 3
18 1 14 -4 -5 -9 11 -10 119 -11 26 0 47 -4 47 -10 0 -5 6 -6 13 -3 6 4 1 -3
-12 -15 -14 -12 -33 -19 -43 -17 -9 3 -16 0 -15 -5 1 -5 -5 -13 -13 -17 -8 -5
-25 -13 -38 -20 -13 -6 -27 -9 -32 -6 -5 3 -11 1 -15 -5 -3 -6 -17 -8 -30 -6
-22 4 -37 -10 -39 -39 -1 -5 -6 -10 -13 -10 -6 0 -15 -3 -19 -8 -4 -4 -2 -7 5
-7 7 0 10 -4 6 -9 -3 -5 2 -16 10 -24 8 -9 15 -19 15 -24 0 -5 9 -15 20 -23
11 -8 20 -20 20 -26 0 -6 8 -18 18 -25 15 -13 16 -12 3 4 -12 15 -12 17 3 11
9 -3 16 -12 16 -20 0 -8 6 -14 14 -14 8 0 18 -4 21 -10 4 -6 -1 -7 -11 -3 -12
4 -15 3 -10 -5 5 -8 2 -10 -8 -6 -9 3 -13 10 -10 15 3 5 -2 6 -12 2 -14 -5
-12 -8 10 -22 32 -19 33 -28 4 -26 -13 2 -22 6 -21 11 1 5 -14 9 -33 8 -19 -1
-32 2 -29 6 4 7 -31 23 -47 21 -4 0 -5 6 -2 14 4 9 -1 18 -11 21 -9 4 -14 13
-10 22 5 13 3 13 -12 1 -9 -8 -14 -9 -11 -4 3 6 0 15 -7 22 -9 8 -16 7 -28 -8
-12 -13 -13 -19 -4 -19 8 0 7 -4 -3 -10 -9 -6 -11 -10 -3 -10 7 0 10 -7 6 -17
-5 -13 -2 -15 11 -10 9 4 15 3 12 -2 -3 -4 6 -18 19 -29 14 -12 25 -26 25 -31
0 -5 9 -11 21 -14 13 -4 18 -10 14 -18 -5 -7 -3 -10 6 -7 8 3 25 -4 38 -16 13
-11 21 -15 16 -7 -5 9 1 7 19 -4 14 -10 26 -14 26 -10 0 4 7 2 15 -5 19 -16
197 -18 203 -2 2 6 10 8 18 5 8 -3 14 0 14 6 0 6 5 11 11 11 5 0 7 -6 4 -12
-4 -7 0 -5 8 5 8 9 24 17 36 17 14 0 20 4 15 11 -4 7 1 7 15 -1 14 -7 27 -8
34 -2 7 5 27 8 45 7 17 0 32 3 32 8 0 5 7 6 16 3 8 -3 12 -2 9 4 -3 6 2 10 12
10 10 0 25 9 33 19 7 11 17 18 21 16 4 -3 10 2 13 11 3 8 10 12 16 9 5 -3 10
-1 10 5 0 7 6 10 14 7 8 -3 16 -2 18 4 2 5 19 11 38 13 51 6 82 14 94 26 5 5
15 10 21 10 5 0 3 -5 -5 -10 -8 -5 -10 -10 -5 -10 6 1 19 7 29 15 14 11 23 12
33 4 10 -9 13 -8 13 2 0 11 2 11 10 -1 8 -13 10 -12 10 3 0 9 5 17 10 17 6 0
10 -5 10 -11 0 -5 5 -7 10 -4 6 4 8 11 5 16 -3 5 2 6 11 2 10 -4 15 -2 11 3
-3 6 4 11 15 11 36 3 60 37 62 86 0 25 4 43 8 41 4 -2 10 1 13 7 4 5 14 8 22
4 14 -5 14 -3 2 11 -17 20 -22 54 -8 54 5 0 7 -5 3 -12 -4 -7 -3 -8 5 -4 6 4
9 11 6 16 -3 5 3 15 15 22 11 7 20 17 20 22 0 5 -9 1 -19 -8 -15 -14 -21 -15
-27 -4 -4 7 -4 10 1 6 4 -4 18 4 31 17 24 26 45 35 25 12 -8 -11 -6 -18 12
-33 12 -10 16 -12 10 -4 -16 17 -17 30 -3 30 6 0 9 -6 8 -12 -2 -7 3 -12 10
-10 8 1 11 -2 8 -7 -4 -5 3 -16 14 -24 11 -7 17 -17 13 -20 -3 -4 -1 -7 5 -7
7 0 12 7 12 15 0 8 5 15 10 15 6 0 10 5 10 10 0 6 10 24 21 39 12 16 18 34 15
40 -4 6 -3 11 1 11 5 0 9 36 8 81 0 44 4 83 8 86 4 3 4 10 -1 16 -5 7 -8 38
-8 70 1 31 -2 57 -6 57 -5 0 -8 5 -8 11 0 5 6 7 13 4 6 -4 3 1 -7 9 -19 15
-19 16 -2 16 13 0 16 3 9 13 -6 6 -8 21 -6 32 2 11 4 30 4 42 0 12 4 25 11 29
6 4 8 3 5 -2 -3 -5 2 -10 12 -10 10 0 18 6 18 13 0 7 -5 9 -10 6 -6 -3 -7 -1
-3 5 10 16 39 15 31 0 -4 -7 2 -3 13 9 l19 22 12 -26 c9 -19 15 -22 25 -14 7
6 17 7 21 3 5 -4 5 -1 1 6 -4 6 -3 12 2 12 11 0 36 58 33 78 -1 7 5 15 13 18
8 3 12 12 9 20 -3 8 0 14 7 14 7 0 10 7 6 16 -3 8 -2 13 2 11 4 -3 16 7 26 21
12 16 14 23 5 18 -8 -4 -6 -1 4 7 9 8 17 19 17 25 0 5 7 13 16 16 9 4 14 13
10 21 -3 8 -2 14 2 14 20 -3 31 3 37 21 4 11 10 18 14 16 4 -3 15 3 24 12 24
26 51 47 59 47 4 0 16 7 26 15 10 8 24 16 31 18 7 1 20 9 28 17 18 18 27 19
17 3 -4 -7 1 -5 12 4 10 9 26 18 34 20 8 2 21 10 28 18 10 11 11 11 6 1 -7
-14 43 19 81 52 11 10 32 25 48 33 15 8 27 19 27 25 0 6 4 8 9 4 5 -3 12 4 16
15 4 11 11 17 17 14 7 -5 9 -1 5 9 -4 11 -1 17 8 17 8 0 19 8 24 18 6 9 11 13
11 8 0 -5 13 5 29 22 16 16 32 28 35 24 3 -3 6 2 6 12 0 9 4 15 9 12 5 -3 12
1 15 10 3 9 11 12 18 8 8 -5 9 -2 5 10 -4 11 -3 15 4 11 11 -7 89 71 89 88 0
6 3 8 6 5 9 -10 64 53 57 65 -3 6 -1 7 5 3 7 -4 12 -3 12 1 0 5 7 18 16 29 8
10 12 13 8 5 -5 -9 -3 -12 5 -7 6 4 9 11 6 16 -3 5 1 15 9 23 8 8 12 18 8 23
-4 5 2 2 12 -6 13 -10 17 -10 12 -2 -4 7 -1 12 8 12 9 0 15 3 15 8 -3 19 2 33
11 27 6 -3 13 1 16 9 3 9 10 14 14 11 4 -3 11 2 14 11 3 8 10 13 15 9 5 -3 13
0 16 6 4 5 13 8 21 5 8 -3 14 -1 14 5 0 6 6 9 14 6 8 -3 17 0 19 7 3 9 15 12
31 9 17 -4 26 -1 26 7 0 7 7 10 15 7 8 -4 17 -2 20 3 3 5 12 7 20 3 8 -3 15 0
15 5 0 6 9 9 20 7 11 -2 20 0 20 6 0 5 3 8 8 7 4 -1 23 4 42 11 19 8 44 15 54
18 11 2 25 8 33 14 7 6 13 9 13 5 0 -3 9 2 19 11 11 9 18 20 15 24 -2 4 7 6
21 5 13 -2 23 0 21 3 -6 9 21 31 28 24 3 -4 6 -1 6 5 0 7 7 12 17 12 9 0 14 3
11 6 -9 9 81 96 92 89 5 -3 10 -1 10 5 0 6 4 9 9 5 5 -3 16 1 24 9 8 8 17 12
21 9 3 -3 8 2 12 11 3 9 10 13 15 10 5 -3 12 2 15 10 3 9 13 16 21 16 8 0 11
5 8 10 -6 9 8 14 28 11 7 -1 11 15 8 32 0 4 11 7 27 7 15 0 22 4 16 8 -7 4 2
13 22 23 18 9 31 12 27 7 -3 -6 6 -2 21 7 14 10 26 15 26 12 0 -4 20 2 44 13
24 10 47 16 50 13 3 -4 6 -1 6 5 0 7 3 11 8 11 21 -4 32 2 26 13 -5 8 -2 9 9
5 10 -4 17 -1 17 5 0 6 3 9 6 5 3 -3 17 7 31 24 14 16 29 27 34 23 5 -3 9 0 9
5 0 6 8 11 18 11 10 0 22 3 26 7 4 5 22 9 39 11 18 1 44 3 59 5 14 1 24 5 22
9 -3 5 5 8 18 7 50 -1 123 13 130 24 6 9 8 8 8 -3 1 -12 3 -11 11 3 7 11 15
15 22 10 15 -11 38 -10 57 2 8 5 21 10 30 11 8 1 29 6 45 9 17 4 48 8 70 9 22
0 42 4 45 8 3 3 43 8 90 9 47 1 89 5 94 7 23 13 386 23 386 11 0 -3 18 -5 40
-5 22 1 40 -3 40 -7 0 -5 6 -4 13 2 8 6 16 8 19 5 3 -2 18 -7 34 -10 16 -3 44
-12 62 -20 18 -8 41 -16 52 -17 11 -1 22 -7 25 -15 3 -8 12 -11 20 -8 8 3 15
1 15 -5 0 -6 4 -8 9 -5 4 3 20 0 33 -6 23 -11 25 -17 23 -70 -2 -41 1 -58 11
-62 8 -3 14 -1 14 5 0 6 5 7 11 4 6 -4 22 4 36 16 15 13 23 18 18 10 -6 -10
-4 -12 4 -7 7 5 10 14 7 22 -3 8 1 17 9 20 8 4 15 14 15 25 0 10 8 24 18 31
10 7 18 21 19 31 1 33 3 38 11 34 4 -3 7 18 7 46 -1 29 4 55 10 59 6 5 5 8 -4
8 -11 0 -11 3 0 16 10 13 10 17 -2 25 -12 7 -12 9 1 9 11 0 12 2 3 8 -7 4 -11
18 -8 30 2 14 -1 22 -10 22 -8 0 -12 6 -9 14 3 7 -1 20 -9 27 -7 8 -14 17 -15
22 -5 19 -28 47 -40 47 -7 0 -11 4 -8 8 7 11 -39 52 -58 52 -8 0 -18 5 -22 12
-5 7 -3 8 6 3 9 -5 11 -4 6 3 -4 7 -14 12 -22 12 -8 0 -25 11 -38 25 -13 14
-26 25 -30 25 -12 0 -55 48 -49 54 4 3 -1 6 -10 6 -9 0 -17 6 -17 14 0 8 -8
21 -18 28 -10 7 -22 20 -27 28 -8 13 -7 13 11 0 18 -14 18 -14 2 6 -10 11 -18
26 -18 33 0 7 -4 10 -9 7 -5 -3 -12 1 -15 9 -3 8 -9 14 -13 13 -4 -2 -18 6
-30 17 -41 38 -119 83 -135 78 -4 -2 -8 3 -8 10 0 8 -4 7 -10 -3 -9 -13 -10
-13 -10 0 0 9 -10 16 -26 18 -14 1 -33 6 -43 12 -10 5 -21 6 -25 3 -3 -3 -6
-1 -6 6 0 7 -4 9 -10 6 -5 -3 -10 -1 -10 5 0 6 -4 9 -8 6 -5 -3 -21 1 -35 9
-15 8 -31 14 -35 15 -11 0 -76 22 -87 28 -5 3 -19 7 -30 9 -34 5 -60 10 -65
13 -3 2 -9 4 -15 5 -27 4 -55 17 -51 24 3 4 -8 6 -25 5 -16 -1 -32 2 -35 7 -3
5 -14 9 -25 9 -13 0 -18 4 -13 12 4 7 3 8 -5 4 -6 -4 -19 -2 -28 6 -9 7 -19
12 -22 11 -13 -5 -51 10 -51 19 0 6 -6 8 -14 5 -7 -3 -18 -1 -22 3 -5 5 -19
11 -31 13 -11 1 -29 9 -39 17 -10 9 -15 10 -10 3 4 -7 -6 -5 -23 5 -17 9 -31
20 -31 25 0 4 -9 7 -21 7 -11 0 -17 5 -14 10 3 6 -2 13 -12 17 -10 4 -20 9
-23 12 -10 12 -52 32 -46 23 8 -14 -145 65 -164 83 -12 13 -12 15 0 15 13 0
13 2 0 10 -10 6 -11 10 -2 10 6 0 12 5 12 11 0 5 -4 8 -9 5 -4 -3 -6 6 -3 19
3 17 0 25 -9 25 -11 0 -11 2 1 10 12 8 12 10 1 10 -8 0 -11 3 -8 7 4 3 -1 11
-10 18 -13 9 -13 14 -3 20 9 6 11 4 5 -5 -5 -9 -4 -11 4 -6 8 5 9 12 3 19 -5
7 -9 24 -8 40 1 15 -3 27 -9 27 -6 0 -9 24 -8 57 0 32 -4 64 -10 72 -9 11 -9
13 0 8 8 -5 11 0 10 13 -1 11 -5 20 -9 20 -5 0 -4 8 1 18 7 13 6 23 -1 30 -9
9 -9 12 1 12 11 0 11 3 1 15 -7 8 -8 15 -3 15 5 0 10 25 11 55 0 31 4 61 9 68
4 6 8 20 9 31 0 11 6 22 12 24 6 2 8 10 5 18 -3 8 0 14 7 14 6 0 9 4 5 9 -3 5
-1 12 4 16 6 3 7 13 4 22 -4 11 -3 14 5 9 7 -4 12 -1 12 7 0 7 14 30 31 50 17
20 30 39 29 42 -1 4 11 18 27 32 15 14 21 22 13 18 -8 -3 -6 1 5 10 11 9 19
23 17 31 -2 8 2 14 7 14 6 0 8 7 5 15 -4 9 0 15 9 15 10 0 14 9 12 30 -1 17 2
30 7 30 6 0 8 7 4 15 -3 8 -1 15 5 15 6 0 7 4 4 10 -3 6 -1 10 5 10 6 0 9 4 6
9 -4 5 -1 11 4 13 6 2 12 13 12 25 2 14 7 19 17 15 10 -4 13 -1 8 11 -3 9 3
27 14 40 10 14 19 28 19 31 0 10 64 71 72 69 4 -2 8 3 8 10 0 6 13 26 28 44
15 17 38 45 51 62 14 16 28 28 32 25 4 -2 10 3 13 12 3 8 10 12 16 9 5 -3 10
1 10 10 0 9 5 13 11 10 6 -4 13 2 16 13 3 14 10 19 21 15 11 -5 14 -2 10 8 -4
9 2 21 13 28 11 6 17 16 14 21 -3 6 -1 10 5 10 6 0 9 4 6 9 -3 5 1 11 9 15 8
3 15 12 15 20 0 8 5 18 12 22 7 5 8 3 3 -6 -5 -9 -4 -11 3 -6 7 4 12 13 12 21
0 7 7 16 16 19 8 3 12 10 9 16 -3 5 -2 10 4 10 13 0 70 58 63 65 -3 3 2 5 11
5 9 0 17 5 17 11 0 5 4 8 8 5 4 -2 18 11 31 30 13 19 27 34 32 34 5 0 9 7 9
15 0 8 5 15 11 15 5 0 7 5 4 10 -4 6 8 25 27 43 18 17 31 36 30 40 -1 4 3 7
10 6 7 -2 31 8 53 22 22 13 43 23 48 21 4 -1 7 6 7 15 0 14 2 15 9 4 6 -9 11
-10 15 -2 4 6 12 9 17 6 5 -4 9 -1 9 5 0 7 6 10 14 7 8 -3 17 0 19 7 3 8 18
16 33 20 24 6 81 55 94 81 3 6 8 9 12 8 4 -2 5 4 2 12 -4 10 0 15 11 15 9 0
14 4 11 9 -3 5 2 12 12 17 9 4 19 8 22 9 3 2 15 6 27 10 13 4 20 11 17 16 -3
5 -2 9 3 8 20 -3 43 2 55 14 12 11 24 15 53 20 5 1 16 9 23 17 12 13 12 13 6
0 -5 -8 4 -5 20 8 16 12 35 22 43 22 7 0 16 7 19 15 4 8 10 13 15 10 4 -3 13
4 19 15 6 11 15 18 20 15 5 -3 13 3 19 12 6 10 11 14 11 10 0 -4 6 -3 13 3 62
53 74 60 61 38 -4 -7 1 -6 12 3 17 15 42 23 99 34 11 2 21 4 23 5 1 2 5 3 10
4 4 1 25 10 47 20 22 10 47 20 55 21 30 5 45 10 59 23 7 7 20 11 27 8 8 -3 14
-1 14 5 0 6 5 7 10 4 6 -3 10 -2 10 4 0 5 16 15 35 22 19 7 35 17 35 21 0 4 9
8 20 8 11 0 20 4 20 9 0 10 26 21 45 20 5 0 12 9 17 20 4 12 15 21 23 21 10 0
13 5 9 12 -5 8 -2 9 10 5 9 -4 15 -3 12 2 -8 12 55 72 67 64 6 -3 7 -1 3 5 -4
7 -2 12 5 12 7 0 9 3 6 7 -4 3 1 12 11 20 9 8 11 12 5 8 -7 -3 -13 -1 -13 4 0
6 5 11 10 11 6 0 10 9 10 20 0 11 -4 20 -10 20 -5 0 -10 5 -10 11 0 5 5 7 12
3 7 -4 8 -3 4 4 -4 7 -14 12 -22 12 -8 0 -14 6 -14 13 0 7 -9 18 -20 25 -11 7
-20 17 -20 23 0 17 -24 36 -43 33 -9 -1 -15 2 -11 7 3 5 -1 9 -8 9 -8 0 -20 6
-26 13 -7 6 -16 12 -20 12 -34 2 -74 58 -48 69 8 3 7 5 -1 5 -7 1 -10 8 -6 18
4 9 2 14 -3 11 -5 -4 -7 13 -5 38 2 29 7 42 15 38 6 -3 3 1 -6 9 -19 15 -25
32 -8 22 6 -3 11 1 11 9 3 35 5 41 14 39 6 -1 10 26 9 60 -1 34 3 69 7 78 5 9
10 31 12 50 3 19 10 46 16 62 8 20 8 27 -2 27 -8 0 -7 4 3 10 13 8 13 10 1 10
-11 0 -10 4 5 16 10 8 12 12 4 8 -12 -6 -13 -4 -2 7 6 7 12 25 12 40 0 15 4
30 10 34 5 3 8 21 6 40 -1 19 1 32 5 29 10 -6 16 16 15 58 -1 20 2 34 6 32 5
-3 8 4 8 16 0 13 4 19 11 14 8 -5 8 -1 0 14 -8 15 -8 21 2 25 6 2 12 20 12 38
-1 19 4 37 10 41 5 4 10 29 10 55 0 29 4 47 11 46 6 -1 11 5 11 13 0 8 -4 14
-8 14 -4 0 -5 9 -2 20 3 11 9 17 14 15 4 -3 7 13 7 36 0 25 5 45 13 50 8 5 10
9 5 9 -5 0 -3 6 3 14 9 11 9 15 -1 19 -10 4 -10 6 0 6 11 1 11 3 0 14 -16 17
-40 17 -62 2z m-9744 -1310 c9 2 19 -3 22 -11 4 -11 1 -12 -13 -5 -12 7 -22 6
-29 -1 -9 -9 -15 -9 -24 1 -11 10 -9 11 7 5 18 -7 19 -6 5 12 -13 17 -13 18 0
8 8 -6 23 -10 32 -9z m55 -10 c0 -8 -4 -12 -9 -9 -5 3 -6 10 -3 15 9 13 12 11
12 -6z m2193 6 c0 -12 145 -9 152 3 5 8 8 8 8 0 0 -6 18 -11 43 -11 23 0 62
-6 87 -13 44 -13 59 -16 110 -24 14 -2 33 -7 43 -11 10 -4 21 -5 24 -1 3 3 11
2 17 -3 6 -6 23 -11 36 -13 14 -2 31 -7 39 -12 11 -7 12 -6 6 5 -8 12 -6 12 8
1 9 -8 21 -11 27 -7 5 3 10 1 10 -5 0 -6 5 -8 10 -5 6 3 10 1 10 -5 0 -6 5 -8
10 -5 6 4 24 0 40 -9 17 -8 27 -10 24 -4 -4 6 -3 8 3 5 25 -15 86 -37 111 -39
6 -1 12 -6 12 -11 0 -6 3 -8 6 -4 4 3 19 0 35 -9 16 -8 32 -14 36 -13 4 0 9
-4 11 -9 3 -11 -40 -11 -48 0 -8 11 -80 18 -80 8 0 -4 -9 -10 -21 -13 -12 -3
-18 -10 -15 -15 6 -11 -37 -9 -114 3 -25 4 -51 7 -57 8 -7 0 -13 5 -13 10 0 5
-9 7 -20 4 -11 -3 -20 -2 -20 2 0 9 -100 46 -122 45 -10 -1 -18 3 -18 7 0 5
-12 9 -26 9 -17 0 -23 4 -18 13 5 8 2 8 -9 -2 -9 -7 -17 -9 -17 -4 0 5 -8 9
-17 9 -10 1 -38 4 -63 8 -25 4 -53 8 -62 10 -10 1 -20 5 -24 8 -3 4 -12 4 -20
1 -8 -3 -14 -1 -14 4 0 5 -7 10 -15 10 -32 0 -125 27 -125 36 0 6 -3 7 -7 4
-7 -8 -33 11 -33 25 0 5 4 7 9 3 5 -3 12 -2 15 3 6 10 36 12 36 3z m-2119 -35
c-9 -11 -9 -15 1 -19 7 -3 -2 -4 -20 -2 -27 3 -33 1 -28 -12 5 -13 4 -14 -8
-4 -11 9 -15 9 -19 -1 -4 -9 -6 -8 -6 3 -1 18 25 33 40 23 5 -3 9 0 9 6 0 6 4
9 9 5 5 -3 12 -1 16 5 3 5 9 10 12 10 3 0 0 -6 -6 -14z m965 -5468 c4 -6 3 -8
-4 -4 -6 3 -13 -3 -17 -14 -4 -11 -11 -18 -16 -15 -5 4 -9 2 -9 -3 0 -6 -14
-9 -31 -8 -17 1 -38 -4 -45 -12 -8 -7 -14 -11 -14 -8 0 2 -13 1 -30 -4 -28 -8
-29 -7 -20 11 8 14 8 19 -1 17 -6 -2 -14 4 -17 12 -2 8 -1 12 3 8 5 -4 15 -2
23 5 13 10 14 9 7 -3 -8 -13 -6 -13 8 -1 9 7 24 11 32 7 8 -3 15 -1 15 4 0 5
9 7 20 5 11 -2 22 0 25 6 9 13 62 11 71 -3z m-208 -68 c-10 -15 -14 -16 -25
-4 -19 19 -29 18 -13 -1 9 -10 9 -15 1 -15 -6 0 -11 4 -11 9 0 5 -7 8 -16 7
-20 -3 -46 -35 -38 -47 3 -5 -3 -6 -12 -2 -12 4 -15 3 -10 -5 5 -8 2 -10 -8
-6 -9 3 -16 10 -16 15 0 5 0 12 0 17 0 11 24 9 33 -3 5 -6 7 -1 4 12 -4 16 -1
20 11 16 10 -4 13 -2 8 5 -4 7 1 10 15 7 15 -3 19 0 15 11 -5 12 -2 12 16 3
17 -9 20 -9 15 4 -9 23 4 29 24 11 14 -13 16 -20 7 -34z m-68 -30 c0 -5 -4
-10 -10 -10 -5 0 -10 5 -10 10 0 6 5 10 10 10 6 0 10 -4 10 -10z m4025 -520
c3 -6 -1 -7 -9 -4 -18 7 -21 14 -7 14 6 0 13 -4 16 -10z m-30 -80 c-3 -5 -12
-10 -18 -10 -7 0 -6 4 3 10 19 12 23 12 15 0z m-986 -124 c7 -5 8 -13 1 -25
-5 -10 -6 -22 -2 -27 4 -5 5 -8 3 -7 -5 3 -30 -29 -31 -40 0 -5 5 -5 12 -1 7
4 8 3 4 -4 -9 -14 -49 -9 -54 6 -2 7 -8 9 -13 6 -6 -3 -16 0 -24 6 -8 6 -19 9
-25 5 -5 -3 -10 -2 -10 3 0 5 -6 9 -12 10 -58 5 -59 5 -38 24 11 10 24 18 30
18 5 0 10 4 10 9 0 6 9 8 20 6 11 -2 20 0 20 5 0 17 84 21 109 6z m931 -350
c0 -2 -7 -7 -16 -10 -8 -3 -12 -2 -9 4 6 10 25 14 25 6z m-203 -211 c0 -8 -4
-12 -9 -9 -5 3 -6 10 -3 15 9 13 12 11 12 -6z"/>
<path d="M12400 9550 c-8 -5 -10 -10 -5 -10 6 0 17 5 25 10 8 5 11 10 5 10 -5
0 -17 -5 -25 -10z"/>
<path d="M10419 5043 c-13 -16 -12 -17 4 -4 16 13 21 21 13 21 -2 0 -10 -8
-17 -17z"/>
<path d="M6602 2848 c-7 -9 -6 -17 5 -27 13 -12 14 -11 8 9 -5 17 -4 21 5 15
9 -5 11 -4 6 3 -9 15 -11 15 -24 0z"/>
<path d="M7830 2757 c0 -19 16 -31 24 -18 3 5 -1 14 -9 21 -12 10 -15 10 -15
-3z"/>
<path d="M6596 2735 c-12 -9 -15 -15 -7 -15 11 0 11 -3 0 -17 -13 -16 -12 -17
4 -4 9 8 15 16 12 19 -3 3 0 11 6 19 15 17 9 16 -15 -2z"/>
<path d="M6659 2713 c-13 -16 -12 -17 4 -4 16 13 21 21 13 21 -2 0 -10 -8 -17
-17z"/>
<path d="M7790 2719 c0 -5 5 -7 10 -4 6 3 10 8 10 11 0 2 -4 4 -10 4 -5 0 -10
-5 -10 -11z"/>
</g>
</svg>
