<svg width="1000" height="1000" viewBox="0 0 1000 1000" fill="none" xmlns="http://www.w3.org/2000/svg">
    <path d="M257.55 689.014C257.55 689.014 186.299 685.629 132.677 731.266C138.154 729.861 159.549 735.372 159.549 735.372L99.1815 769.157L142.096 761.852L44 827.093L166.492 792.187L135.901 822.149L195.834 790.608L184.185 821.772C184.185 821.772 265.16 768.556 288.137 731.231" fill="#F953B2"/>
    <path d="M563.413 642.787L542.456 684.67C513.526 751.072 452.923 802.192 380.525 820.827C315.499 837.564 237.94 852.087 177.942 833.763C258.431 798.589 392.509 718.469 392.509 718.469" fill="#6966ED"/>
    <path d="M486.68 499.983L440.187 494.343C368.848 481.82 292.771 504.142 237.274 554.229C187.427 599.217 132.51 655.877 114.677 716.023C188.432 668.317 329.244 600.729 329.244 600.729" fill="#6966ED"/>
    <path d="M861.366 496.16L956 339.821L773.398 332.449C714.368 330.065 656.251 347.609 608.399 382.257L274.934 623.708C265.725 630.377 262.868 642.829 268.25 652.846L251.402 661.899C241.481 667.229 237.761 679.592 243.091 689.513L270.923 741.31C276.254 751.231 288.617 754.952 298.537 749.621L315.386 740.568C320.768 750.584 332.729 755.075 343.373 751.075L728.764 606.262C784.068 585.482 830.773 546.701 861.366 496.16Z" fill="#F4D13B"/>
    <path d="M460.556 576.021L144.979 772.416L485.223 622.77C499.37 616.548 505.21 599.588 497.895 585.975C490.656 572.501 473.542 567.939 460.556 576.021V576.021Z" fill="#6966ED"/>
    <circle cx="705.365" cy="474.495" r="57.6955" fill="white"/>
    <path d="M363.751 217.118C363.396 218.701 363.379 220.356 364.348 221.737C365.221 222.982 366.5 223.767 367.903 224.294C370.643 225.322 373.604 225.043 376.437 225.569C377.375 225.744 378.976 225.992 379.405 227.017C379.757 227.859 378.613 228.474 378.024 228.883C375.773 230.446 373.147 231.392 370.408 231.557C369.474 231.614 368.675 232.313 368.675 233.29C368.675 234.184 369.469 235.079 370.408 235.022C372.917 234.871 375.32 234.253 377.582 233.155C378.655 232.635 379.653 231.994 380.596 231.266C381.611 230.482 382.579 229.551 382.862 228.244C383.467 225.457 381.194 223.348 378.766 222.571C376.425 221.822 373.921 221.924 371.508 221.607C370.313 221.45 369.061 221.18 368.026 220.537C367.034 219.921 366.842 219.154 367.093 218.039C367.58 215.867 364.24 214.939 363.751 217.118V217.118Z" fill="var(--svg-fill-color)"/>
    <path d="M622.537 200.062C631.149 191.43 639.899 182.916 648.381 174.157C651.224 171.221 652.697 167.309 651.607 163.233C650.078 157.512 643.977 153.962 638.248 155.494C633.889 156.659 630.503 161.168 627.44 164.238C616.513 175.192 605.585 186.145 594.658 197.098C591.113 200.652 587.901 204.058 584.806 208.049C576.62 218.605 570.557 230.494 562.663 241.234C538.918 273.537 502.726 293.965 463.824 301.956C447.138 305.383 429.962 306.612 412.961 305.505C399.766 304.647 386.268 302.464 373.969 297.432C369.839 295.743 365.484 293.513 362.18 290.766C359.449 288.496 357.574 286.234 356.814 283.294C355.84 279.529 356.709 272.864 360.474 269.603C364.017 266.533 369.032 265.586 373.339 264.079C378.471 262.284 383.357 259.794 386.418 255.114C390.815 248.39 390.342 239.542 389.239 231.956C386.092 210.312 370.272 182.822 344.628 188.443C332.307 191.144 321.121 199.766 313.442 209.53C304.614 220.755 300.768 234.759 298.791 248.683C296.825 262.532 294.556 277.329 296.492 291.279C297.105 295.701 298.198 305.564 304.459 305.423C309.924 305.299 311.835 298.14 308.888 294.341C305.363 289.796 298.188 289.339 292.912 288.821C286.735 288.214 280.519 288.448 274.373 289.27C261.368 291.01 248.878 295.407 237.126 301.157C213.742 312.597 192.412 329.539 175.472 349.273C156.841 370.976 143.287 396.937 135.944 424.574C132.297 438.301 130.177 452.468 129.706 466.666C129.484 473.372 129.26 480.077 129.034 486.782C128.688 497.002 128.229 507.217 127.811 517.434C127.32 529.427 126.275 541.539 126.332 553.544C126.358 558.925 129.95 563.671 135.362 564.622C140.966 565.607 145.836 562.15 147.695 556.993H142.683C144.879 565.662 156.121 568.675 161.875 561.443C164.685 557.911 164.245 553.646 164.241 549.44C164.234 539.904 164.227 530.369 164.219 520.833C162.517 521.063 160.816 521.293 159.114 521.524C160.763 533.338 161.831 545.391 164.079 557.104C165.056 562.194 169.543 566.061 174.777 566.07C180.638 566.079 185.508 561.186 185.679 555.361C185.741 553.243 185.176 550.991 184.843 548.908C184.242 545.161 183.641 541.414 183.041 537.668C181.963 530.943 180.884 524.219 179.806 517.495C178.136 517.955 176.465 518.416 174.794 518.876C177.919 526.582 181.044 534.287 184.17 541.992C185.609 545.54 187.017 549.103 188.488 552.638C190.716 557.997 196.001 561.447 201.897 559.77C208.104 558.003 211.186 551.219 209.033 545.302C208.203 543.021 207.202 540.788 206.29 538.539C202.349 528.823 198.409 519.107 194.468 509.392C191.549 502.193 188.629 494.993 185.709 487.794C184.643 488.86 183.577 489.926 182.512 490.991C187.635 492.501 192.757 494.011 197.88 495.52C200.434 496.273 202.878 496.981 205.593 496.657C210.268 496.1 214.321 493.032 216.151 488.7C217.999 484.322 217.319 479.2 214.38 475.464C212.655 473.272 210.387 472.04 208.021 470.713C205.129 469.09 202.236 467.468 199.344 465.845C198.156 465.178 196.967 464.512 195.778 463.845C194.525 463.142 194.56 462.662 195.336 464.055C195.69 464.689 195.347 464.783 195.634 463.814C195.885 462.968 196.203 462.153 196.557 461.345C197.695 458.745 199.084 456.243 200.473 453.771C203.945 447.59 207.71 441.571 211.54 435.607C214.687 430.707 217.885 425.836 221.195 421.045C221.643 420.396 222.098 419.753 222.551 419.108C222.703 418.892 222.859 418.68 223.017 418.469C223.129 418.319 223.334 418.063 222.811 418.735C223.359 418.032 223.942 417.354 224.514 416.671C228.419 412.018 232.593 407.589 237.058 403.469C247.391 393.933 259.648 385.794 272.996 381.163C279.517 378.901 285.75 378.134 292.589 378.893C298.869 379.59 303.917 378.895 309.027 374.928C310.158 374.051 309.896 372.17 309.027 371.253C306.492 368.577 302.542 368.465 299.448 370.289C295.755 372.466 294.614 376.844 294.772 380.881C294.976 386.056 296.219 391.333 297.246 396.394C298.279 401.478 299.482 406.528 300.861 411.53C306.407 431.647 314.837 450.943 325.682 468.765C336.179 486.011 348.496 502.796 362.742 517.14C377.218 531.716 394.08 542.338 413.472 549.101C433.091 555.943 453.696 559.455 474.15 562.748C491.738 565.58 510.173 566.55 527.186 572.105C545.896 578.215 558.922 592.054 568.64 608.754C579.321 627.109 585.404 648.377 585.83 669.625C586.261 691.171 581.288 712.9 575.073 733.404C572.613 741.521 570.084 750.518 572.046 759.015C573.83 766.735 579.917 771.594 586.621 775.123C593.984 779 601.951 781.545 609.753 784.36C617.265 787.069 624.693 789.82 632.415 791.902C649.125 796.406 668.574 800.183 685.607 795.227C693.618 792.896 701.072 787.71 704.212 779.718C707.811 770.556 703.073 762.383 697.536 755.272C691.248 747.196 686.448 738.949 684.668 728.729C682.981 719.036 683.979 709 685.754 699.397C689.307 680.173 696.084 661.538 696.738 641.847C697.416 621.417 695.357 600.768 689.976 581.023C684.611 561.336 675.826 542.536 663.345 526.344C651.49 510.963 636.531 498.165 619.848 488.272C602.658 478.078 583.659 470.836 564.148 466.584C542.493 461.865 520.255 460.554 498.623 455.718C487.718 453.281 477.056 449.898 466.994 445.003C463.999 443.546 461.36 448.027 464.371 449.491C502.721 468.15 546.96 464.22 586.699 478.455C622.976 491.45 654.62 515.986 672.594 550.473C681.805 568.147 687.405 587.663 689.96 607.395C692.463 626.732 692.505 646.297 688.279 665.376C684.246 683.585 678.007 701.899 678.682 720.777C679.003 729.77 681.081 738.619 685.3 746.598C687.512 750.783 690.366 754.476 693.269 758.191C695.998 761.684 698.959 765.448 699.974 769.86C702.142 779.284 693.925 786.999 685.726 789.746C677.853 792.384 669.302 792.495 661.101 791.865C644.317 790.577 628.204 785.643 612.503 779.845C604.947 777.055 597.198 774.696 590.001 771.027C582.912 767.413 577.027 762.729 576.602 754.209C576.174 745.634 579.359 737.178 581.841 729.109C584.798 719.494 586.712 709.492 588.411 699.586C591.991 678.721 591.893 657.874 586.234 637.378C581.066 618.662 571.785 600.439 558.577 586.098C547.134 573.675 532.064 567.042 515.719 563.826C497.89 560.317 479.693 558.574 461.783 555.449C442.157 552.024 422.222 547.907 403.916 539.813C385.819 531.811 370.849 519.162 357.941 504.321C331.478 473.896 311.534 437.715 302.925 398.18C301.887 393.413 300.949 388.604 300.259 383.774C299.925 381.431 299.543 378.672 300.635 376.471C301.447 374.835 303.783 373.273 305.352 374.929V371.253C300.583 374.955 295.485 373.907 289.926 373.407C284.074 372.88 278.236 373.968 272.683 375.789C261.608 379.421 251.176 385.445 241.979 392.544C229.779 401.959 220.034 413.247 211.605 425.997C204.545 436.677 196.851 447.625 191.761 459.425C190.465 462.429 189.112 465.905 192.487 467.959C197.285 470.878 202.33 473.417 207.202 476.214C211.239 478.53 213.503 483.221 210.935 487.598C208.659 491.478 204.517 492.035 200.565 490.892C195 489.284 189.45 487.617 183.894 485.98C182.15 485.466 179.935 487.298 180.697 489.177C186.565 503.644 192.433 518.112 198.301 532.58L202.566 543.098C203.237 544.75 204.31 546.665 204.559 548.459C205.534 555.496 196.131 556.98 193.435 551.097C191.991 547.946 190.816 544.64 189.514 541.429C186.278 533.451 183.042 525.473 179.806 517.495C178.549 514.395 174.259 515.543 174.794 518.877C176.594 530.105 178.394 541.334 180.195 552.562C180.653 555.42 180.489 558.436 177.628 560.113C173.489 562.538 169.655 559.158 169.006 555.109C168.06 549.208 167.352 543.259 166.526 537.339C165.726 531.607 164.926 525.875 164.126 520.142C163.715 517.194 159.019 517.979 159.021 520.833C159.027 528.377 159.033 535.92 159.039 543.463C159.042 547.073 159.167 550.706 159.047 554.313C158.816 561.258 149.459 562.576 147.695 555.612C147.026 552.969 143.508 553.324 142.683 555.612C140.395 561.959 131.619 559.978 131.531 553.524C131.516 552.402 131.624 551.265 131.67 550.144C131.924 543.922 132.179 537.699 132.434 531.476C132.968 518.433 133.514 505.391 134.037 492.347C134.498 480.835 134.471 469.253 135.418 457.768C137.664 430.531 146.194 403.826 159.879 380.19C172.758 357.948 190.329 338.771 210.91 323.425C230.796 308.596 254.512 295.815 279.673 293.902C285.647 293.448 291.71 293.614 297.614 294.67C299.6 295.025 304.809 295.627 305.213 298.262C305.275 298.661 305.105 299.445 304.839 299.708C304.018 300.517 303.97 299.711 303.591 298.855C302.791 297.05 302.382 294.905 302.004 292.973C299.409 279.707 301.847 265.293 303.54 252.039C305.274 238.465 308.567 224.46 316.996 213.368C324.224 203.857 335.322 195.242 347.326 193.192C371.4 189.08 384.188 220.092 384.754 239.439C384.927 245.34 383.98 251.763 379.009 255.588C375.436 258.338 370.846 259.396 366.658 260.814C362.045 262.376 357.44 264.388 354.534 268.487C351.444 272.846 350.607 279.31 351.754 284.465C353.423 291.969 360.991 296.96 367.406 300.139C378.003 305.391 389.803 308.02 401.461 309.567C416.595 311.575 431.987 311.549 447.147 309.825C482.666 305.785 517.298 292.391 544.387 268.72C551.875 262.178 558.681 254.896 564.757 247.028C572.075 237.553 577.593 226.972 584.466 217.201C591.92 206.603 601.054 198.047 610.17 188.91C618.981 180.078 627.593 170.975 636.637 162.38C639.687 159.482 644.823 159.656 646.422 164.12C647.572 167.33 645.652 169.534 643.592 171.599C638.699 176.503 633.807 181.407 628.914 186.311C625.564 189.67 622.213 193.029 618.862 196.388C616.497 198.759 620.171 202.435 622.537 200.063L622.537 200.062Z" fill="var(--svg-fill-color)"/>
    <path d="M373.789 261.162C373.789 261.162 347.351 268.017 335.708 260.255C337.926 268.017 354.558 275.225 354.558 275.225C354.558 275.225 355.918 267.279 361.614 265.707C367.31 264.136 373.789 261.162 373.789 261.162V261.162Z" fill="var(--svg-fill-color)"/>
    <path d="M373.098 258.656C370.059 259.441 366.946 259.996 363.844 260.457C362.513 260.655 361.471 260.788 359.81 260.954C358.245 261.11 356.677 261.227 355.106 261.294C353.494 261.363 351.879 261.38 350.266 261.327C349.489 261.302 348.711 261.261 347.935 261.2C347.551 261.17 347.167 261.135 346.784 261.095C346.405 261.056 345.935 260.999 345.916 260.996C344.242 260.761 342.577 260.407 340.966 259.888C339.501 259.417 338.508 258.986 337.02 258.011C335.12 256.768 332.562 258.829 333.202 260.946C334.788 266.199 339.891 269.874 344.305 272.676C347.151 274.482 350.152 276.124 353.246 277.469C354.625 278.068 356.745 277.742 357.064 275.916C357.252 274.843 357.601 273.789 358.001 272.78C357.787 273.321 358.039 272.692 358.095 272.578C358.215 272.329 358.334 272.08 358.463 271.836C358.716 271.361 358.997 270.905 359.3 270.46C359.617 269.994 359.178 270.572 359.514 270.175C359.71 269.945 359.914 269.723 360.129 269.511C360.611 269.038 360.491 269.103 361.158 268.707C361.73 268.367 361.761 268.379 362.305 268.214C363.201 267.941 364.102 267.689 364.992 267.395C366.587 266.869 368.164 266.287 369.726 265.672C371.534 264.959 373.334 264.215 375.101 263.406C376.377 262.822 376.691 260.976 376.033 259.85C375.266 258.539 373.758 258.331 372.477 258.918C370.592 259.781 369.114 260.38 366.969 261.19C365.354 261.8 363.724 262.372 362.071 262.87C360.59 263.316 359.142 263.743 357.872 264.661C354.763 266.91 352.709 270.778 352.052 274.534C353.325 274.016 354.597 273.498 355.87 272.981C353.023 271.744 350.263 270.248 347.623 268.622C345.358 267.227 343.507 265.95 341.673 264.261C341.218 263.842 340.778 263.408 340.358 262.955C340.184 262.767 340.013 262.577 339.847 262.382C339.739 262.255 339.632 262.126 339.527 261.996C339.68 262.198 339.666 262.179 339.487 261.938C339.189 261.525 338.912 261.1 338.668 260.653C338.543 260.424 338.423 260.192 338.32 259.952C338.566 260.523 338.247 259.675 338.214 259.565L334.396 262.5C339.905 266.106 347.09 266.671 353.497 266.543C359.342 266.426 365.197 265.633 370.921 264.467C372.112 264.225 373.303 263.972 374.48 263.668C377.716 262.832 376.344 257.817 373.098 258.656V258.656Z" fill="var(--svg-fill-color)"/>
    <path d="M635.492 198.448C632.206 201.823 628.92 205.198 625.633 208.573C624.145 210.101 622.652 211.623 621.17 213.156C618.306 216.121 616.978 220.381 618.214 224.403C620.041 230.345 626.847 233.663 632.632 231.28L629.697 227.462C627.809 231.843 628.464 237.051 632.184 240.315C635.779 243.468 640.865 243.963 645.027 241.626C643.841 240.441 642.656 239.256 641.471 238.07C639.154 242.062 639.491 247.008 642.386 250.61C645.094 253.978 649.837 255.437 653.974 254.148C657.652 253.002 660.218 249.708 662.834 247.055C666.456 243.381 670.078 239.707 673.701 236.033C675.1 234.613 676.5 233.194 677.899 231.775C678.837 230.823 679.799 229.906 680.567 228.804C683.437 224.684 682.885 219.039 679.61 215.337C676.194 211.475 670.416 210.801 666.012 213.275C667.198 214.46 668.383 215.646 669.568 216.831C671.952 212.725 671.511 207.627 668.429 204.012C665.494 200.569 660.375 199.364 656.204 201.081L659.139 204.899C660.683 201.316 660.646 197.157 658.282 193.903C657.067 192.231 655.444 190.883 653.956 189.463C649.877 185.57 645.012 182.839 639.295 182.349C635.665 182.038 631.911 183.076 629.376 185.789C627.094 188.231 630.762 191.915 633.052 189.464C633.77 188.696 634.533 188.165 635.345 187.912C636.58 187.527 637.21 187.454 638.538 187.5C640.729 187.575 643.244 188.351 645.27 189.388C648.389 190.986 650.64 193.406 653.257 195.978C654.908 197.601 655.578 200.123 654.651 202.275C654.227 203.258 654.14 204.267 654.854 205.162C655.44 205.898 656.628 206.488 657.586 206.093C660.02 205.091 662.683 205.376 664.514 207.416C666.239 209.337 666.335 212.046 665.08 214.208C663.761 216.479 666.381 219.03 668.636 217.763C671.094 216.382 674.252 216.827 676.068 219.16C677.79 221.374 677.65 224.526 675.711 226.587C674.055 228.347 672.315 230.035 670.619 231.756C665.409 237.04 660.263 242.396 654.986 247.612C653.208 249.369 650.7 249.946 648.483 248.933C645.262 247.46 644.254 243.631 645.959 240.694C647.278 238.422 644.658 235.872 642.403 237.138C640.317 238.31 637.762 238.223 635.86 236.64C633.982 235.077 633.218 232.331 634.185 230.086C634.609 229.103 634.696 228.095 633.982 227.199C633.396 226.463 632.208 225.873 631.25 226.268C627.742 227.713 623.608 226.049 622.994 222.072C622.669 219.967 623.677 218.032 625.257 216.41C628.732 212.841 632.208 209.272 635.683 205.702C636.845 204.509 638.006 203.316 639.168 202.123C641.503 199.725 637.831 196.046 635.492 198.448V198.448Z" fill="var(--svg-fill-color)"/>
    <path d="M645.886 210.985C641.272 215.526 636.658 220.066 632.045 224.607C631.39 225.252 630.735 225.896 630.08 226.541C629.109 227.496 629.051 229.272 630.08 230.216C631.124 231.175 632.72 231.235 633.755 230.216C638.369 225.675 642.983 221.135 647.596 216.594L649.561 214.66C650.532 213.705 650.59 211.929 649.561 210.985C648.517 210.026 646.921 209.965 645.886 210.985Z" fill="var(--svg-fill-color)"/>
    <path d="M656.578 222.243C651.964 226.784 647.351 231.325 642.737 235.865C642.082 236.51 641.427 237.155 640.772 237.799C639.802 238.754 639.744 240.53 640.772 241.475C641.817 242.433 643.412 242.494 644.448 241.475C649.061 236.934 653.675 232.393 658.289 227.852C658.944 227.208 659.599 226.563 660.254 225.919C661.224 224.963 661.282 223.188 660.254 222.243C659.209 221.285 657.614 221.224 656.578 222.243Z" fill="var(--svg-fill-color)"/>
    <path d="M142.794 519.15C142.68 530.571 142.566 541.993 142.452 553.415C142.436 555.037 142.42 556.658 142.403 558.28C142.37 561.626 147.568 561.628 147.601 558.28C147.715 546.858 147.83 535.436 147.944 524.015C147.96 522.393 147.976 520.771 147.992 519.15C148.026 515.804 142.828 515.801 142.794 519.15Z" fill="var(--svg-fill-color)"/>
    <path d="M642.475 249.721C642.512 250.137 642.497 249.384 642.551 249.246C642.463 249.47 642.455 249.741 642.379 249.973C642.221 250.451 642.054 250.921 641.875 251.391C641.564 252.208 642.005 251.141 641.676 251.863C641.48 252.291 641.287 252.719 641.085 253.143C637.527 260.603 632.949 267.62 628.454 274.534C619.41 288.447 610.214 302.454 598.726 314.497C586.994 326.796 573.503 337.322 559.008 346.172C530.683 363.466 498.846 374.421 465.531 375.432C459.696 375.609 453.765 375.517 448.003 374.494C442.955 373.598 437.51 372.073 433.673 368.482C431.854 366.78 430.447 364.655 429.823 362.226C429.018 359.095 430.412 355.201 434.219 357.162C437.903 359.061 438.332 364.191 439.145 367.78C439.934 371.267 440.958 374.701 442.287 378.022C446.886 389.516 455.009 399.316 466.382 404.567C480.63 411.145 496.379 409.542 511.637 409.85C531.049 410.242 550.51 411.444 569.654 414.813C586.922 417.851 603.786 422.748 619.988 429.452C650.708 442.164 678.696 461.005 703.875 482.565C716.63 493.488 728.739 505.154 740.311 517.32C751.902 529.507 762.692 542.439 774.466 554.452C780.364 560.47 786.527 566.253 793.168 571.451C799.705 576.567 806.675 580.761 813.895 584.827C821.084 588.875 828.928 592.818 837.421 592.283C846.298 591.725 854.535 587.049 863.506 587.339C866.821 587.446 870.267 588.25 873.022 590.169C876.384 592.51 877.66 596.289 877.75 600.258C877.948 608.953 875.486 618.035 872.582 626.158C869.656 634.341 865.619 642.095 861.003 649.445C856.569 656.504 852.962 663.956 849.098 671.329C845.252 678.67 840.94 685.695 835.085 691.618C835.928 691.396 836.771 691.173 837.613 690.95C803.115 680.348 766.318 677.152 733.086 662.461C723.928 658.412 715.181 653.456 707.245 647.332C704.599 645.29 702.008 649.803 704.622 651.82C733.904 674.418 772.076 680.52 807.21 688.47C816.956 690.676 826.676 693.026 836.232 695.962C837.107 696.231 838.124 695.937 838.76 695.294C844.919 689.064 849.542 681.677 853.586 673.953C857.636 666.219 861.522 658.508 866.112 651.072C870.837 643.417 874.884 635.314 877.851 626.812C880.752 618.5 883.17 609.128 882.948 600.258C882.74 591.937 878.121 585.483 870.066 583.139C861.499 580.645 853.029 583.533 844.733 585.672C840.079 586.872 835.561 587.631 830.804 586.552C826.676 585.616 822.851 583.797 819.146 581.794C811.515 577.668 804.004 573.331 797.137 568.005C783.192 557.19 771.415 543.868 759.689 530.769C748.133 517.861 736.267 505.258 723.653 493.372C698.504 469.671 670.654 448.395 639.705 432.822C624.377 425.11 608.312 418.787 591.728 414.351C572.384 409.178 552.416 406.632 532.455 405.45C522.346 404.852 512.219 404.6 502.093 404.522C494.104 404.46 486.067 404.883 478.217 403.115C465.726 400.301 455.497 392.681 449.494 381.337C447.866 378.262 446.585 375.032 445.564 371.708C444.372 367.828 443.909 363.709 442.516 359.901C441.156 356.182 438.709 353.022 434.802 351.82C431.257 350.729 427.355 352.027 425.515 355.33C422.368 360.983 425.813 368.34 430.16 372.309C434.406 376.187 440.04 378.218 445.6 379.315C457.656 381.694 470.494 380.824 482.618 379.348C501.695 377.024 520.143 371.377 537.602 363.41C569.307 348.941 598.339 327.234 618.45 298.531C626.498 287.045 634.505 275.441 641.533 263.292C643.696 259.554 646.311 255.469 647.425 251.237C647.551 250.76 647.716 250.208 647.673 249.721C647.381 246.415 642.181 246.385 642.475 249.721H642.475Z" fill="var(--svg-fill-color)"/>
    <path d="M593.226 214.474C599.895 218.464 606.565 222.454 613.234 226.444C615.102 227.562 616.502 229.236 616.793 231.387C617.222 234.56 615.189 237.571 612.338 238.454C610.577 239 609.093 238.663 607.304 238.157C605.249 237.575 603.195 236.994 601.14 236.412C596.919 235.218 592.699 234.023 588.478 232.829C585.254 231.916 583.878 236.93 587.096 237.841C591.017 238.95 594.937 240.06 598.858 241.17C601.13 241.813 603.402 242.456 605.674 243.099C607.929 243.737 610.111 244.166 612.479 243.757C616.839 243.005 620.492 239.576 621.63 235.319C622.803 230.935 621.273 226.074 617.718 223.231C616.545 222.292 615.214 221.571 613.928 220.801C611.791 219.523 609.654 218.244 607.517 216.966C603.628 214.639 599.739 212.312 595.849 209.986C592.972 208.264 590.355 212.756 593.226 214.474L593.226 214.474Z" fill="var(--svg-fill-color)"/>
    <path d="M281.36 232.203C279.523 238.348 281.277 245.005 283.897 250.859C285.759 255.022 288.06 258.989 290.747 262.674C292.143 264.587 293.909 266.574 296.268 266.778C300.232 267.121 308.392 255.713 309.294 251.984C310.312 247.773 307.137 242.116 307.348 237.535C307.519 233.818 309.835 229.727 313.378 228.21C320.149 225.311 324.377 234.295 325.933 239.489C323.769 232.265 323.832 224.391 326.112 217.204C327.824 211.806 330.883 206.677 335.505 203.406C345.155 196.576 365.172 203.726 370.233 191.887C376.384 177.499 364.383 164.201 351.166 160.702C344.148 158.845 336.78 158.89 329.526 159.165C327.295 159.25 324.976 159.379 323.019 160.452C321.062 161.525 319.594 163.834 320.221 165.977C320.657 167.467 321.971 168.533 323.332 169.28C326.667 171.111 330.725 171.578 334.389 170.552C334.904 170.407 335.511 170.107 335.512 169.571C335.512 168.937 334.699 168.687 334.068 168.625C326.471 167.868 319.02 166.499 311.517 167.736C302.974 169.143 294.886 167.733 287.2 173.025C284.976 174.556 282.884 176.595 282.298 179.232C281.703 181.912 282.933 184.903 285.243 186.389C287.552 187.875 290.783 187.756 292.976 186.103C291.248 183.204 286.95 183.782 283.713 184.737C280.602 185.654 277.491 186.571 274.381 187.488C266.809 189.72 258.036 193.161 256.237 200.847C255.114 205.646 257.432 210.897 261.402 213.818C265.372 216.738 270.712 217.456 275.508 216.322C278.666 215.575 282.15 213.178 281.643 209.973C276.257 211.084 270.687 212.387 266.38 215.807C262.074 219.227 259.438 225.388 261.735 230.385C263.405 234.02 267.403 236.273 271.4 236.444C273.569 236.536 280.69 236.907 282.446 235.628C283.721 234.7 284.511 233.261 285.197 231.841C285.378 231.467 285.558 231.069 285.529 230.655C285.454 229.599 283.995 229.123 283.062 229.623C282.129 230.123 281.663 231.189 281.359 232.204L281.36 232.203Z" fill="var(--svg-fill-color)"/>
    <path d="M278.854 231.513C276.172 240.907 280.359 250.829 285.104 258.829C286.275 260.803 287.543 262.732 288.934 264.56C290.209 266.236 291.652 267.827 293.611 268.7C296.811 270.127 299.476 268.842 301.961 266.746C304.329 264.749 306.296 262.231 308.066 259.706C309.505 257.651 311.01 255.371 311.728 252.941C313.799 245.92 306.427 238.052 312.431 231.98C312.983 231.422 313.709 230.882 314.353 230.601C314.738 230.434 315.184 230.318 315.596 230.251C316.041 230.178 315.265 230.264 315.7 230.253C315.914 230.248 316.127 230.246 316.341 230.259C315.919 230.234 316.785 230.367 316.994 230.425C317.056 230.442 317.529 230.632 317.262 230.515C316.998 230.399 317.573 230.687 317.624 230.716C318.292 231.096 318.474 231.25 319.134 231.934C321.215 234.094 322.534 237.237 323.427 240.179C324.397 243.37 329.385 242.022 328.44 238.798C325.758 229.652 326.596 219.087 331.858 210.977C333.033 209.166 334.472 207.525 336.147 206.158C336.711 205.698 337.316 205.291 337.951 204.936C338.238 204.775 338.531 204.631 338.826 204.485C338.924 204.436 339.417 204.223 339.003 204.396C339.196 204.315 339.393 204.242 339.59 204.17C342.748 203.011 345.44 202.78 348.617 202.537C354.897 202.058 362.295 202.359 367.756 198.708C374.366 194.289 375.749 184.633 373.466 177.494C370.947 169.613 364.381 163.319 356.919 160.021C352.405 158.026 347.598 157.105 342.696 156.688C339.98 156.457 337.251 156.403 334.525 156.433C331.889 156.462 329.205 156.455 326.585 156.778C324.03 157.093 321.444 157.871 319.646 159.824C317.95 161.666 317.041 164.19 317.715 166.667C319.071 171.655 325.831 173.656 330.364 173.684C332.59 173.698 335.876 173.498 337.376 171.606C338.247 170.508 338.317 168.994 337.58 167.805C336.812 166.565 335.421 166.186 334.068 166.025C328.653 165.385 323.173 164.608 317.711 164.641C314.999 164.658 312.374 165.05 309.693 165.398C307.383 165.698 305.053 165.816 302.731 165.986C297.869 166.343 293.074 166.983 288.651 169.161C284.387 171.26 280.058 174.874 279.589 179.907C279.136 184.756 282.78 189.258 287.559 189.912C289.901 190.233 292.345 189.724 294.288 188.347C295.394 187.564 296.037 186.055 295.221 184.792C291.277 178.687 282.863 182.277 277.467 183.868C271.661 185.58 265.463 187.159 260.494 190.781C255.446 194.461 252.403 200.041 253.689 206.384C255.013 212.919 260.654 217.82 267.082 219.029C270.816 219.731 274.885 219.571 278.406 218.059C281.587 216.692 284.687 213.736 284.242 209.973C284.037 208.235 282.753 207.094 280.952 207.467C274.858 208.729 268.449 210.325 263.74 214.657C259.664 218.405 257.055 224.631 258.849 230.106C260.699 235.754 266.188 238.819 271.885 239.064C273.908 239.15 275.937 239.213 277.961 239.118C280.134 239.016 282.522 238.872 284.284 237.466C286.663 235.569 289.662 230.886 287.081 228.14C285.805 226.783 283.64 226.475 281.994 227.274C280.287 228.102 279.406 229.771 278.854 231.512C277.841 234.709 282.857 236.077 283.866 232.894C283.879 232.854 284.321 231.908 284.312 231.882C284.33 231.933 283.822 232.024 283.607 231.947C283.144 231.78 283.123 231.397 283.047 231.009C282.885 230.18 282.91 230.626 282.71 231.02C282.437 231.561 282.152 232.113 281.797 232.606C281.574 232.916 281.322 233.199 281.029 233.447C280.729 233.702 281.288 233.419 281.006 233.483C280.732 233.545 280.462 233.635 280.186 233.698C280.032 233.732 279.872 233.757 279.717 233.783C280.104 233.718 279.679 233.79 279.509 233.807C276.671 234.094 273.522 234.186 270.684 233.792C267.234 233.313 263.895 230.83 263.52 227.244C263.136 223.562 265.348 219.846 268.218 217.645C272.247 214.555 277.475 213.485 282.334 212.479C281.237 211.644 280.141 210.809 279.044 209.973C279.156 210.918 279.094 211.219 278.457 211.893C277.811 212.578 276.955 213.088 276.088 213.431C273.923 214.287 271.31 214.424 269.024 214.114C264.289 213.471 260.096 210.419 258.859 205.684C256.329 195.996 268.504 191.93 275.739 189.797C279.019 188.83 282.294 187.707 285.621 186.918C286.814 186.635 287.811 186.461 289.064 186.584C289.771 186.654 290.417 186.926 290.733 187.415L291.665 183.859C289.036 185.722 285.307 184.625 284.782 181.272C284.189 177.485 288.919 174.696 291.831 173.383C295.61 171.68 299.834 171.384 303.91 171.1C308.592 170.774 313.246 169.845 317.94 169.838C320.703 169.833 323.46 170.06 326.205 170.349C327.591 170.495 328.974 170.659 330.358 170.818C331.13 170.907 331.902 170.995 332.674 171.078C332.953 171.108 333.337 171.202 333.603 171.176C334.524 171.088 333.37 172.204 333.006 170.262V168.88C333.164 168.053 334.176 167.991 333.304 168.15C332.903 168.223 332.512 168.34 332.107 168.394C331.465 168.48 330.807 168.495 330.16 168.483C328.675 168.453 327.186 168.158 325.806 167.6C323.889 166.825 321.544 165.364 323.443 163.368C325.356 161.356 329.288 161.759 331.796 161.687C335.279 161.587 338.769 161.578 342.245 161.849C347.997 162.297 353.591 163.633 358.492 166.756C362.495 169.307 366.041 173.015 367.897 177.348C369.772 181.723 369.831 187.037 367.658 191.281C367.135 192.304 366.9 192.607 366.308 193.216C365.488 194.06 365.456 194.065 364.436 194.65C363.05 195.443 361.339 195.96 359.329 196.344C358.249 196.55 357.648 196.626 356.815 196.718C355.699 196.841 354.58 196.931 353.461 197.01C351.281 197.165 349.098 197.277 346.922 197.483C342.707 197.882 338.221 198.531 334.596 200.888C328.873 204.61 325.228 210.912 323.353 217.345C321.193 224.758 321.258 232.779 323.428 240.179L328.44 238.798C326.729 233.167 323.254 225.728 316.592 225.084C312.682 224.706 309.106 227.332 307.043 230.443C304.7 233.975 304.399 238.045 305.257 242.096C305.897 245.116 307.627 248.924 306.621 251.847C306.561 252.02 306.267 252.646 306.558 252.036C306.457 252.247 306.362 252.461 306.259 252.671C305.969 253.256 305.652 253.827 305.32 254.389C304.584 255.636 303.774 256.839 302.914 258.004C302.18 258.999 301.249 260.128 300.244 261.196C299.792 261.674 299.327 262.14 298.84 262.583C298.599 262.802 298.353 263.013 298.103 263.223C297.789 263.485 298.402 263.007 298.085 263.241C297.939 263.349 297.792 263.456 297.641 263.557C297.416 263.707 297.18 263.835 296.951 263.979C296.872 264.029 296.779 264.059 296.7 264.109C296.402 264.297 297.158 263.972 296.834 264.059C296.741 264.083 296.001 264.302 296.49 264.197C296.913 264.106 296.392 264.193 296.269 264.159C294.716 263.723 293.643 262.268 292.733 261.004C289.718 256.818 287.072 252.22 285.253 247.383C283.512 242.752 282.479 237.753 283.866 232.894C284.786 229.672 279.772 228.296 278.854 231.512V231.513Z" fill="var(--svg-fill-color)"/>
    <path d="M371.605 202.389C369.634 202.399 367.666 202.945 365.981 203.969C365.207 204.44 364.846 205.544 365.359 206.34C365.861 207.117 366.901 207.465 367.73 206.962C368.11 206.73 368.504 206.527 368.913 206.351L368.499 206.525C369.269 206.201 370.074 205.981 370.902 205.869L370.442 205.931C370.828 205.882 371.215 205.856 371.605 205.854C372.511 205.849 373.379 205.061 373.337 204.122C373.295 203.187 372.576 202.384 371.605 202.389H371.605Z" fill="var(--svg-fill-color)"/>
    <path d="M353.354 206.386C351.598 205.629 349.794 205.417 347.909 205.766C346.213 206.079 344.596 206.953 343.382 208.174C342.742 208.817 342.691 209.99 343.382 210.624C344.072 211.258 345.149 211.311 345.832 210.624C345.954 210.502 346.079 210.383 346.209 210.269C346.267 210.219 346.327 210.172 346.385 210.121C346.556 209.971 346.117 210.308 346.307 210.182C346.58 210.002 346.844 209.819 347.133 209.665C347.286 209.584 347.442 209.513 347.598 209.439C347.806 209.341 347.284 209.554 347.503 209.482C347.576 209.458 347.647 209.428 347.719 209.403C348.045 209.288 348.379 209.197 348.717 209.129C348.792 209.114 348.868 209.1 348.944 209.087C348.998 209.078 349.269 209.036 348.998 209.076C348.728 209.116 348.997 209.08 349.054 209.075C349.149 209.066 349.245 209.059 349.341 209.054C349.666 209.038 349.992 209.043 350.317 209.07C350.393 209.077 350.469 209.086 350.545 209.093C350.779 209.114 350.197 209.028 350.426 209.079C350.594 209.117 350.764 209.142 350.932 209.183C351.08 209.22 351.228 209.261 351.373 209.308C351.492 209.346 352.069 209.578 351.605 209.378C352.05 209.569 352.451 209.687 352.94 209.552C353.341 209.441 353.777 209.131 353.975 208.756C354.369 208.01 354.242 206.768 353.353 206.385L353.354 206.386Z" fill="var(--svg-fill-color)"/>
    <path d="M365.982 239.162C365.316 239.238 364.646 239.264 363.976 239.23C363.797 239.221 363.619 239.208 363.441 239.191C363.352 239.182 363.264 239.173 363.175 239.162C363.414 239.196 363.435 239.199 363.237 239.17C362.928 239.118 362.621 239.065 362.316 238.994C361.668 238.844 361.012 238.651 360.404 238.38C360.791 238.553 360.414 238.379 360.328 238.338C360.166 238.263 360.006 238.183 359.848 238.1C359.531 237.934 359.224 237.752 358.922 237.559C358.158 237.069 356.977 237.376 356.552 238.181C356.098 239.039 356.358 240.028 357.174 240.551C359.749 242.201 362.939 242.976 365.982 242.627C366.88 242.524 367.76 241.904 367.715 240.894C367.677 240.044 366.947 239.051 365.982 239.162H365.982Z" fill="var(--svg-fill-color)"/>
    <path d="M350.726 217.844C350.785 217.793 350.845 217.744 350.907 217.696L350.556 217.967C350.821 217.767 351.106 217.604 351.412 217.475L350.998 217.65C351.323 217.517 351.66 217.428 352.008 217.379L351.548 217.441C351.896 217.398 352.245 217.397 352.593 217.442L352.133 217.38C352.384 217.416 352.628 217.474 352.867 217.557C353.276 217.698 353.838 217.596 354.202 217.383C354.562 217.172 354.905 216.76 354.999 216.347C355.1 215.904 355.078 215.406 354.824 215.012C354.57 214.619 354.233 214.369 353.789 214.216C352.844 213.889 351.829 213.889 350.857 214.075C349.889 214.26 349.016 214.757 348.276 215.393C347.955 215.67 347.769 216.208 347.769 216.619C347.769 217.044 347.957 217.551 348.276 217.844C348.606 218.147 349.04 218.372 349.501 218.351C349.98 218.33 350.362 218.157 350.726 217.844L350.726 217.844Z" fill="var(--svg-fill-color)"/>
    <path d="M370.412 214.579C370.77 214.371 371.14 214.186 371.522 214.023L371.108 214.198C371.768 213.921 372.455 213.716 373.16 213.588C373.565 213.514 373.994 213.135 374.195 212.792C374.412 212.42 374.504 211.873 374.37 211.457C374.234 211.037 373.974 210.633 373.573 210.421L373.16 210.246C372.852 210.164 372.545 210.164 372.238 210.246C370.986 210.475 369.762 210.949 368.663 211.587C368.287 211.805 367.982 212.204 367.867 212.623C367.753 213.037 367.804 213.59 368.041 213.958C368.28 214.328 368.635 214.653 369.077 214.754C369.533 214.858 370 214.818 370.412 214.579Z" fill="var(--svg-fill-color)"/>
    <path d="M664.069 717.587C662.122 721.808 660.258 726.815 662.349 731.339C663.291 733.377 665.017 734.86 667.34 734.894C669.829 734.93 671.939 732.976 671.232 730.387C670.837 728.943 669.418 728.323 668.035 728.572C661.96 729.662 657.536 735.775 657.587 741.81C657.643 748.326 662.959 753.047 669.166 753.806C672.638 754.23 675.927 753.244 678.667 751.112C679.776 750.25 679.573 748.343 678.667 747.437C677.573 746.342 676.104 746.572 674.992 747.437C673.334 748.726 670.769 748.981 668.706 748.483C666.366 747.918 664.354 746.61 663.323 744.396C662.414 742.444 662.696 739.831 663.799 737.794C665.03 735.517 666.893 734.036 669.416 733.584C668.351 732.979 667.285 732.374 666.219 731.769C666.108 730.824 666.396 730.199 667.086 729.892C667.494 729.694 667.537 729.645 667.217 729.748C667.204 729.794 667.661 729.53 667.222 729.692C667.468 729.727 667.498 729.721 667.311 729.676C667.134 729.622 667.152 729.633 667.364 729.708C667.37 729.66 667.56 730.242 667.334 729.645C666.982 728.713 666.616 728.054 666.614 727.03C666.609 724.667 667.582 722.323 668.557 720.21C669.144 718.936 668.918 717.411 667.624 716.654C666.503 715.999 664.659 716.306 664.069 717.587H664.069Z" fill="var(--svg-fill-color)"/>
    <path d="M797.032 600.112C802.572 604.457 810.768 605.002 816.501 600.622C815.451 599.261 814.401 597.901 813.351 596.54C811.512 598.801 810.998 601.657 811.995 604.426C813.069 607.409 815.31 609.47 818.251 610.565C824.802 613.004 831.335 609.063 837.938 609.621C839.338 609.74 840.536 608.342 840.536 607.023C840.536 605.518 839.342 604.542 837.938 604.424C832.501 603.963 827.335 606.649 821.929 606.104C820.124 605.922 818.349 605.207 817.443 603.817C817.075 603.252 816.742 602.364 816.695 601.956C816.636 601.446 816.674 601.143 816.741 600.89C816.801 600.662 816.927 600.338 817.027 600.216C817.843 599.212 818.09 597.883 817.23 596.803C816.504 595.892 814.92 595.337 813.877 596.134C810.149 598.982 804.535 599.438 800.708 596.436C799.605 595.571 798.109 595.36 797.032 596.436C796.132 597.337 795.922 599.241 797.032 600.112Z" fill="var(--svg-fill-color)"/>
</svg>
