<svg version="1.1" id="Layer_1" xmlns="http://www.w3.org/2000/svg" xmlns:xlink="http://www.w3.org/1999/xlink" x="0px" y="0px"
	 width="100%" viewBox="0 0 1024 768" xml:space="preserve">
<path fill="#F7F6F2" opacity="1.000000" stroke="none" 
	d="M649.170593,488.685944 
	C633.782166,487.545044 619.422302,483.044281 604.768738,480.276337 
	C596.565369,478.726776 588.295532,476.336151 580.069763,474.821716 
	C566.662048,472.353180 553.662415,466.289398 539.674011,468.329620 
	C532.720398,469.343811 525.903625,471.727325 518.953064,475.729248 
	C523.462158,478.256561 527.003296,477.565887 530.541809,476.733246 
	C531.993103,476.391724 533.422241,475.957672 534.867004,475.586975 
	C536.623779,475.136230 538.352234,475.222015 539.142456,477.085388 
	C540.040710,479.203278 538.299683,479.959106 536.821716,480.815948 
	C535.685486,481.474609 534.278870,482.076172 533.631897,483.105164 
	C528.246643,491.670074 519.261597,494.170959 510.504089,497.030853 
	C498.059326,501.094940 485.406708,504.643188 472.386627,505.873444 
	C454.517365,507.561859 437.044678,511.693420 419.228363,513.713989 
	C413.636383,514.348145 408.763702,513.237793 403.687317,512.032776 
	C401.966217,511.624207 399.485291,511.330933 399.627136,508.468475 
	C399.794739,505.084839 397.338959,504.038116 394.810425,503.895905 
	C391.094727,503.686920 387.708588,502.434540 384.194946,501.533875 
	C377.961426,499.936066 375.966309,495.828552 376.478760,489.450775 
	C377.346924,478.646240 382.831055,470.539520 389.785217,462.975037 
	C391.082153,461.564331 392.947723,460.264801 391.953430,457.843353 
	C390.917725,455.320862 388.728912,456.740814 387.112946,456.594604 
	C381.781952,456.112396 376.560150,456.502014 371.431213,458.472900 
	C366.024109,460.550690 360.544861,459.351379 355.319702,457.495605 
	C352.422455,456.466553 351.944794,454.124573 352.386810,450.998474 
	C354.165863,438.415649 363.597107,432.485077 372.961426,426.295044 
	C376.466797,423.977905 380.609375,422.386383 383.263977,419.036072 
	C381.957733,416.312164 379.752899,416.560760 377.876465,416.165741 
	C374.126099,415.376343 370.556519,414.208618 367.074280,412.502960 
	C363.231079,410.620483 362.520111,408.019318 363.978271,404.358856 
	C364.101501,404.049408 364.326538,403.755341 364.359894,403.438873 
	C365.518250,392.453522 373.768372,388.902771 382.600220,385.771759 
	C387.064178,384.189209 391.726257,382.858093 395.702545,379.594330 
	C393.690491,376.463806 390.674164,375.619415 387.672180,374.851746 
	C369.310272,370.156250 351.136841,364.797852 333.761566,357.200714 
	C326.374390,353.970795 319.357513,349.911011 315.889465,341.565155 
	C312.621826,333.701538 319.244293,319.940002 327.526062,317.671448 
	C349.360352,311.690460 371.396301,314.152588 393.412262,315.635010 
	C403.829346,316.336426 414.368469,316.652039 424.575256,318.596649 
	C432.665009,320.137909 440.742554,321.827423 448.890747,323.075745 
	C456.888733,324.300995 465.015747,324.658020 472.903290,326.662903 
	C473.449738,326.801788 474.134338,326.397156 474.711578,326.255859 
	C475.482697,323.537323 473.630035,322.400085 472.048035,321.294586 
	C464.289490,315.872925 456.354767,310.695953 448.713287,305.116150 
	C439.738708,298.562988 430.655640,292.196808 424.147736,282.748840 
	C417.937439,273.732971 418.966217,261.426117 427.410675,254.478363 
	C429.388519,252.851120 431.691772,253.224274 434.068756,253.487411 
	C441.905518,254.354935 449.200836,257.269348 456.758301,259.184265 
	C468.502899,262.160156 480.059601,265.753387 491.408539,269.937012 
	C497.136414,272.048523 502.946564,274.003021 508.437531,276.842102 
	C511.897797,278.631226 516.138916,278.408295 519.792297,280.273865 
	C533.205200,287.123016 546.909973,293.422546 560.126953,300.622681 
	C565.487854,303.543091 570.348206,303.630371 575.147461,301.027344 
	C580.456604,298.147858 586.294495,297.926819 591.867737,296.462891 
	C598.003418,294.851227 604.365540,294.176208 610.061951,290.979248 
	C614.097290,288.714508 618.620483,291.316742 623.049194,289.848450 
	C636.269043,285.465759 650.222534,284.073181 663.696289,280.665009 
	C670.386353,278.972717 673.958313,280.621857 674.503174,286.146545 
	C674.775146,288.904846 669.279724,297.510010 666.495117,298.319122 
	C652.756592,302.311096 639.620178,308.008179 626.073059,312.505554 
	C618.871582,314.896301 611.415955,316.444427 604.278564,319.238617 
	C595.242676,322.776001 594.777649,324.628784 601.239319,331.613617 
	C606.688721,337.504120 612.194336,333.729553 617.765808,332.729614 
	C629.910950,330.549805 641.824341,325.864319 654.490723,329.559540 
	C658.699402,330.787384 662.570679,332.326721 664.258850,336.880615 
	C665.290161,339.662384 667.354065,340.917175 670.286072,341.376373 
	C680.338928,342.950745 690.522583,342.553192 700.615479,343.528717 
	C703.076965,343.766632 705.616821,343.545105 708.046021,344.149017 
	C721.518433,347.498352 735.418274,349.298248 748.082397,355.567963 
	C753.513550,358.256775 756.187866,361.864777 756.365784,368.350037 
	C756.669434,379.416473 753.448547,387.536896 742.823486,392.474792 
	C733.798279,396.669220 724.876831,400.964630 715.192993,403.419342 
	C710.832764,404.524628 707.199219,407.262970 702.809631,408.516693 
	C698.512756,409.743896 698.588928,413.051056 702.557007,415.783722 
	C713.780029,423.512390 724.516113,431.865631 734.697998,440.913330 
	C740.429993,446.006836 745.435852,451.802002 750.056458,457.919067 
	C756.841858,466.902008 753.633667,475.765320 749.732178,484.640228 
	C747.108093,490.609283 743.692261,495.524139 736.805420,497.349396 
	C733.344055,498.266754 730.018372,500.045135 727.773071,503.194794 
	C727.009155,504.266541 725.893188,504.490234 724.247009,503.912567 
	C724.204163,501.805115 723.893188,499.620819 720.577087,500.049805 
	C710.379944,501.368958 700.574707,499.124664 690.684692,496.927704 
	C677.054749,493.899963 663.285767,491.498505 649.170593,488.685944 
M668.188721,424.394348 
	C663.609253,421.376068 658.526367,422.825348 654.152893,424.003448 
	C638.937439,428.102142 623.650757,431.579346 608.001648,433.563416 
	C602.088867,434.313049 596.184265,435.593719 590.470459,437.288269 
	C586.452393,438.479919 584.340088,442.096893 584.537476,446.226227 
	C584.714905,449.938293 587.629028,451.011719 591.107727,451.733887 
	C605.222412,454.664124 619.338684,457.569763 633.474670,460.400116 
	C649.846436,463.678101 666.074829,467.703949 682.621033,470.075623 
	C695.580444,471.933197 708.514221,474.224365 721.679993,474.002350 
	C723.726257,473.967896 726.351562,474.532776 727.442017,472.053650 
	C728.507629,469.630798 726.232361,468.111359 725.156067,466.335449 
	C724.653259,465.506012 723.791748,464.885437 723.061584,464.203613 
	C715.649658,457.282715 707.502258,451.328369 699.390869,445.249969 
	C689.526550,437.858063 679.603271,430.702332 668.188721,424.394348 
M710.037659,368.329193 
	C706.585815,367.892181 703.131531,367.473083 699.682495,367.014984 
	C686.009277,365.198944 672.313721,363.667542 658.494202,363.627930 
	C649.424316,363.601898 640.544006,364.375885 632.679260,369.577820 
	C631.358948,370.451080 629.283997,370.604492 629.316589,372.789459 
	C629.353333,375.252045 631.457336,376.076599 633.175842,376.914032 
	C645.856323,383.093323 658.583008,389.178040 671.304688,395.272614 
	C673.058655,396.112885 674.861084,395.917603 676.642761,395.270569 
	C693.022522,389.322235 709.921265,384.866699 726.017151,378.096680 
	C727.655396,377.407593 730.091431,377.444336 730.106079,375.146637 
	C730.122314,372.602600 727.483398,372.263336 725.718262,371.806976 
	C720.768921,370.527405 715.724304,369.616394 710.037659,368.329193 
M437.079590,452.624054 
	C426.270416,458.049957 417.155090,466.195496 406.244598,471.600250 
	C402.870178,473.271851 398.536804,474.549866 396.061005,478.208740 
	C395.192810,479.491730 394.116638,480.560028 394.674622,482.183228 
	C395.198334,483.706909 396.643768,483.777222 397.982178,483.891266 
	C404.744690,484.467499 411.433441,483.647949 417.421936,480.614990 
	C432.548431,472.953827 448.181427,466.484253 463.728851,459.781494 
	C468.410706,457.763092 473.442261,456.019318 477.435242,452.818939 
	C476.735809,450.550354 475.199310,450.018433 473.866882,449.544220 
	C463.087128,445.707703 452.273346,441.246429 441.734406,450.264099 
	C440.630890,451.208344 439.093109,451.644989 437.079590,452.624054 
M416.050842,339.245239 
	C410.985138,336.124603 404.991669,336.493408 399.602356,336.136749 
	C384.910797,335.164398 370.128845,335.540863 355.382324,335.440643 
	C353.767700,335.429657 351.965515,335.505981 351.616730,337.864441 
	C351.977417,338.183838 352.283936,338.603790 352.696747,338.799469 
	C369.262970,346.651031 387.135101,350.703430 404.681396,355.240814 
	C415.473572,358.031586 426.469757,360.773804 437.617828,362.530579 
	C445.287140,363.739136 451.224304,361.526184 456.804382,356.640045 
	C455.661896,354.523956 453.828430,354.383484 452.025330,354.084656 
	C441.956848,352.416168 431.797058,353.475342 421.686127,353.070282 
	C415.806335,352.834686 415.082642,352.031647 416.075836,346.225037 
	C416.437927,344.108093 418.805756,342.058044 416.050842,339.245239 
M541.010315,322.770050 
	C538.159546,321.876160 534.683044,323.206726 532.381042,320.751251 
	C532.372498,319.225311 533.124329,318.557068 533.822998,317.836426 
	C537.372986,314.174774 537.112610,312.591339 532.560303,310.133606 
	C531.682068,309.659454 530.783813,309.219391 529.877747,308.800385 
	C514.641907,301.753967 499.377319,294.717316 483.438904,289.429901 
	C477.980194,287.619049 472.705872,285.170807 467.024231,284.010193 
	C464.563202,283.507477 462.159027,283.032806 460.431976,285.521576 
	C461.162262,287.638489 462.860504,288.501190 464.341095,289.489044 
	C469.591095,292.991791 474.960693,296.316864 480.179016,299.865143 
	C494.749969,309.772766 509.881958,318.760010 525.254639,327.340881 
	C531.268188,330.697601 540.762573,328.217285 544.561951,322.651733 
	C543.601807,321.877380 542.657837,322.538208 541.010315,322.770050 
M559.818970,339.293762 
	C555.098206,342.624207 555.303406,343.976166 560.050720,346.786987 
	C564.745850,349.566895 568.686523,347.124725 572.725464,345.594116 
	C575.205078,344.654449 578.839417,343.606842 577.463989,339.896790 
	C576.273682,336.686096 573.429260,334.714996 569.565125,335.239380 
	C566.213013,335.694244 563.225586,337.046600 559.818970,339.293762 
z"/>
</svg>