<svg viewBox="0 0 1000 1000" fill="none" xmlns="http://www.w3.org/2000/svg">
<path d="M351.329 378.912L309.61 360.135L309.067 359.844C253.995 330.351 242.445 267.079 259.536 222.52C272.052 189.888 297.748 173.128 325 179.821C363.791 189.348 372.324 214.201 373.957 228.167C374.976 236.877 379.898 244.018 387.123 247.27L409.896 257.519L395.182 290.212L372.409 279.963C353.579 271.488 340.846 253.682 338.349 232.332C336.866 219.653 322.033 216.009 316.449 214.638C302.974 211.328 294.559 231.318 293.009 235.359C287.253 250.367 286.568 268.992 291.179 285.181C294.892 298.22 303.855 316.177 325.478 327.962L366.044 346.22L351.33 378.912L351.329 378.912Z" fill="#DFA546"/>
<path d="M472.161 433.295L432.979 415.661L447.694 382.968L485.64 400.047C506.665 407.492 524.694 402.069 536.156 396.169C550.713 388.677 563.899 375.636 571.429 361.285C577.586 349.549 580.477 335.35 573.052 330.084C557.987 319.403 551.328 324.328 548.483 326.431C531.226 339.188 510.053 341.912 491.847 333.718L470.499 324.11L485.213 291.417L506.561 301.025C512.78 303.824 520.485 302.544 527.172 297.601C535.906 291.145 546.018 287.688 556.415 287.602C568.688 287.502 581.263 291.956 593.79 300.84C615.856 316.488 619.54 346.753 603.175 377.942C592.187 398.884 573.739 417.146 552.563 428.046C526.849 441.28 499.26 443.174 472.779 433.52L472.161 433.295L472.161 433.295Z" fill="#DFA546"/>
<path d="M573.189 266.136L373.219 176.135L361.203 202.834C365.942 204.968 368.055 210.539 365.922 215.279L330.428 294.141C304.051 352.747 323.591 418.674 374.072 441.394C424.552 464.114 486.857 435.023 513.234 376.417L547.437 297.135C549.519 292.31 555.149 290.124 559.941 292.281L561.172 292.835L573.189 266.136L573.189 266.136Z" fill="#DFA546"/>
<path d="M393.607 615.659L400.588 600.148C404.496 591.464 400.625 581.255 391.94 577.346L373.263 568.94C356.411 561.356 348.899 541.547 356.483 524.695L395.217 438.635L362.524 423.921L323.791 509.981C316.206 526.833 296.397 534.345 279.546 526.761L263.664 519.612C254.979 515.704 244.771 519.575 240.862 528.26L233.881 543.77L194.33 569.054L155.343 655.678L358.372 747.056L397.359 660.432L393.607 615.659Z" fill="#DFA546"/>
<path d="M243.421 579.095C246.458 577.631 249.518 576.265 252.607 575.055C261.949 571.399 274.435 579.498 282.826 583.329C299.615 590.992 316.405 598.655 333.194 606.319C340.83 609.804 348.791 612.926 356.252 616.755C360.327 618.846 368.639 621.447 370.77 625.715C372.867 629.911 371.251 636.042 371.34 640.537C371.468 647.085 371.591 653.634 371.716 660.183C371.767 662.853 371.813 665.567 371.095 668.139C370.371 670.731 368.909 673.043 367.517 675.345C362.436 683.746 358.038 692.558 354.379 701.668C351.956 707.699 279.37 671.853 272.496 668.263C259.524 661.488 246.689 654.453 233.76 647.595C221.033 640.843 208.136 635.352 196.746 626.605C201.36 617.44 205.975 608.274 210.589 599.109C211.244 597.808 211.919 596.48 212.971 595.474C213.879 594.606 215.018 594.027 216.139 593.46C225.151 588.903 234.181 583.549 243.421 579.095L243.421 579.095Z" fill="#486582"/>
<path d="M525.119 305C525.116 305.12 525.018 305.857 525.135 305.199C525.254 304.523 525.103 305.291 525.073 305.386C525.027 305.529 524.973 305.689 524.939 305.833C524.776 306.503 524.973 305.58 525.05 305.6C525.063 305.604 524.495 306.614 524.457 306.674C524.365 306.817 524.264 306.953 524.171 307.095C523.736 307.764 524.615 306.609 524.113 307.169C522.894 308.528 521.581 309.756 520.195 310.945C517.488 313.268 514.301 315.659 512.826 319.017C511.051 323.059 512.017 327.418 512.99 331.545C513.221 332.522 513.459 333.497 513.669 334.479C513.756 334.882 513.838 335.286 513.913 335.691C513.958 335.933 513.976 336.197 514.041 336.435C514.121 336.726 513.992 335.755 514.063 336.606C514.131 337.421 514.039 338.259 514.111 339.063C514.156 339.567 514.333 338.175 514.119 338.949C514.075 339.107 514.049 339.27 514.004 339.428C514.016 339.388 513.861 339.892 513.856 339.889C514.087 339.37 514.116 339.292 513.941 339.653L513.825 339.861C513.711 340.033 513.29 340.387 513.71 340.063C514.194 339.691 513.625 340.124 513.542 340.195C512.78 340.849 514.047 340.001 513.287 340.381C513.033 340.508 511.997 340.954 512.988 340.598C512.585 340.743 512.186 340.891 511.772 341.007C510.973 341.231 510.158 341.37 509.339 341.503C510.37 341.336 508.799 341.559 508.588 341.581C508.09 341.631 507.592 341.675 507.093 341.716C503.19 342.041 498.888 342.102 495.402 344.119C492.166 345.992 490.472 349.479 489.072 352.787C488.651 353.782 488.235 354.78 487.823 355.779C487.755 355.945 487.538 356.435 487.87 355.671C487.795 355.844 487.722 356.017 487.647 356.189C487.444 356.655 487.235 357.12 487.016 357.579C486.655 358.333 486.269 359.076 485.825 359.785C485.649 360.066 485.454 360.334 485.269 360.609C485.86 359.729 485.076 360.803 484.859 361.015C484.805 361.069 484.501 361.414 484.444 361.396C484.376 361.376 485.289 360.903 484.672 361.213C484.514 361.293 483.558 361.802 484.163 361.542C484.812 361.263 483.678 361.74 483.515 361.679C483.703 361.749 484.309 361.67 483.803 361.617C483.769 361.613 483.094 361.574 483.082 361.598C483.154 361.449 483.974 361.801 483.214 361.604C483.007 361.551 482.796 361.511 482.589 361.454C482.201 361.347 481.827 361.165 481.44 361.067C480.907 360.932 482.239 361.461 481.422 361.057C481.249 360.971 481.071 360.892 480.897 360.806C480.447 360.585 480.005 360.349 479.567 360.106C476.031 358.139 472.674 355.534 468.701 354.488C464.365 353.348 460.354 355.031 456.646 357.193C454.921 358.199 453.248 359.296 451.494 360.253C451.143 360.444 450.79 360.63 450.432 360.806C450.218 360.912 449.982 360.997 449.775 361.115C449.287 361.396 450.601 360.836 449.759 361.117C449.419 361.231 449.086 361.358 448.74 361.454C448.533 361.511 448.322 361.551 448.114 361.604C447.991 361.631 447.867 361.653 447.743 361.672C448.288 361.605 448.415 361.583 448.125 361.605C447.965 361.574 447.686 361.6 447.525 361.616C447.019 361.669 447.625 361.749 447.813 361.679C447.65 361.74 446.517 361.263 447.165 361.542C447.755 361.796 446.83 361.301 446.656 361.213C446.024 360.896 447.062 361.67 446.8 361.322C446.67 361.15 446.459 361.009 446.308 360.852C446.083 360.619 445.526 359.752 446.059 360.609C445.862 360.292 445.633 359.995 445.437 359.677C444.996 358.962 444.612 358.213 444.253 357.455C444.055 357.036 443.866 356.613 443.681 356.189C443.606 356.017 443.533 355.844 443.458 355.671C443.801 356.466 443.533 355.848 443.45 355.647C443.02 354.605 442.589 353.563 442.146 352.526C441.486 350.979 440.797 349.42 439.855 348.019C437.559 344.601 434.298 342.921 430.279 342.335C428.171 342.028 426.055 341.872 423.934 341.69C423.536 341.656 423.138 341.621 422.74 341.58C422.529 341.559 420.958 341.336 421.989 341.502C421.084 341.356 420.183 341.199 419.304 340.934C418.977 340.835 418.658 340.719 418.34 340.598C419.38 340.994 418.16 340.422 417.941 340.319C417.671 340.193 417.466 340.254 418.13 340.497C418.023 340.458 417.88 340.275 417.786 340.194C417.704 340.124 417.134 339.69 417.618 340.063C418.043 340.39 417.569 339.937 417.446 339.757C417.007 339.117 417.632 339.817 417.473 339.889C417.467 339.891 417.313 339.388 417.324 339.428C417.279 339.269 417.253 339.107 417.209 338.949C416.995 338.174 417.173 339.567 417.218 339.062C417.297 338.171 417.239 337.221 417.298 336.318C417.336 335.726 417.125 337.235 417.311 336.287C417.35 336.089 417.379 335.888 417.415 335.69C417.5 335.234 417.594 334.779 417.693 334.325C417.906 333.343 418.145 332.367 418.375 331.389C418.872 329.279 419.324 327.147 419.488 324.981C419.807 320.752 418.032 317.341 415.079 314.435C412.466 311.864 409.429 309.77 407.047 306.963C407.565 307.573 407.069 306.981 406.872 306.674C406.833 306.614 406.266 305.604 406.278 305.6C406.356 305.58 406.552 306.503 406.39 305.832C406.355 305.689 406.302 305.529 406.256 305.386C406.225 305.291 406.074 304.523 406.194 305.199C406.315 305.884 406.232 304.89 406.215 304.766C406.14 304.213 406.144 305.037 406.157 305.067C406.135 305.017 406.23 304.694 406.256 304.614C406.31 304.444 406.405 304.233 406.43 304.057C406.496 303.592 405.994 304.852 406.382 304.182C406.547 303.898 406.693 303.604 406.872 303.326C406.985 303.15 407.133 302.983 407.233 302.801C407.361 302.569 406.75 303.336 407.303 302.729C409.748 300.038 412.718 297.941 415.276 295.369C418.211 292.418 419.854 288.959 419.463 284.733C419.262 282.555 418.804 280.424 418.302 278.3C418.083 277.375 417.859 276.451 417.659 275.521C417.562 275.069 417.47 274.615 417.388 274.16C417.344 273.913 417.307 273.665 417.264 273.418C417.373 274.047 417.289 273.656 417.25 273.251C417.221 272.951 416.959 270.946 417.229 270.808C417.269 270.788 417.052 271.632 417.209 271.051C417.262 270.856 417.317 270.652 417.359 270.455C417.44 270.072 417.303 269.851 417.281 270.56C417.287 270.364 417.548 270.1 417.63 269.936C417.885 269.427 417.47 270.123 417.47 270.135C417.47 270.098 417.729 269.848 417.786 269.805C418.598 269.184 417.211 270.037 418.142 269.557C418.514 269.366 419.088 269.12 418.34 269.402C418.784 269.235 419.226 269.082 419.684 268.958C420.078 268.852 420.475 268.763 420.875 268.685C421.081 268.645 422.606 268.422 421.57 268.552C422.506 268.434 423.446 268.349 424.386 268.271C426.498 268.097 428.607 267.934 430.703 267.6C434.651 266.971 437.802 265.161 439.991 261.774C440.914 260.346 441.595 258.774 442.257 257.213C442.678 256.218 443.093 255.22 443.505 254.221C443.86 253.36 443.27 254.732 443.514 254.199C443.611 253.986 443.699 253.768 443.794 253.554C443.98 253.132 444.171 252.713 444.371 252.298C444.715 251.586 445.084 250.885 445.504 250.215C445.6 250.06 446.261 249.101 445.914 249.577C445.548 250.081 446.011 249.467 446.072 249.403C446.23 249.236 446.392 249.072 446.55 248.905C446.606 248.845 446.831 248.61 446.884 248.604C446.81 248.612 446.19 249.023 446.656 248.787C446.831 248.698 447.059 248.567 447.216 248.451C447.672 248.111 446.88 248.623 446.92 248.561C446.968 248.486 448.28 248.137 447.551 248.359C446.974 248.534 447.582 248.372 447.764 248.38L448.004 248.386C448.415 248.42 448.328 248.4 447.743 248.328C447.743 248.277 449.84 248.916 450.017 248.983C449.241 248.692 450.137 249.049 450.432 249.193C450.928 249.437 451.414 249.699 451.895 249.97C453.642 250.949 455.316 252.05 457.054 253.042C460.735 255.144 464.714 256.671 468.962 255.439C472.929 254.288 476.256 251.698 479.835 249.747C480.228 249.532 480.625 249.325 481.028 249.13C481.245 249.025 481.464 248.925 481.684 248.825C481.572 248.876 480.94 249.094 481.569 248.882C481.992 248.74 482.406 248.587 482.84 248.479C483.005 248.438 483.173 248.409 483.339 248.37C484.111 248.191 482.554 248.334 483.324 248.387C483.438 248.394 483.677 248.403 483.803 248.383C484.511 248.271 483.262 248.18 483.631 248.343C483.783 248.411 484.039 248.462 484.202 248.49C484.782 248.588 483.794 248.389 483.918 248.354C484.098 248.304 484.621 248.781 484.762 248.85C485.152 249.04 484.155 248.196 484.613 248.751C484.755 248.923 484.947 249.067 485.1 249.231C485.392 249.542 485.699 250.043 485.269 249.391C485.499 249.739 485.742 250.074 485.958 250.432C486.418 251.192 486.818 251.988 487.191 252.794C487.348 253.131 487.499 253.47 487.647 253.811C487.661 253.844 488.027 254.696 487.792 254.144C487.556 253.589 487.92 254.452 487.933 254.484C488.365 255.525 488.793 256.567 489.237 257.603C490.622 260.833 492.377 264.267 495.61 265.996C499.195 267.914 503.437 267.971 507.394 268.309C507.891 268.352 508.387 268.397 508.883 268.45C509.222 268.486 510.186 268.636 509.339 268.497C510.244 268.645 511.145 268.801 512.025 269.066C512.189 269.116 512.353 269.168 512.516 269.225L512.754 269.311C513.061 269.432 513.066 269.432 512.769 269.312L512.549 269.223C512.695 269.291 512.838 269.363 512.98 269.44C513.111 269.512 513.253 269.625 513.388 269.681C513.96 269.916 513.26 269.528 513.198 269.503C513.399 269.584 513.53 269.847 513.704 269.967C513.916 270.113 514.226 270.158 513.562 269.738C513.712 269.833 513.845 270.205 513.941 270.347C514.336 270.933 513.772 270.148 513.856 270.111C513.862 270.108 514.02 270.632 514.035 270.691C514.051 270.751 514.184 271.292 514.165 271.297C514.119 271.309 514.102 270.307 514.122 271.067C514.147 271.996 514.127 272.9 514.013 273.826C514.118 272.975 513.972 273.987 513.913 274.309C513.819 274.817 513.714 275.323 513.603 275.827C513.375 276.861 513.121 277.889 512.881 278.92C511.93 282.991 511.051 287.366 512.965 291.296C514.566 294.584 517.718 296.919 520.421 299.249C521.729 300.377 522.957 301.548 524.113 302.831C524.715 303.499 523.692 302.167 524.171 302.905C524.264 303.047 524.365 303.183 524.457 303.326C524.652 303.631 524.788 304.002 524.998 304.291C525.262 304.653 524.805 303.442 524.939 304.167C524.964 304.304 525.03 304.488 525.073 304.614C525.082 304.642 525.194 305.003 525.171 305.067C525.37 304.508 525.105 304.411 525.118 305C525.162 306.951 526.805 308.825 528.852 308.733C530.837 308.644 532.631 307.091 532.585 305C532.491 300.727 529.627 297.448 526.594 294.75C525.124 293.441 523.582 292.213 522.142 290.87C521.539 290.308 520.952 289.727 520.411 289.104C520.298 288.973 520.19 288.837 520.077 288.705C520.721 289.455 520.183 288.837 520.061 288.656C519.838 288.326 519.673 287.964 519.461 287.631C519.072 287.021 519.554 288.207 519.532 287.79C519.522 287.611 519.403 287.384 519.36 287.208C519.368 287.24 519.241 286.723 519.259 286.714C519.259 286.714 519.3 287.612 519.288 286.803C519.282 286.395 519.259 285.99 519.275 285.581C519.284 285.345 519.3 285.11 519.32 284.875C519.337 284.666 519.5 283.589 519.342 284.559C519.662 282.596 520.144 280.672 520.593 278.736C521.525 274.715 522.528 269.902 520.146 266.167C517.689 262.314 513.093 261.434 508.883 260.983C506.943 260.775 504.994 260.655 503.053 260.46C502.825 260.437 502.139 260.328 503.035 260.464C502.847 260.436 502.658 260.409 502.471 260.378C502.016 260.303 501.562 260.217 501.113 260.111C500.728 260.02 500.347 259.916 499.971 259.792C499.771 259.727 499.575 259.643 499.375 259.579C500.287 259.871 499.615 259.675 499.379 259.549C499.24 259.474 499.108 259.386 498.968 259.313L498.772 259.186C498.442 258.951 498.516 259.012 498.997 259.37C498.792 259.338 498.496 258.908 498.353 258.755C498.212 258.605 497.997 258.415 497.902 258.231C497.933 258.291 498.408 258.962 498.058 258.413C497.811 258.026 497.556 257.649 497.327 257.25C496.907 256.516 496.538 255.754 496.188 254.984C496.015 254.603 495.856 254.216 495.684 253.834C495.445 253.3 496.031 254.675 495.677 253.814C495.569 253.55 495.459 253.288 495.35 253.025C493.923 249.576 492.52 245.645 489.552 243.183C485.764 240.042 481.272 240.709 477.128 242.746C475.356 243.617 473.692 244.691 472.004 245.71C471.11 246.25 470.21 246.782 469.284 247.267C468.929 247.453 468.564 247.619 468.207 247.8C467.335 248.242 468.933 247.562 468.031 247.88C467.767 247.973 467.507 248.075 467.239 248.159C466.868 248.276 466.418 248.304 466.069 248.458C465.617 248.658 466.97 248.437 466.168 248.446C465.999 248.448 465.833 248.466 465.664 248.466C465.46 248.466 465.236 248.418 465.034 248.435C464.537 248.474 465.93 248.66 465.131 248.434C464.696 248.311 464.256 248.219 463.826 248.072C463.605 247.997 463.388 247.894 463.164 247.827C462.621 247.664 463.958 248.224 463.122 247.8C462.718 247.596 462.309 247.406 461.909 247.195C460.936 246.68 459.992 246.115 459.052 245.545C455.582 243.44 451.76 240.819 447.525 240.916C443.261 241.015 440.221 244.132 438.348 247.687C437.397 249.493 436.649 251.404 435.869 253.288C435.797 253.463 435.724 253.638 435.652 253.813C435.284 254.708 435.974 253.081 435.589 253.963C435.422 254.346 435.257 254.729 435.083 255.109C434.715 255.913 434.323 256.709 433.873 257.471C433.683 257.792 433.469 258.097 433.271 258.413C432.845 259.089 433.712 257.971 433.353 258.321C433.217 258.453 433.105 258.617 432.975 258.755C432.836 258.904 432.021 259.553 432.539 259.211C433.102 258.839 432.439 259.268 432.36 259.312C432.161 259.423 431.926 259.534 431.736 259.658C431.235 259.986 431.831 259.621 431.954 259.579C431.714 259.662 431.478 259.755 431.235 259.832C430.899 259.939 430.558 260.029 430.215 260.11C429.767 260.216 429.313 260.303 428.858 260.378C428.67 260.409 428.482 260.435 428.294 260.464C429.297 260.311 428.194 260.469 427.983 260.492C424.095 260.913 419.925 260.787 416.241 262.249C411.883 263.979 409.526 267.712 409.724 272.408C409.818 274.646 410.298 276.87 410.808 279.044C411.025 279.974 411.253 280.901 411.461 281.832C411.574 282.34 411.683 282.849 411.78 283.361C411.836 283.653 412.041 285.095 411.934 284.153C412.04 285.09 412.059 285.995 412.031 286.935C412.013 287.551 412.024 286.689 412.07 286.713C412.088 286.723 411.984 287.143 411.968 287.207C411.935 287.344 411.873 287.803 411.76 287.895C412.013 287.689 412.119 287.224 411.762 287.837C411.581 288.15 411.39 288.452 411.197 288.757C411.066 288.963 410.664 289.388 411.251 288.705C411.139 288.837 411.031 288.972 410.917 289.103C410.314 289.799 409.653 290.442 408.976 291.064C406.068 293.735 402.806 296.032 400.564 299.346C398.164 302.894 398.234 307.374 400.71 310.863C403.033 314.137 406.283 316.422 409.186 319.129C409.825 319.724 410.412 320.353 411.002 320.994C411.166 321.172 411.507 321.687 410.98 320.939C411.075 321.074 411.175 321.205 411.267 321.343C411.511 321.703 411.678 322.114 411.917 322.472C412.179 322.865 411.673 321.594 411.833 322.314C411.869 322.473 411.929 322.631 411.968 322.791C411.991 322.886 412.237 323.644 412.039 323.044C411.851 322.478 412.041 323.182 412.049 323.327C412.071 323.737 412.066 324.148 412.047 324.558C412.036 324.794 412.019 325.03 411.997 325.266C411.981 325.435 411.814 326.383 411.986 325.44C411.234 329.546 409.804 333.665 409.714 337.865C409.67 339.955 410.087 342.163 411.251 343.93C412.541 345.889 414.431 347.076 416.589 347.888C420.289 349.279 424.535 349.143 428.422 349.556C429.126 349.63 428.414 349.553 428.294 349.534C428.528 349.57 428.763 349.604 428.997 349.644C429.405 349.714 429.812 349.793 430.215 349.888C430.641 349.988 431.065 350.105 431.479 350.246C431.639 350.3 431.795 350.363 431.954 350.42C431.013 350.086 431.722 350.328 431.95 350.45C432.155 350.56 432.348 350.71 432.556 350.813C433.056 351.06 432.365 350.632 432.331 350.629C432.554 350.646 432.994 351.274 433.128 351.412C433.215 351.502 433.377 351.666 433.426 351.768C433.09 351.073 433.122 351.353 433.27 351.586C433.539 352.01 433.818 352.422 434.064 352.86C434.458 353.56 434.808 354.284 435.14 355.015C435.332 355.439 435.515 355.867 435.699 356.294C435.323 355.422 435.871 356.716 435.978 356.974C436.771 358.89 437.535 360.84 438.535 362.661C440.472 366.187 443.709 369.268 448.004 369.079C452.311 368.889 456.026 366.267 459.597 364.124C460.402 363.642 461.212 363.167 462.044 362.732C462.487 362.501 462.937 362.288 463.39 362.076C463.275 362.13 462.659 362.345 463.297 362.119C463.562 362.026 463.821 361.924 464.089 361.84C464.213 361.801 465.294 361.418 465.388 361.516C465.406 361.535 464.407 361.57 465.161 361.552C465.371 361.547 465.579 361.532 465.79 361.536C465.874 361.537 466.393 361.517 466.421 361.576C466.44 361.615 465.445 361.363 466.198 361.565C466.682 361.695 467.16 361.806 467.634 361.973C467.858 362.051 468.076 362.14 468.297 362.225C467.545 361.934 468.047 362.118 468.207 362.198C468.656 362.426 469.111 362.638 469.555 362.876C470.48 363.371 471.38 363.91 472.277 364.454C473.995 365.497 475.698 366.591 477.522 367.442C479.5 368.364 481.583 369.135 483.803 369.082C486.076 369.029 488.127 368.096 489.808 366.601C492.708 364.023 494.071 360.058 495.513 356.579C495.604 356.361 495.695 356.142 495.786 355.924C495.741 356.031 495.468 356.66 495.739 356.035C495.924 355.61 496.108 355.186 496.302 354.765C496.672 353.965 497.066 353.174 497.52 352.419C497.708 352.107 497.965 351.809 498.128 351.488C498.35 351.051 497.51 352.129 498.05 351.588C498.156 351.481 498.249 351.355 498.353 351.244C498.481 351.108 498.623 350.984 498.75 350.849C499.072 350.505 498.862 350.438 498.582 350.946C498.736 350.666 499.339 350.507 499.592 350.341C500.273 349.896 498.812 350.579 499.609 350.331C499.772 350.28 499.931 350.218 500.093 350.167C500.515 350.033 500.945 349.923 501.378 349.828C501.787 349.739 502.199 349.672 502.611 349.599C502.835 349.559 503.511 349.486 502.616 349.591C502.908 349.557 503.2 349.522 503.492 349.491C505.384 349.293 507.286 349.199 509.177 348.984C513.355 348.51 517.951 347.556 520.272 343.629C522.537 339.797 521.471 335.011 520.521 330.954C520.291 329.974 520.051 328.996 519.834 328.013C519.733 327.556 519.636 327.098 519.548 326.638C519.5 326.388 519.461 326.137 519.413 325.887C519.225 324.895 519.424 326.313 519.361 325.555C519.291 324.717 519.267 323.904 519.297 323.064C519.325 322.295 519.289 323.301 519.258 323.286C519.217 323.264 519.409 322.61 519.423 322.551C519.443 322.468 519.518 322.14 519.568 322.104C519.343 322.609 519.291 322.732 519.412 322.472C519.46 322.367 519.511 322.264 519.566 322.162C519.769 321.812 519.98 321.479 520.202 321.141C520.549 320.611 520.143 321.217 520.077 321.294C520.219 321.13 520.355 320.96 520.499 320.797C521.141 320.067 521.845 319.393 522.565 318.741C523.955 317.482 525.419 316.308 526.814 315.053C529.764 312.399 532.493 309.163 532.585 305C532.628 303.046 530.837 301.177 528.852 301.266C526.792 301.359 525.165 302.906 525.118 305L525.119 305Z" fill="#C96868"/>
<circle cx="465.664" cy="305" r="33.6095" fill="#C96868"/>
<path d="M389.859 381.406C381.492 377.489 373.124 373.573 364.757 369.656C351.52 363.461 338.283 357.265 325.046 351.07C322.014 349.651 318.983 348.232 315.951 346.813C314.186 345.986 311.843 346.259 310.843 348.152C309.97 349.806 310.294 352.376 312.183 353.26C320.55 357.176 328.918 361.093 337.285 365.009C350.522 371.205 363.759 377.4 376.996 383.596C380.027 385.015 383.059 386.434 386.091 387.853C387.856 388.679 390.199 388.406 391.199 386.513C392.072 384.86 391.748 382.289 389.859 381.406Z" fill="#302D27"/>
<path d="M375.077 412.987C366.71 409.07 358.342 405.154 349.974 401.237C336.738 395.042 323.501 388.846 310.264 382.651C307.232 381.232 304.201 379.813 301.169 378.394C299.404 377.568 297.061 377.84 296.061 379.733C295.187 381.387 295.512 383.957 297.4 384.841C305.768 388.757 314.135 392.674 322.503 396.59C335.74 402.786 348.977 408.981 362.214 415.177C365.245 416.596 368.277 418.015 371.309 419.434C373.074 420.26 375.416 419.987 376.416 418.095C377.29 416.441 376.965 413.87 375.077 412.987Z" fill="#302D27"/>
<path d="M360.296 444.568C351.928 440.651 343.561 436.735 335.193 432.818C321.956 426.623 308.719 420.427 295.483 414.232C292.451 412.813 289.419 411.394 286.388 409.975C284.622 409.149 282.28 409.421 281.28 411.314C280.406 412.968 280.731 415.538 282.619 416.422C290.987 420.338 299.354 424.255 307.722 428.171C320.959 434.367 334.196 440.562 347.432 446.758C350.464 448.177 353.496 449.596 356.527 451.015C358.293 451.841 360.635 451.568 361.635 449.676C362.509 448.022 362.184 445.451 360.296 444.568Z" fill="#302D27"/>
<path d="M638.349 952.64C624.114 943.257 614.231 928.585 608.639 912.646C602.665 895.619 603.646 878.274 604.771 860.559C605.339 851.614 605.886 842.611 605.163 833.658C604.557 826.152 603.512 817.545 599.292 811.107C591.258 798.847 573.423 795.096 563.41 807.169C553.083 819.623 560.886 836.106 575.78 839.659C584.764 841.802 593.947 839.252 602.281 835.89C609.775 832.866 617.018 829.27 623.909 825.046C650.934 808.481 671.519 783.784 689.374 758.006C730.375 698.808 764.852 635.475 787.638 567.007C799.41 531.635 808.21 495.27 813.807 458.411C816.638 439.774 818.689 421.018 819.882 402.204C820.733 388.785 823.944 370.285 814.803 358.808C808.006 350.274 793.611 349.039 788.263 359.667C783.692 368.751 785.725 381.282 792.814 388.475C802.308 398.109 816.171 402.916 827.703 409.54C840.284 416.767 850.716 428.343 859.609 439.651C898.544 489.156 908.031 558.363 885.381 616.882C867.382 663.384 830.209 698.265 786.092 720.098C739.911 742.952 687.659 752.674 636.472 754.567C582.737 756.555 529.269 749.573 477.999 733.324C440.664 721.492 404.787 705.557 369.887 687.874C352.666 679.149 335.667 669.994 318.776 660.649C310.107 655.853 301.465 651.005 292.835 646.138C285.274 641.874 277.186 637.999 270.17 632.856C264.882 628.98 259.129 622.389 262.869 615.568C265.844 610.142 273.235 606.967 278.848 610.139C283.099 612.54 286.491 606.424 282.617 603.691C276.972 599.71 274.671 591.382 278.02 585.209C281.43 578.924 289.221 576.509 295.79 578.684C299.99 580.075 302.026 574.122 298.667 571.861C292.951 568.014 290.474 559.764 293.822 553.568C297.223 547.272 305.057 544.992 311.562 547.282C315.578 548.696 318.101 542.488 314.439 540.458C308.168 536.983 306.676 528.368 309.923 522.256C315.296 512.14 329.073 517.272 336.891 521.024C359.354 531.804 381.418 543.51 403.654 554.753C406.366 556.124 408.944 554.383 409.272 551.529C410.86 537.68 414.002 516.942 431.264 514.634C446.619 512.582 448.358 530.988 448.814 541.811C449.368 554.995 450.423 567.243 456.466 579.237C462.463 591.136 471.812 601.038 482.333 609.068C505.95 627.092 535.504 635.641 564.738 638.467C597.49 641.634 631.737 636.481 660.503 619.922C685.01 605.814 705.247 583.875 715.344 557.292C725.254 531.199 723.542 501.31 710.9 476.436C704.748 464.332 695.887 453.723 684.925 445.7C672.174 436.367 656.944 431.082 641.864 426.87C626.429 422.558 610.729 419.186 595.739 413.413C581.186 407.808 567.364 400.247 554.641 391.242C530.018 373.813 510.548 350.657 496.189 324.239C482.921 299.828 473.603 273.556 464.258 247.469C446.312 197.368 426.936 143.329 381.544 111.398C333.42 77.5449 265.917 76.6936 215.837 106.768C165.659 136.902 134.311 193.442 132.73 251.611C131.004 315.071 161.933 375.243 210.555 415.021C234.986 435.008 262.814 450.215 291.887 462.298C306.436 468.345 321.405 474.002 336.596 478.228C348.364 481.501 365.684 482.673 370.952 468.751C374.321 459.847 370.818 448.465 360.373 447.375V454.841C380.315 456.446 392.632 427.848 378.175 414.265L374.543 420.505C384.29 422.501 394.852 418.053 399.264 408.857C403.588 399.844 400.678 388.383 392.825 382.315L389.192 388.555C398.931 391.613 409.64 385.965 413.73 376.817C418.128 366.981 412.713 357.176 404.859 351.082C394.787 343.268 381.882 338.73 370.446 333.329C356.367 326.68 342.287 320.031 328.207 313.382L328.963 319.245C336.301 311.462 343.941 303.153 347.023 292.648C349.481 284.27 348.171 274.562 342.758 267.584C337.379 260.651 328.547 258.242 320.238 260.839C311.423 263.594 304.533 270.175 296.557 274.544C287.818 279.332 278.495 278.963 270.383 272.923C260.909 265.869 257.26 254.396 257.645 242.946C258.323 222.801 269.118 202.598 281.936 187.482C305.859 159.271 341.772 142.692 378.089 138.087C418.637 132.945 459.13 144.022 494.9 162.849C533.855 183.352 568.449 213.04 594.944 248.181C601.036 256.26 606.126 264.893 611.807 273.229C618.778 283.458 627.74 292.761 636.383 301.583C645.128 310.51 654.545 318.448 664.448 326.049C673.944 333.336 682.568 341.335 691.637 349.119C705.061 360.643 721.134 368.749 738.969 370.128C755.054 371.372 770.902 365.715 780.464 352.32C786.456 343.926 788.839 333.556 792.069 323.928C795.801 312.804 801.084 303.94 810.422 296.634C818.454 290.349 827.009 284.946 833.174 276.635C839.56 268.027 843.026 257.565 844.311 247.002C846.922 225.55 840.757 203.095 830.984 184.118C821.393 165.496 807.14 148.075 789.368 136.739C773.055 126.332 753.631 122.568 734.651 126.376C714.792 130.36 697.044 141.975 682.767 156.001C669.857 168.682 657.765 183.852 649.522 200.038C644.452 209.993 640.727 221.158 641.642 232.47C643.11 250.606 655.578 263.845 664.649 278.659C669.411 286.438 673.128 294.894 674.03 304.059C675.255 316.516 671.899 328.958 666.962 340.303C660.451 355.264 653.11 369.984 643.273 384.533C622.475 415.296 594.723 441.317 562.565 459.903C520.905 483.98 473.256 493.312 425.505 489.621C395.223 487.281 364.727 486.77 334.413 488.802C299.5 491.141 263.893 496.555 231.399 510.046C216.286 516.321 201.896 524.375 189.501 535.14C175.196 547.564 161.555 561.158 149.368 575.672C123.91 605.99 104.83 640.821 90.6458 677.686C83.0238 697.497 76.8059 717.815 71.4647 738.351C70.2543 743.004 77.4541 744.99 78.6646 740.336C89.154 700.007 103.154 660.359 124.252 624.274C133.995 607.61 145.181 591.805 157.833 577.219C164.328 569.732 171.183 562.56 178.355 555.719C184.46 549.895 190.537 543.87 197.049 538.501C222.961 517.135 257.113 507.22 289.63 501.518C322.914 495.681 356.969 494.357 390.701 495.27C404.578 495.646 418.38 496.73 432.229 497.582C455.752 499.03 479.521 497.033 502.468 491.656C545.147 481.656 584.363 459.423 615.746 428.93C635.311 409.919 652.222 387.621 664.527 363.228C672.67 347.087 681.098 329.713 681.715 311.389C682.38 291.655 672.224 276.286 661.553 260.702C656.94 253.966 652.425 246.96 650.287 238.996C647.779 229.656 649.241 220.143 652.635 211.218C658.545 195.677 669.434 181.904 680.277 169.534C693.835 154.066 710.807 140.623 730.877 134.966C749.676 129.667 769.147 132.71 785.6 143.186C803.844 154.802 817.992 173.407 826.971 192.871C835.898 212.223 840.979 235.88 834.729 256.761C831.578 267.288 825.454 275.739 816.889 282.51C808.755 288.941 799.888 294.34 793.755 302.922C782.365 318.863 783.729 342.498 767.648 355.215C755.004 365.215 737.217 364.108 722.787 359.146C702.836 352.285 689.537 335.873 673.22 323.421C653.182 308.13 635.096 291.193 619.605 271.223C616.514 267.238 614.121 262.658 611.33 258.449C608.162 253.67 604.844 248.99 601.392 244.412C595.236 236.248 588.699 228.377 581.775 220.852C567.245 205.06 551.096 190.772 533.706 178.201C500.027 153.854 460.591 135.492 419.047 130.463C382.905 126.089 344.835 133.732 313.313 151.988C282.011 170.115 253.542 202.48 250.364 239.907C248.702 259.473 258.879 281.65 280.093 285.107C289.463 286.634 297.694 282.927 305.372 277.918C312.006 273.59 319.907 266.346 328.425 267.285C337.687 268.305 341.651 278.869 340.628 287.046C339.282 297.809 330.756 306.463 323.683 313.965C322.162 315.578 322.182 318.763 324.439 319.829C346.264 330.136 368.284 340.113 389.936 350.779C397.095 354.306 407.177 359.604 407.884 368.671C408.547 377.172 398.912 383.783 391.178 381.355C387.819 380.3 384.524 385.26 387.545 387.594C392.725 391.596 395.452 398.565 392.89 404.897C390.342 411.193 383.03 414.636 376.528 413.305C373.076 412.598 370.011 416.835 372.896 419.545C382.818 428.867 373.78 448.454 360.373 447.375C355.548 446.986 355.663 454.35 360.373 454.841C364.82 455.305 365.181 461.391 364.403 464.705C362.842 471.352 356.059 473.208 349.91 473.038C342.401 472.831 335.032 470.028 327.973 467.707C320.892 465.379 313.859 462.905 306.889 460.263C278.338 449.442 250.69 435.673 225.999 417.605C201.513 399.685 180.382 377.235 165.418 350.754C150.377 324.137 141.419 293.97 140.258 263.379C138.109 206.754 164.982 150.104 212.146 117.992C259.369 85.8394 324.491 83.5776 372.935 114.596C418.306 143.646 438.035 196.434 455.403 244.834C464.314 269.666 473.03 294.676 484.744 318.363C497.052 343.248 513.137 366.007 534.056 384.411C556.26 403.944 582.513 418.13 610.904 426.32C639.373 434.532 671.119 439.028 692.084 462.083C710.165 481.966 717.601 511.051 713.088 537.359C708.409 564.639 691.473 588.801 669.464 605.13C643.917 624.083 612.335 632.244 580.786 631.879C551.325 631.539 520.817 624.821 495.585 609.163C484.61 602.352 474.45 593.665 467.235 582.86C460.027 572.064 456.987 560.385 456.49 547.526C456.064 536.496 456.507 523.272 448.92 514.322C440.504 504.395 426.381 505.674 416.88 513.259C405.389 522.433 403.373 537.857 401.805 551.529L407.422 548.306C392.996 541.011 378.57 533.717 364.143 526.423C357.179 522.902 350.23 519.348 343.25 515.859C337.35 512.909 331.262 510.063 324.665 509.169C314.266 507.758 304.328 512.716 301.577 523.264C299.258 532.15 302.401 542.323 310.67 546.905L313.547 540.082C303.536 536.557 291.532 541.146 286.867 550.81C282.152 560.576 286.134 572.41 294.898 578.308L297.775 571.484C287.68 568.141 275.757 572.761 271.062 582.453C266.313 592.258 270.194 604.034 278.848 610.138L282.617 603.691C271.571 597.45 256.169 605.224 254.36 617.794C252.05 633.847 270.979 642.365 282.264 648.744C315.624 667.6 349.11 686.301 383.621 702.993C441.459 730.966 502.228 752.716 566.376 759.59C616.606 764.973 668.163 762.922 717.494 751.736C765.073 740.948 812.031 720.805 847.541 686.589C886.508 649.041 907.644 595.718 904.809 541.616C903.21 511.107 894.378 480.991 878.838 454.658C871.062 441.482 861.579 429.237 850.693 418.482C845.944 413.79 840.983 409.066 835.354 405.435C829.635 401.747 823.46 398.789 817.442 395.634C807.677 390.515 794.575 384.979 793.479 372.517C793.134 368.59 793.504 362.661 797.222 360.259C801.64 357.405 807.736 361.123 810.042 364.992C813.651 371.047 813.486 378.904 813.244 385.702C812.923 394.707 812.384 403.707 811.663 412.689C810.167 431.313 807.843 449.863 804.694 468.28C792.263 540.994 767.423 611.497 731.784 676.072C715.569 705.454 697.394 734.348 677.746 761.569C659.369 787.03 637.441 810.695 608.933 824.794C601.084 828.675 592.213 832.827 583.315 832.988C575.622 833.128 565.455 828.66 565.96 819.547C566.381 811.95 573.867 806.01 581.309 807.21C589.71 808.564 594.226 815.616 596.074 823.273C600.144 840.137 597.143 857.966 596.475 875.047C595.805 892.209 598.056 908.364 605.256 924.066C611.72 938.162 621.586 950.521 634.581 959.086C638.604 961.739 642.349 955.275 638.35 952.639L638.349 952.64Z" fill="#302D27"/>
<path d="M311.535 547.725C319.793 551.867 328.052 556.008 336.31 560.15C349.374 566.702 362.438 573.254 375.503 579.805C378.495 581.306 381.487 582.807 384.479 584.307C386.222 585.182 388.604 584.828 389.587 582.968C390.482 581.274 390.111 578.795 388.248 577.86C379.989 573.718 371.731 569.577 363.472 565.435C350.408 558.883 337.344 552.331 324.28 545.779C321.288 544.279 318.296 542.778 315.303 541.278C313.56 540.403 311.178 540.757 310.196 542.617C309.301 544.311 309.671 546.79 311.535 547.725Z" fill="#302D27"/>
<path d="M295.904 578.894C304.162 583.036 312.421 587.177 320.679 591.319C333.743 597.871 346.808 604.422 359.872 610.974C362.864 612.475 365.856 613.976 368.848 615.476C370.592 616.351 372.973 615.997 373.956 614.137C374.851 612.443 374.48 609.964 372.617 609.029C364.358 604.887 356.1 600.746 347.841 596.604C334.777 590.052 321.713 583.5 308.649 576.948C305.657 575.448 302.665 573.947 299.673 572.447C297.929 571.572 295.548 571.926 294.565 573.786C293.67 575.48 294.04 577.959 295.904 578.894Z" fill="#302D27"/>
<path d="M280.272 610.063C288.531 614.205 296.789 618.346 305.047 622.488C318.112 629.04 331.176 635.592 344.24 642.144C347.232 643.644 350.224 645.145 353.216 646.645C354.96 647.52 357.341 647.166 358.324 645.306C359.219 643.612 358.849 641.133 356.985 640.198C348.726 636.056 340.468 631.915 332.21 627.773C319.145 621.221 306.081 614.67 293.017 608.118C290.025 606.617 287.033 605.116 284.041 603.616C282.297 602.741 279.916 603.095 278.933 604.955C278.038 606.649 278.408 609.128 280.272 610.063Z" fill="#302D27"/>
<path d="M747.696 186.561C747.875 186.575 748.054 186.59 748.233 186.609C748.348 186.621 748.852 186.705 748.32 186.614C748.639 186.669 748.958 186.719 749.275 186.784C749.943 186.921 750.603 187.097 751.252 187.31C751.594 187.421 751.928 187.55 752.266 187.675C752.708 187.837 752.104 187.59 752.367 187.714C752.53 187.791 752.695 187.861 752.858 187.939C753.475 188.232 754.075 188.559 754.657 188.918C754.932 189.088 755.203 189.265 755.47 189.448C755.618 189.55 755.764 189.655 755.909 189.761C755.99 189.82 756.376 190.138 756.005 189.83C756.532 190.267 757.048 190.709 757.534 191.192C758.018 191.674 758.469 192.184 758.901 192.714C758.679 192.441 758.851 192.647 758.97 192.809C759.076 192.954 759.18 193.1 759.281 193.248C759.485 193.545 759.677 193.849 759.863 194.156C760.538 195.27 762.126 195.786 763.268 195.049C764.387 194.328 764.883 192.835 764.161 191.644C760.642 185.835 754.441 182.117 747.696 181.583C746.395 181.48 745.15 182.801 745.207 184.072C745.271 185.508 746.302 186.45 747.696 186.561H747.696Z" fill="#302D27"/>
<path d="M704.071 154.84C706.498 154.419 708.918 156.493 710.538 158.055C712.641 160.081 714.453 162.351 715.728 164.99C717.021 167.667 717.84 170.953 717.568 173.941C717.315 176.713 715.036 177.983 712.552 178.563C709.037 179.383 705.294 178.876 701.755 178.478C698.175 178.075 694.583 177.677 690.995 178.217C687.805 178.696 684.621 180.345 683.201 183.383C681.59 186.829 682.987 189.983 685.277 192.678C689.972 198.203 696.545 202.136 703.553 203.905C706.659 204.69 707.985 199.89 704.876 199.105C698.742 197.556 693.222 194.218 689.05 189.451C688.309 188.604 687.31 187.507 687.431 186.296C687.532 185.282 688.374 184.461 689.191 183.966C691.955 182.29 696.023 182.867 699.062 183.163C705.699 183.811 713.837 185.424 719.421 180.654C722.24 178.245 722.83 174.579 722.463 171.058C722.108 167.664 721.12 164.398 719.472 161.404C717.801 158.372 715.388 155.535 712.716 153.332C709.825 150.949 706.559 149.379 702.747 150.04C701.422 150.27 700.677 151.896 701.009 153.102C701.394 154.502 702.741 155.07 704.07 154.84L704.071 154.84Z" fill="#302D27"/>
<path d="M731.544 118.181C729.353 110.286 731.282 101.613 735.568 94.6306C739.855 87.6486 746.312 82.2164 753.311 77.9575C765.741 70.3942 780.404 66.2067 794.914 67.2777C809.424 68.3487 823.674 74.9151 833.051 86.0401C838.203 92.1521 841.886 99.7362 842.252 107.721C842.619 115.706 839.327 124.039 832.848 128.721C830.712 130.265 828.159 131.419 825.527 131.271C822.896 131.124 820.245 129.399 819.635 126.835C818.989 124.117 820.692 121.385 822.697 119.439C831.845 110.565 846.649 111.564 858.876 115.161C872.081 119.046 884.595 125.265 895.664 133.445C910.827 144.65 923.798 160.918 924.872 179.74C926.091 201.114 909.586 222.078 888.523 225.909C881.364 227.21 873.326 226.491 867.864 221.684C866.323 220.328 864.982 218.548 864.841 216.5C864.633 213.471 867.221 210.792 870.142 209.965C873.062 209.138 876.191 209.761 879.098 210.637C889.222 213.687 898.512 219.962 904.335 228.788C921.298 254.503 893.569 288.881 864.817 285.335C860.497 284.803 855.258 282.101 855.92 277.8C856.17 276.179 857.282 274.802 858.596 273.822C865.021 269.034 875.206 273.933 877.656 281.562C880.106 289.191 876.585 297.641 871.213 303.586C860.443 315.504 841.876 319.587 827.101 313.286C821.029 310.697 815.655 306.581 809.417 304.423C802.312 301.965 794.596 302.212 787.083 302.487C799.804 292.052 810.201 278.799 817.307 263.96C819.824 258.705 821.944 252.58 819.758 247.18C818.238 243.428 814.831 240.707 811.137 239.052C804.121 235.908 795.24 236.386 789.414 241.402C783.588 246.418 782.051 256.194 787.045 262.04C783.315 263.359 778.993 261.967 776.109 259.259C773.225 256.551 771.608 252.73 770.754 248.868C768.974 240.816 770.282 232.122 774.352 224.95C777.832 218.819 783.126 213.946 787.326 208.283C796.115 196.433 799.709 179.814 793.053 166.647C788.838 158.31 781.048 152.219 772.569 148.297C764.503 144.565 754.05 144.245 746.912 138.958C740.557 134.25 733.657 125.791 731.544 118.181H731.544Z" fill="#302D27"/>
<path d="M735.144 117.188C733.662 111.665 734.44 105.392 736.824 100.199C739.398 94.592 742.984 90.4472 747.731 86.4509C749.8 84.7088 752.241 82.9989 754.852 81.3916C757.669 79.6573 760.596 78.0999 763.611 76.7389C766.108 75.6115 769.131 74.496 772.036 73.6251C775.207 72.6744 778.444 71.94 781.718 71.4464C784.333 71.0522 787.947 70.817 791.033 70.8487C792.588 70.8647 794.142 70.9384 795.691 71.0737C796.339 71.1304 796.984 71.2023 797.63 71.2761C798.893 71.4204 796.929 71.1537 798.185 71.3515C798.699 71.4325 799.213 71.5113 799.726 71.6016C802.547 72.098 805.332 72.8017 808.05 73.7046C811.075 74.7091 812.959 75.5129 815.761 76.9903C825.956 82.3654 834.862 91.3121 837.734 102.617C838.471 105.518 838.716 107.853 838.462 111.047C838.442 111.294 838.416 111.539 838.393 111.786C838.281 112.974 838.544 111.089 838.327 112.263C838.203 112.933 838.082 113.6 837.921 114.262C837.761 114.922 837.577 115.576 837.366 116.222C837.251 116.573 837.13 116.923 837 117.269C836.994 117.283 836.554 118.351 836.819 117.744C835.604 120.518 834.365 122.34 832.454 124.194C832.192 124.449 831.922 124.697 831.646 124.938C831.717 124.876 830.794 125.642 831.173 125.344C831.568 125.033 830.497 125.824 830.623 125.738C830.278 125.975 829.924 126.201 829.562 126.412C828.391 127.093 827.143 127.559 825.942 127.551C825.998 127.551 824.803 127.403 825.338 127.522C825.883 127.643 824.786 127.351 824.821 127.359C823.942 127.15 825.193 127.685 824.436 127.194C824.37 127.151 823.477 126.51 824.058 127.003C823.882 126.854 823.731 126.692 823.565 126.535L823.34 126.282C823.584 126.591 823.588 126.566 823.351 126.209L823.197 125.91C823.359 126.281 823.372 126.259 823.235 125.843C823.15 126.677 823.289 124.872 823.224 125.4C823.307 124.73 823.939 123.584 824.502 122.959C825.014 122.391 825.552 121.855 826.127 121.349C826.393 121.115 826.664 120.886 826.943 120.666C826.45 121.055 827.204 120.485 827.314 120.409C828.36 119.679 829.468 119.041 830.62 118.494C830.68 118.466 831.727 118.013 830.998 118.312C831.319 118.18 831.644 118.057 831.971 117.939C832.627 117.703 833.293 117.493 833.966 117.307C835.214 116.963 836.486 116.702 837.768 116.518C836.954 116.635 838.126 116.484 838.196 116.476C838.434 116.452 838.673 116.43 838.912 116.41C839.754 116.339 840.599 116.297 841.445 116.281C842.79 116.256 844.137 116.294 845.48 116.386C846.096 116.429 846.71 116.483 847.324 116.547C847.693 116.586 848.062 116.629 848.43 116.674C847.718 116.586 848.769 116.723 848.91 116.745C851.705 117.168 854.47 117.788 857.189 118.56C863.463 120.34 869.322 122.59 875.015 125.342C880.95 128.211 886.646 131.575 892.02 135.393C892.611 135.813 893.197 136.238 893.78 136.669C894.088 136.896 894.394 137.125 894.699 137.356C894.679 137.341 895.672 138.109 895.16 137.708C896.375 138.659 897.568 139.637 898.735 140.645C900.885 142.502 902.952 144.455 904.915 146.509C909.061 150.848 912.154 154.842 915.123 160.159C916.589 162.784 917.653 165.094 918.516 167.487C919.451 170.079 920.176 172.748 920.656 175.462C920.722 175.834 920.779 176.207 920.839 176.579C921.037 177.795 920.774 175.86 920.908 177.087C920.976 177.717 921.042 178.346 921.089 178.979C921.194 180.396 921.227 181.817 921.182 183.238C921.141 184.514 921.041 185.79 920.878 187.057C920.974 186.308 920.741 187.879 920.696 188.128C920.554 188.927 920.389 189.722 920.2 190.511C919.904 191.753 919.554 192.981 919.152 194.192C918.969 194.743 918.775 195.291 918.57 195.834C918.448 196.161 918.317 196.484 918.191 196.809C917.877 197.622 918.353 196.477 918.027 197.203C916.926 199.652 915.665 202.013 914.185 204.255C913.8 204.839 913.401 205.415 912.99 205.982C912.853 206.171 912.713 206.358 912.575 206.546C911.898 207.472 913.024 206.007 912.305 206.9C911.425 207.992 910.518 209.056 909.554 210.074C908.672 211.006 907.753 211.902 906.799 212.759C906.366 213.149 905.926 213.53 905.479 213.903C905.21 214.127 904.938 214.344 904.667 214.565C904.325 214.833 904.301 214.853 904.596 214.624C904.411 214.765 904.224 214.904 904.037 215.042C901.98 216.557 899.797 217.899 897.511 219.039C896.888 219.35 896.256 219.639 895.621 219.924C894.606 220.38 896.012 219.773 895.391 220.02C895.122 220.128 894.853 220.235 894.581 220.338C893.278 220.833 891.95 221.263 890.603 221.621C889.341 221.957 888.07 222.201 886.787 222.436C885.582 222.656 887.498 222.374 886.277 222.512C886.024 222.54 885.772 222.569 885.519 222.593C884.633 222.678 883.743 222.73 882.852 222.744C882.216 222.754 881.58 222.745 880.945 222.716C880.565 222.699 880.186 222.674 879.807 222.641C879.779 222.639 878.541 222.505 879.295 222.604C877.875 222.417 876.464 222.081 875.108 221.624C874.815 221.525 874.526 221.418 874.236 221.309C873.156 220.903 874.791 221.635 873.77 221.1C873.224 220.813 872.674 220.542 872.146 220.221C871.829 220.028 871.526 219.817 871.216 219.613C870.27 218.993 871.643 220.04 870.789 219.289C870.213 218.783 869.612 218.268 869.148 217.653C869.527 218.156 868.838 217.111 868.855 217.136C868.298 216.272 868.959 217.595 868.64 216.63C868.605 216.524 868.518 215.925 868.574 216.5C868.558 216.328 868.706 215.336 868.534 216.125C868.557 216.021 868.918 215.019 868.595 215.731C868.713 215.47 868.866 215.227 869.02 214.986C869.331 214.5 868.444 215.475 869.192 214.786C869.353 214.614 869.523 214.451 869.699 214.295C869.399 214.502 869.428 214.48 869.787 214.23C870.09 214.039 870.39 213.858 870.71 213.696C870.557 213.773 870.109 213.863 870.799 213.668C871.681 213.419 871.977 213.332 872.815 213.313C874.55 213.273 875.902 213.598 877.667 214.107C878.992 214.489 880.299 214.933 881.586 215.426C882.849 215.909 883.665 216.268 885.131 216.999C890.579 219.713 894.723 222.813 898.675 227.425C899.636 228.547 899.979 228.987 900.897 230.351C901.615 231.418 902.276 232.522 902.866 233.664C903.137 234.189 903.383 234.723 903.634 235.257C904.083 236.208 903.381 234.554 903.752 235.532C903.826 235.728 903.905 235.922 903.979 236.118C904.414 237.277 904.779 238.462 905.068 239.665C905.211 240.256 905.336 240.852 905.442 241.452C905.478 241.65 905.506 241.85 905.542 242.049C905.723 243.05 905.471 241.242 905.573 242.252C905.693 243.447 905.78 244.638 905.78 245.841C905.78 246.936 905.723 248.03 905.611 249.119C905.581 249.416 905.546 249.713 905.508 250.009C905.525 249.882 905.636 249.204 905.514 249.904C905.395 250.592 905.277 251.279 905.127 251.962C904.652 254.12 903.976 256.236 903.122 258.274C903.475 257.431 903.071 258.371 903.014 258.496C902.888 258.773 902.759 259.049 902.627 259.324C902.406 259.782 902.176 260.237 901.938 260.687C901.365 261.773 900.743 262.833 900.077 263.865C899.462 264.817 898.808 265.742 898.124 266.646C898.615 265.997 897.719 267.142 897.549 267.347C897.086 267.906 896.609 268.453 896.12 268.989C894.537 270.721 892.816 272.297 891.004 273.786C890.857 273.907 890.295 274.337 890.899 273.876C890.651 274.065 890.401 274.253 890.148 274.437C889.728 274.744 889.303 275.044 888.872 275.336C887.84 276.036 886.778 276.693 885.69 277.303C884.694 277.861 883.677 278.379 882.639 278.854C882.357 278.984 882.072 279.109 881.788 279.233C882.606 278.877 881.651 279.284 881.531 279.331C880.955 279.559 880.372 279.774 879.785 279.975C877.534 280.745 875.221 281.293 872.868 281.642C873.789 281.506 872.25 281.7 872.01 281.721C871.39 281.775 870.768 281.814 870.146 281.835C868.999 281.875 867.849 281.857 866.704 281.781C866.389 281.76 866.075 281.735 865.761 281.705C865.618 281.691 864.569 281.552 865.499 281.694C864.968 281.613 864.442 281.509 863.922 281.376C863.284 281.212 862.65 281.012 862.041 280.761C862.717 281.039 862.047 280.754 861.887 280.664C861.558 280.479 861.224 280.312 860.906 280.11C860.782 280.031 860.009 279.399 860.653 279.963C860.427 279.765 860.221 279.543 859.996 279.348C859.843 279.215 859.617 278.804 860.023 279.433C859.868 279.193 859.728 278.953 859.583 278.708C860.028 279.46 859.666 278.792 859.578 278.551C859.837 279.259 859.576 278.925 859.599 278.55C859.611 278.361 859.587 277.697 859.593 278.423C859.734 277.998 859.736 277.945 859.6 278.262C859.711 278.037 859.837 277.82 859.976 277.611C859.622 278.137 860.349 277.219 860.367 277.202C860.547 277.026 860.739 276.851 860.937 276.695C860.358 277.153 861.165 276.58 861.238 276.536C861.495 276.381 861.761 276.251 862.025 276.11C862.628 275.787 862.077 276.099 861.945 276.141C862.224 276.052 862.496 275.951 862.779 275.875C863.061 275.799 863.347 275.751 863.631 275.685C862.691 275.903 863.689 275.686 863.941 275.673C864.482 275.646 865.014 275.679 865.555 275.708C866.523 275.76 864.792 275.506 865.739 275.741C865.932 275.789 866.131 275.821 866.325 275.867C866.917 276.008 867.486 276.203 868.058 276.405C868.993 276.734 867.418 276.037 868.291 276.515C868.561 276.662 868.842 276.791 869.111 276.942C869.654 277.246 870.168 277.589 870.675 277.947C870.022 277.485 871.177 278.387 871.355 278.554C871.811 278.981 872.223 279.441 872.632 279.912C872.741 280.038 873.017 280.478 872.617 279.892C872.849 280.233 873.083 280.57 873.294 280.925C873.554 281.367 873.794 281.824 873.997 282.295C873.642 281.471 874.014 282.425 874.057 282.555C874.176 282.921 874.279 283.293 874.371 283.668C874.462 284.039 874.533 284.414 874.604 284.79C874.623 284.891 874.685 285.518 874.625 284.926C874.714 285.807 874.739 286.692 874.698 287.576C874.686 287.828 874.67 288.081 874.648 288.333C874.645 288.363 874.471 289.584 874.593 288.853C874.466 289.61 874.304 290.361 874.102 291.102C873.932 291.725 873.735 292.341 873.515 292.948C873.525 292.921 873.066 294.111 873.315 293.507C873.166 293.869 872.996 294.224 872.825 294.576C871.465 297.383 870.02 299.42 868.089 301.471C866.043 303.645 864.5 304.921 862.321 306.359C861.233 307.076 860.109 307.739 858.955 308.344C858.43 308.619 857.898 308.883 857.362 309.134C857.039 309.285 856.715 309.431 856.389 309.575C857.039 309.289 855.755 309.828 855.634 309.875C853.195 310.815 850.666 311.519 848.093 311.982C847.742 312.046 847.39 312.099 847.038 312.158C845.887 312.352 847.779 312.093 846.618 312.216C846.027 312.278 845.437 312.342 844.845 312.385C843.425 312.49 841.999 312.521 840.576 312.475C839.924 312.454 839.273 312.417 838.624 312.364C838.329 312.34 838.033 312.312 837.739 312.282C837.665 312.274 836.501 312.127 837.321 312.241C835.914 312.045 834.517 311.763 833.143 311.405C830.255 310.653 828.306 309.839 825.872 308.591C819.797 305.477 814.121 301.569 807.392 299.942C800.746 298.336 793.863 298.506 787.083 298.754C787.963 300.878 788.843 303.003 789.723 305.127C797.027 299.113 803.49 292.212 809.15 284.637C811.899 280.957 814.426 277.112 816.708 273.126C819.146 268.867 821.511 264.412 823.057 259.742C824.701 254.777 824.997 249.425 822.685 244.625C820.716 240.536 816.774 237.461 812.686 235.681C804.224 231.997 793.934 232.567 786.775 238.762C783.091 241.95 781.002 246.64 780.439 251.41C779.869 256.243 781.311 260.953 784.405 264.68C784.954 262.6 785.503 260.52 786.052 258.44C785.699 258.557 785.347 258.643 784.989 258.741C784.017 259.007 785.539 258.809 784.533 258.798C784.169 258.794 783.802 258.795 783.437 258.792C782.389 258.784 783.993 258.989 782.972 258.732C782.612 258.641 782.252 258.566 781.896 258.456C781.879 258.451 780.746 258.029 781.395 258.305C780.705 258.011 780.067 257.614 779.443 257.203C778.54 256.61 779.798 257.617 779.023 256.869C778.744 256.6 778.457 256.344 778.189 256.063C777.514 255.356 777.515 255.346 777.066 254.666C776.63 254.009 776.242 253.32 775.894 252.612C775.538 251.887 775.523 251.842 775.21 250.936C773.11 244.862 773.231 238.565 775.13 232.47C777.04 226.337 781.153 221.471 785.417 216.506C789.907 211.278 793.829 205.92 796.503 199.533C801.453 187.707 801.854 173.599 794.968 162.427C791.537 156.86 786.668 152.33 781.208 148.787C775.819 145.29 769.969 143.105 763.781 141.497C760.41 140.62 757.055 139.751 753.791 138.523C752.655 138.096 754.391 138.822 753.294 138.317C752.842 138.109 752.391 137.9 751.947 137.673C751.288 137.335 750.642 136.969 750.016 136.571C748.524 135.622 747.906 135.085 746.402 133.717C741.346 129.117 736.909 123.348 735.145 117.189C734.589 115.251 732.51 114.043 730.552 114.581C728.617 115.113 727.387 117.228 727.945 119.174C729.857 125.849 734.082 131.843 738.856 136.793C741.078 139.097 743.542 141.297 746.247 143.018C749.053 144.803 752.248 146.002 755.416 146.966C758.393 147.872 761.428 148.566 764.425 149.398C767.723 150.313 770.024 151.129 772.76 152.532C778.421 155.434 783.008 158.731 786.923 163.828C786.521 163.304 787.265 164.306 787.254 164.291C787.476 164.601 787.692 164.915 787.903 165.232C788.326 165.868 788.728 166.518 789.105 167.182C790.022 168.797 790.442 169.7 790.96 171.148C791.428 172.455 791.809 173.792 792.105 175.149C792.265 175.887 792.401 176.631 792.512 177.379C792.401 176.628 792.564 177.858 792.567 177.887C792.619 178.39 792.66 178.893 792.691 179.397C792.784 180.916 792.781 182.441 792.689 183.96C792.571 185.928 792.485 186.539 792.147 188.295C791.562 191.333 790.668 194.342 789.454 197.19C789.713 196.583 789.198 197.75 789.209 197.726C789.047 198.08 788.882 198.432 788.712 198.783C788.373 199.483 788.016 200.175 787.643 200.858C786.838 202.332 785.956 203.764 785.001 205.146C783.258 207.665 781.182 210.007 779.031 212.512C774.262 218.066 769.933 223.772 767.808 230.885C765.562 238.402 765.576 247.095 768.578 254.407C770.179 258.307 772.636 261.839 776.303 264.056C779.768 266.151 784.148 266.922 788.037 265.64C790.859 264.711 791.503 261.59 789.685 259.4C789.225 258.847 789.579 259.264 789.662 259.383C789.538 259.206 789.415 259.029 789.298 258.846C789.094 258.528 788.921 258.196 788.736 257.868C788.656 257.728 788.594 257.579 788.522 257.435C788.833 258.057 788.579 257.595 788.524 257.44C788.383 257.035 788.242 256.632 788.13 256.218C788.018 255.802 787.935 255.383 787.854 254.96C787.841 254.892 787.784 254.364 787.829 254.816C787.877 255.31 787.819 254.623 787.814 254.507C787.776 253.686 787.786 252.883 787.836 252.063C787.879 251.34 787.84 251.924 787.818 252.077C787.85 251.86 787.887 251.643 787.928 251.428C788 251.05 788.086 250.674 788.184 250.302C788.282 249.929 788.392 249.56 788.516 249.195C788.598 248.951 789.047 247.923 788.747 248.549C789.105 247.802 789.486 247.074 789.941 246.38C790.057 246.204 790.65 245.416 790.229 245.935C790.54 245.551 790.867 245.182 791.214 244.83C791.484 244.555 791.774 244.304 792.055 244.042C792.119 243.982 792.6 243.592 792.152 243.94C792.295 243.829 792.445 243.725 792.593 243.621C793.383 243.067 794.219 242.583 795.09 242.169C795.253 242.092 795.416 242.015 795.582 241.944C795.03 242.179 795.599 241.946 795.694 241.914C796.095 241.782 796.49 241.636 796.896 241.516C797.301 241.396 797.711 241.288 798.124 241.194C798.36 241.14 798.597 241.091 798.835 241.046C798.919 241.03 799.856 240.879 799.419 240.94C799.024 240.995 799.62 240.92 799.648 240.918C799.891 240.896 800.134 240.873 800.377 240.856C800.804 240.828 801.232 240.813 801.66 240.809C802.089 240.805 802.518 240.813 802.947 240.834C803.192 240.846 803.437 240.862 803.682 240.882C803.655 240.88 804.688 240.984 804.285 240.935C803.852 240.882 804.609 240.988 804.701 241.003C804.883 241.034 805.064 241.067 805.245 241.102C805.728 241.197 806.207 241.307 806.683 241.432C807.572 241.666 808.447 241.954 809.301 242.295C809.876 242.525 808.859 242.087 809.421 242.352C809.587 242.431 809.755 242.507 809.921 242.588C810.365 242.805 810.802 243.036 811.23 243.284C811.605 243.5 811.973 243.729 812.333 243.97C812.488 244.073 812.639 244.18 812.792 244.284C813.745 244.935 812.559 244.069 813.064 244.488C813.774 245.077 814.42 245.721 815.029 246.413C815.037 246.421 815.402 246.89 815.19 246.606C814.952 246.286 815.383 246.9 815.428 246.968C815.695 247.374 815.939 247.795 816.156 248.23C816.422 248.762 816.676 249.585 816.854 250.585C816.772 250.122 816.915 251.289 816.921 251.445C816.948 252.072 816.924 252.693 816.887 253.32C816.889 253.282 816.831 253.968 816.864 253.661C816.903 253.3 816.785 254.153 816.775 254.213C816.687 254.704 816.582 255.193 816.462 255.678C816.184 256.802 815.827 257.906 815.422 258.99C814.137 262.424 812.039 266.281 810.056 269.714C807.999 273.275 805.747 276.724 803.315 280.041C800.823 283.439 797.821 287.012 794.675 290.327C791.465 293.709 788.043 296.883 784.444 299.847C781.925 301.921 784.01 306.332 787.083 306.22C794.562 305.947 801.848 305.644 808.831 308.166C811.736 309.215 814.972 311.089 817.94 312.765C821.118 314.56 824.332 316.28 827.765 317.543C839.492 321.859 853.196 320.264 863.971 314.108C869.6 310.892 874.573 306.318 877.952 300.763C881.547 294.853 883.456 287.328 881.257 280.57C879.391 274.836 874.429 270.269 868.602 268.74C862.415 267.117 854.17 269.557 852.393 276.438C850.581 283.455 857.835 288.084 863.825 288.935C869.422 289.731 875.188 289.218 880.592 287.558C891.156 284.312 900.318 277.1 906.356 267.892C912.252 258.9 914.886 247.617 912.119 237.086C908.869 224.714 898.555 214.864 887.148 209.72C880.834 206.873 872.066 203.501 865.728 207.987C862.433 210.319 860.4 214.173 861.348 218.247C862.205 221.926 865.265 224.772 868.378 226.669C874.348 230.305 881.649 230.721 888.398 229.694C894.349 228.788 900.144 226.482 905.218 223.261C915.563 216.695 923.46 206.3 926.869 194.515C930.495 181.978 928.19 168.77 922.115 157.388C915.892 145.729 906.148 136.249 895.434 128.695C883.756 120.462 870.271 113.969 856.346 110.618C844.228 107.702 829.59 107.475 820.057 116.8C817.176 119.618 814.978 123.702 816.035 127.828C816.957 131.425 820.248 134.151 823.849 134.797C831.391 136.151 838.31 130.202 841.921 124.127C845.259 118.513 846.573 111.718 845.768 105.257C844.834 97.7642 841.601 90.9389 836.99 85.0131C828.755 74.432 816.312 67.3521 803.246 64.6928C788.692 61.7303 773.714 64.1184 760.238 70.1144C747.384 75.8337 734.98 85.1273 729.498 98.4734C726.82 104.991 726.11 112.336 727.945 119.173C728.467 121.121 730.602 122.313 732.537 121.781C734.498 121.242 735.669 119.142 735.145 117.188H735.144Z" fill="#302D27"/>
<path d="M695.545 232.723C702.861 234.902 711.374 232.429 716.261 226.526C717.117 225.491 717.274 224.019 716.261 223.006C715.379 222.124 713.602 221.966 712.741 223.006C712.231 223.622 711.686 224.205 711.094 224.744C710.435 225.342 710.245 225.488 709.495 225.978C708.826 226.415 708.128 226.806 707.406 227.148C706.943 227.367 707.051 227.319 706.652 227.47C706.278 227.611 705.899 227.74 705.516 227.857C704.793 228.076 704.057 228.25 703.312 228.377C703.199 228.397 702.715 228.463 703.051 228.422C702.875 228.443 702.698 228.461 702.521 228.476C702.123 228.511 701.725 228.532 701.325 228.539C699.561 228.572 698.575 228.431 696.869 227.923C695.581 227.539 694.158 228.385 693.807 229.661C693.444 230.984 694.252 232.338 695.545 232.723Z" fill="#302D27"/>
<path d="M741.943 196.926C743.12 197.193 744.269 197.561 745.382 198.028L744.787 197.777C745.862 198.235 746.894 198.78 747.877 199.412C748.974 200.117 750.672 199.673 751.282 198.519C751.934 197.284 751.56 195.866 750.389 195.114C748.223 193.722 745.777 192.695 743.266 192.126C742.618 191.979 741.931 192.036 741.348 192.377C740.832 192.679 740.34 193.271 740.205 193.864C739.917 195.129 740.585 196.618 741.943 196.926H741.943Z" fill="#302D27"/>
<path d="M701.374 169.454C701.619 169.613 701.857 169.782 702.089 169.96L701.585 169.571C702.295 170.125 702.932 170.764 703.484 171.475L703.095 170.971C703.52 171.525 703.89 172.116 704.201 172.74C704.468 173.277 705.125 173.729 705.688 173.884C706.284 174.048 707.077 173.974 707.606 173.633C708.137 173.291 708.605 172.78 708.75 172.146L708.838 171.484C708.837 171.035 708.724 170.616 708.499 170.228C707.468 168.154 705.818 166.415 703.886 165.155C703.361 164.813 702.561 164.741 701.968 164.904C701.391 165.063 700.765 165.51 700.481 166.048C700.176 166.626 700.023 167.325 700.23 167.966C700.435 168.6 700.811 169.086 701.374 169.453L701.374 169.454Z" fill="#302D27"/>
<path d="M678.278 304.469C678.376 290.361 667.167 270.561 657.048 260.73C664.772 265.256 675.535 278.19 683.07 283.132C691.693 288.787 700.735 293.805 710.096 298.13C700.156 303.238 688.605 303.894 677.443 304.449" fill="#302D27"/>
<path d="M682.011 304.469C682.02 297.834 680.088 291.29 677.536 285.224C674.762 278.633 671.251 272.371 666.985 266.627C664.75 263.618 662.37 260.713 659.688 258.09C658.18 260.045 656.672 261.999 655.164 263.954C655.818 264.343 656.455 264.758 657.077 265.197C657.392 265.419 657.695 265.661 658.013 265.879C658.459 266.186 657.542 265.499 657.972 265.844C658.172 266.005 658.375 266.162 658.575 266.323C660.037 267.5 661.444 268.745 662.828 270.013C665.811 272.747 668.684 275.596 671.626 278.373C674.39 280.983 677.215 283.558 680.319 285.763C684.306 288.594 688.605 291.069 692.857 293.476C697.865 296.312 702.99 298.935 708.212 301.354V294.907C705.941 296.058 703.903 296.85 701.277 297.624C698.642 298.401 695.948 298.968 693.235 299.397C691.036 299.744 688.366 300.018 685.75 300.221C682.984 300.435 680.214 300.578 677.443 300.716C675.496 300.813 673.617 302.364 673.71 304.449C673.797 306.389 675.354 308.287 677.443 308.183C689.234 307.595 701.268 306.787 711.98 301.354C714.351 300.151 714.486 296.068 711.98 294.907C702.759 290.634 693.838 285.715 685.329 280.154C684.64 279.703 683.984 279.213 683.308 278.745C682.874 278.444 683.8 279.144 683.381 278.804C683.229 278.68 683.073 278.56 682.92 278.437C682.563 278.151 682.211 277.86 681.861 277.565C680.426 276.357 679.04 275.092 677.67 273.811C674.672 271.008 671.76 268.114 668.749 265.325C665.698 262.498 662.521 259.639 658.932 257.506C655.302 255.35 651.355 260.385 654.408 263.37C655.407 264.347 656.368 265.36 657.293 266.408C657.765 266.943 658.229 267.487 658.684 268.037C658.935 268.341 659.184 268.647 659.43 268.955C659.537 269.089 659.643 269.223 659.749 269.357C660.168 269.881 659.658 269.23 659.906 269.557C661.88 272.149 663.702 274.855 665.374 277.65C667.13 280.587 668.726 283.622 670.122 286.746C670.273 287.083 670.421 287.422 670.567 287.762C670.344 287.244 670.768 288.251 670.827 288.396C671.145 289.182 671.448 289.973 671.737 290.77C672.277 292.264 672.765 293.778 673.184 295.311C673.626 296.925 673.992 298.561 674.254 300.215C674.288 300.427 674.319 300.639 674.35 300.852C674.301 300.519 674.297 300.403 674.338 300.806C674.38 301.221 674.425 301.635 674.457 302.05C674.518 302.856 674.545 303.662 674.544 304.469C674.542 306.422 676.263 308.292 678.278 308.202C680.303 308.112 682.008 306.562 682.011 304.469L682.011 304.469Z" fill="#302D27"/>
<path d="M303.452 898.211C302.855 873.854 304.734 849.516 309.009 825.886C313.354 801.863 320.106 778.275 329.15 755.599C334.098 743.192 339.977 730.677 346.47 718.662C347.398 716.945 346.953 714.517 345.13 713.554C343.391 712.635 341.014 713.059 340.022 714.894C328.198 736.774 318.611 759.886 311.452 783.704C304.308 807.474 299.61 831.969 297.359 856.686C296.102 870.487 295.646 884.357 295.986 898.211C296.034 900.162 297.669 902.036 299.719 901.944C301.701 901.856 303.504 900.303 303.452 898.211V898.211Z" fill="#302D27"/>
<path d="M432.37 526.36C428.263 534.046 430.83 543.96 438.047 548.783C439.675 549.87 442.252 549.153 443.155 547.443C444.148 545.564 443.553 543.496 441.816 542.335C441.654 542.228 441.498 542.112 441.337 542.004C440.96 541.751 441.943 542.535 441.452 542.087C441.166 541.827 440.874 541.577 440.603 541.301C440.359 541.053 440.14 540.785 439.906 540.528C439.6 540.192 440.37 541.194 439.992 540.645C439.883 540.486 439.769 540.331 439.662 540.17C439.254 539.555 438.911 538.909 438.596 538.243C438.257 537.525 438.801 538.825 438.659 538.383C438.599 538.199 438.522 538.02 438.46 537.836C438.336 537.468 438.226 537.095 438.132 536.719C438.047 536.38 437.975 536.038 437.915 535.693C437.8 535.036 437.998 535.634 437.931 535.88C437.973 535.725 437.888 535.459 437.876 535.301C437.822 534.568 437.824 533.83 437.888 533.098C437.895 533.012 437.979 532.232 437.901 532.904C437.826 533.55 437.919 532.859 437.947 532.715C438.021 532.337 438.112 531.962 438.221 531.592C438.318 531.258 438.443 530.935 438.557 530.607C438.707 530.174 438.19 531.347 438.5 530.752C438.608 530.545 438.707 530.335 438.817 530.129C439.737 528.407 439.307 525.987 437.478 525.021C435.745 524.106 433.353 524.521 432.37 526.36V526.36Z" fill="#302D27"/>
<path d="M311.948 283.02C315.038 286.102 319.514 286.995 323.693 286.107C325.777 285.664 327.655 284.658 329.307 283.341C330.981 282.007 332.085 280.234 332.847 278.258C333.176 277.406 332.914 276.138 332.471 275.381C332.018 274.607 331.13 273.868 330.24 273.665C328.103 273.179 326.401 274.317 325.648 276.273C325.408 276.895 326.049 275.457 325.757 276.007C325.678 276.156 325.605 276.308 325.522 276.454C325.439 276.6 325.351 276.742 325.259 276.882C324.858 277.488 325.43 276.83 325.451 276.665C325.425 276.869 324.931 277.26 324.782 277.406C324.488 277.693 323.585 278.245 324.649 277.579C324.072 277.94 323.526 278.298 322.91 278.597C322.307 278.891 323.814 278.269 323.176 278.479C323.014 278.533 322.856 278.594 322.694 278.646C322.37 278.749 322.041 278.836 321.708 278.907C321.541 278.942 321.373 278.97 321.206 279C320.581 279.116 322.198 278.911 321.524 278.953C321.185 278.975 320.848 279.001 320.508 278.998C320.435 278.998 319.503 278.99 319.498 278.94C319.498 278.948 320.651 279.128 319.826 278.975C319.661 278.945 319.497 278.91 319.335 278.87C319.009 278.791 318.696 278.684 318.378 278.578C317.822 278.391 319.115 278.94 318.732 278.731C318.587 278.652 318.432 278.589 318.285 278.51C317.988 278.352 317.723 278.154 317.435 277.982C317.116 277.791 318.205 278.664 317.662 278.148C317.518 278.011 317.369 277.881 317.228 277.74C315.843 276.359 313.313 276.253 311.948 277.74C310.581 279.229 310.47 281.546 311.948 283.02L311.948 283.02Z" fill="#302D27"/>
<path d="M463.118 44.0001C460.574 44.0001 453.795 79.3983 452.637 83.127C448.624 96.0614 445.291 109.295 441.916 122.491C440.62 118.81 440.124 114.903 439.635 111.03C437.474 93.8991 437.769 73.611 432.327 57.2412C429.989 50.2097 427.719 48.239 436.548 46.4067C445.175 44.6166 454.33 44.1517 463.118 44L463.118 44.0001Z" fill="#C96868"/>
<path d="M593.847 130.617C591.417 128.479 570.823 138.512 567.698 139.884C560.058 143.238 552.949 147.514 545.683 151.604C550.553 144.223 554.325 137.395 560.67 131.339C562.433 129.657 581.988 112.086 582.018 112.185C584.146 119.268 588.295 125.732 593.847 130.617L593.847 130.617Z" fill="#C96868"/>
<path d="M220.747 243.413C208.963 238.279 189.96 239.124 177.119 239.124C176.338 239.124 182.205 264.693 182.951 267.743C189.825 263.684 196.699 259.625 203.574 255.566C208.125 252.878 219.372 248.868 220.747 243.413Z" fill="#C96868"/>
<path d="M249.064 124.752C252.87 130.248 256.675 135.743 260.48 141.238C261.59 142.84 263.804 143.728 265.588 142.578C267.181 141.551 268.117 139.187 266.928 137.47C263.122 131.974 259.317 126.479 255.512 120.984C254.402 119.382 252.188 118.494 250.404 119.644C248.811 120.671 247.875 123.035 249.064 124.752Z" fill="#C96868"/>
<path d="M529.888 510.775C531.612 517.954 533.337 525.133 535.062 532.311C535.518 534.211 537.779 535.525 539.654 534.919C541.631 534.279 542.751 532.362 542.262 530.326C540.537 523.148 538.812 515.969 537.088 508.79C536.631 506.89 534.37 505.576 532.495 506.183C530.518 506.823 529.399 508.739 529.888 510.775Z" fill="#C96868"/>
<path d="M674.855 391.556C677.391 391.978 679.928 392.401 682.464 392.824C682.96 392.979 683.457 393.002 683.953 392.891C684.45 392.868 684.912 392.72 685.341 392.447C686.115 391.994 686.854 391.106 687.057 390.216C687.274 389.261 687.227 388.188 686.68 387.34C686.185 386.571 685.39 385.781 684.449 385.624C681.913 385.201 679.376 384.778 676.84 384.356C676.343 384.2 675.847 384.178 675.351 384.289C674.854 384.311 674.391 384.459 673.963 384.732C673.188 385.185 672.45 386.073 672.247 386.963C672.03 387.919 672.077 388.991 672.623 389.84C673.119 390.608 673.914 391.399 674.855 391.556Z" fill="#C96868"/>
</svg>
