<svg id="visual" viewBox="0 0 960 540" width="960" height="540" xmlns="http://www.w3.org/2000/svg" xmlns:xlink="http://www.w3.org/1999/xlink" version="1.1"><rect x="0" y="0" width="960" height="540" fill="#EDEBE7"></rect><path d="M0 461L40 464.5C80 468 160 475 240 471.2C320 467.3 400 452.7 480 442.8C560 433 640 428 720 432.3C800 436.7 880 450.3 920 457.2L960 464L960 541L920 541C880 541 800 541 720 541C640 541 560 541 480 541C400 541 320 541 240 541C160 541 80 541 40 541L0 541Z" fill="#FFFFFF" stroke-linecap="round" stroke-linejoin="miter"></path></svg>