<svg id="visual" viewBox="0 -50 2800 1600" width="2800" height="1600" xmlns="http://www.w3.org/2000/svg" xmlns:xlink="http://www.w3.org/1999/xlink" version="1.1"><rect x="0" y="0" width="2800" height="1600" fill="#696A80"></rect><path d="M0 1365L38.8 1353.5C77.7 1342 155.3 1319 233.2 1327.8C311 1336.7 389 1377.3 466.8 1384.7C544.7 1392 622.3 1366 700 1347.2C777.7 1328.3 855.3 1316.7 933.2 1321.3C1011 1326 1089 1347 1166.8 1367.7C1244.7 1388.3 1322.3 1408.7 1400 1418.3C1477.7 1428 1555.3 1427 1633.2 1424.3C1711 1421.7 1789 1417.3 1866.8 1403C1944.7 1388.7 2022.3 1364.3 2100 1359.8C2177.7 1355.3 2255.3 1370.7 2333.2 1379.2C2411 1387.7 2489 1389.3 2566.8 1373.3C2644.7 1357.3 2722.3 1323.7 2761.2 1306.8L2800 1290L2800 1601L2761.2 1601C2722.3 1601 2644.7 1601 2566.8 1601C2489 1601 2411 1601 2333.2 1601C2255.3 1601 2177.7 1601 2100 1601C2022.3 1601 1944.7 1601 1866.8 1601C1789 1601 1711 1601 1633.2 1601C1555.3 1601 1477.7 1601 1400 1601C1322.3 1601 1244.7 1601 1166.8 1601C1089 1601 1011 1601 933.2 1601C855.3 1601 777.7 1601 700 1601C622.3 1601 544.7 1601 466.8 1601C389 1601 311 1601 233.2 1601C155.3 1601 77.7 1601 38.8 1601L0 1601Z" fill="#EDEBE7" stroke-linecap="round" stroke-linejoin="miter"></path></svg>