<svg id="visual" viewBox="0 -80 960 540" width="960" height="540" xmlns="http://www.w3.org/2000/svg" xmlns:xlink="http://www.w3.org/1999/xlink" version="1.1"><rect x="0" y="0" width="960" height="540" fill="#696A80"></rect><path d="M0 368L22.8 381.7C45.7 395.3 91.3 422.7 137 437.5C182.7 452.3 228.3 454.7 274 441C319.7 427.3 365.3 397.7 411.2 381.7C457 365.7 503 363.3 548.8 361.7C594.7 360 640.3 359 686 376.2C731.7 393.3 777.3 428.7 823 428.3C868.7 428 914.3 392 937.2 374L960 356L960 541L937.2 541C914.3 541 868.7 541 823 541C777.3 541 731.7 541 686 541C640.3 541 594.7 541 548.8 541C503 541 457 541 411.2 541C365.3 541 319.7 541 274 541C228.3 541 182.7 541 137 541C91.3 541 45.7 541 22.8 541L0 541Z" fill="#EDEBE7" stroke-linecap="round" stroke-linejoin="miter"></path></svg>