<svg id="visual" viewBox="0 85 960 540" width="960" height="540" xmlns="http://www.w3.org/2000/svg" xmlns:xlink="http://www.w3.org/1999/xlink" version="1.1"><rect x="0" y="0" width="960" height="540" fill="#696A80"></rect><path d="M0 170L22.8 156.3C45.7 142.7 91.3 115.3 137 100.5C182.7 85.7 228.3 83.3 274 97C319.7 110.7 365.3 140.3 411.2 156.3C457 172.3 503 174.7 548.8 176.3C594.7 178 640.3 179 686 161.8C731.7 144.7 777.3 109.3 823 109.7C868.7 110 914.3 146 937.2 164L960 182L960 0L937.2 0C914.3 0 868.7 0 823 0C777.3 0 731.7 0 686 0C640.3 0 594.7 0 548.8 0C503 0 457 0 411.2 0C365.3 0 319.7 0 274 0C228.3 0 182.7 0 137 0C91.3 0 45.7 0 22.8 0L0 0Z" fill="#EDEBE7" stroke-linecap="round" stroke-linejoin="miter"></path></svg>